<?xml version="1.0" encoding="utf-8" standalone="no"?>
<!DOCTYPE svg PUBLIC "-//W3C//DTD SVG 1.1//EN"
  "http://www.w3.org/Graphics/SVG/1.1/DTD/svg11.dtd">
<svg xmlns:xlink="http://www.w3.org/1999/xlink" width="856.360937pt" height="424.15625pt" viewBox="0 0 856.360937 424.15625" xmlns="http://www.w3.org/2000/svg" version="1.1">
 <metadata>
  <rdf:RDF xmlns:dc="http://purl.org/dc/elements/1.1/" xmlns:cc="http://creativecommons.org/ns#" xmlns:rdf="http://www.w3.org/1999/02/22-rdf-syntax-ns#">
   <cc:Work>
    <dc:type rdf:resource="http://purl.org/dc/dcmitype/StillImage"/>
    <dc:date>2024-09-25T12:48:24.769945</dc:date>
    <dc:format>image/svg+xml</dc:format>
    <dc:creator>
     <cc:Agent>
      <dc:title>Matplotlib v3.5.2, https://matplotlib.org/</dc:title>
     </cc:Agent>
    </dc:creator>
   </cc:Work>
  </rdf:RDF>
 </metadata>
 <defs>
  <style type="text/css">*{stroke-linejoin: round; stroke-linecap: butt}</style>
 </defs>
 <g id="figure_1">
  <g id="patch_1">
   <path d="M 0 424.15625 
L 856.360937 424.15625 
L 856.360937 0 
L 0 0 
z
" style="fill: #ffffff"/>
  </g>
  <g id="axes_1">
   <g id="patch_2">
    <path d="M 64.885938 386.6 
L 422.560938 386.6 
L 422.560938 7.2 
L 64.885938 7.2 
z
" style="fill: #ffffff"/>
   </g>
   <g id="matplotlib.axis_1">
    <g id="xtick_1">
     <g id="line2d_1">
      <defs>
       <path id="m6f9be94af4" d="M 0 0 
L 0 3.5 
" style="stroke: #000000; stroke-width: 0.8"/>
      </defs>
      <g>
       <use xlink:href="#m6f9be94af4" x="81.143892" y="386.6" style="stroke: #000000; stroke-width: 0.8"/>
      </g>
     </g>
     <g id="text_1">
      <!-- 0 -->
      <g transform="translate(77.962642 401.198437)scale(0.1 -0.1)">
       <defs>
        <path id="DejaVuSans-30" d="M 2034 4250 
Q 1547 4250 1301 3770 
Q 1056 3291 1056 2328 
Q 1056 1369 1301 889 
Q 1547 409 2034 409 
Q 2525 409 2770 889 
Q 3016 1369 3016 2328 
Q 3016 3291 2770 3770 
Q 2525 4250 2034 4250 
z
M 2034 4750 
Q 2819 4750 3233 4129 
Q 3647 3509 3647 2328 
Q 3647 1150 3233 529 
Q 2819 -91 2034 -91 
Q 1250 -91 836 529 
Q 422 1150 422 2328 
Q 422 3509 836 4129 
Q 1250 4750 2034 4750 
z
" transform="scale(0.015625)"/>
       </defs>
       <use xlink:href="#DejaVuSans-30"/>
      </g>
     </g>
    </g>
    <g id="xtick_2">
     <g id="line2d_2">
      <g>
       <use xlink:href="#m6f9be94af4" x="132.887859" y="386.6" style="stroke: #000000; stroke-width: 0.8"/>
      </g>
     </g>
     <g id="text_2">
      <!-- 5 -->
      <g transform="translate(129.706609 401.198437)scale(0.1 -0.1)">
       <defs>
        <path id="DejaVuSans-35" d="M 691 4666 
L 3169 4666 
L 3169 4134 
L 1269 4134 
L 1269 2991 
Q 1406 3038 1543 3061 
Q 1681 3084 1819 3084 
Q 2600 3084 3056 2656 
Q 3513 2228 3513 1497 
Q 3513 744 3044 326 
Q 2575 -91 1722 -91 
Q 1428 -91 1123 -41 
Q 819 9 494 109 
L 494 744 
Q 775 591 1075 516 
Q 1375 441 1709 441 
Q 2250 441 2565 725 
Q 2881 1009 2881 1497 
Q 2881 1984 2565 2268 
Q 2250 2553 1709 2553 
Q 1456 2553 1204 2497 
Q 953 2441 691 2322 
L 691 4666 
z
" transform="scale(0.015625)"/>
       </defs>
       <use xlink:href="#DejaVuSans-35"/>
      </g>
     </g>
    </g>
    <g id="xtick_3">
     <g id="line2d_3">
      <g>
       <use xlink:href="#m6f9be94af4" x="184.631827" y="386.6" style="stroke: #000000; stroke-width: 0.8"/>
      </g>
     </g>
     <g id="text_3">
      <!-- 10 -->
      <g transform="translate(178.269327 401.198437)scale(0.1 -0.1)">
       <defs>
        <path id="DejaVuSans-31" d="M 794 531 
L 1825 531 
L 1825 4091 
L 703 3866 
L 703 4441 
L 1819 4666 
L 2450 4666 
L 2450 531 
L 3481 531 
L 3481 0 
L 794 0 
L 794 531 
z
" transform="scale(0.015625)"/>
       </defs>
       <use xlink:href="#DejaVuSans-31"/>
       <use xlink:href="#DejaVuSans-30" x="63.623047"/>
      </g>
     </g>
    </g>
    <g id="xtick_4">
     <g id="line2d_4">
      <g>
       <use xlink:href="#m6f9be94af4" x="236.375794" y="386.6" style="stroke: #000000; stroke-width: 0.8"/>
      </g>
     </g>
     <g id="text_4">
      <!-- 15 -->
      <g transform="translate(230.013294 401.198437)scale(0.1 -0.1)">
       <use xlink:href="#DejaVuSans-31"/>
       <use xlink:href="#DejaVuSans-35" x="63.623047"/>
      </g>
     </g>
    </g>
    <g id="xtick_5">
     <g id="line2d_5">
      <g>
       <use xlink:href="#m6f9be94af4" x="288.119761" y="386.6" style="stroke: #000000; stroke-width: 0.8"/>
      </g>
     </g>
     <g id="text_5">
      <!-- 20 -->
      <g transform="translate(281.757261 401.198437)scale(0.1 -0.1)">
       <defs>
        <path id="DejaVuSans-32" d="M 1228 531 
L 3431 531 
L 3431 0 
L 469 0 
L 469 531 
Q 828 903 1448 1529 
Q 2069 2156 2228 2338 
Q 2531 2678 2651 2914 
Q 2772 3150 2772 3378 
Q 2772 3750 2511 3984 
Q 2250 4219 1831 4219 
Q 1534 4219 1204 4116 
Q 875 4013 500 3803 
L 500 4441 
Q 881 4594 1212 4672 
Q 1544 4750 1819 4750 
Q 2544 4750 2975 4387 
Q 3406 4025 3406 3419 
Q 3406 3131 3298 2873 
Q 3191 2616 2906 2266 
Q 2828 2175 2409 1742 
Q 1991 1309 1228 531 
z
" transform="scale(0.015625)"/>
       </defs>
       <use xlink:href="#DejaVuSans-32"/>
       <use xlink:href="#DejaVuSans-30" x="63.623047"/>
      </g>
     </g>
    </g>
    <g id="xtick_6">
     <g id="line2d_6">
      <g>
       <use xlink:href="#m6f9be94af4" x="339.863729" y="386.6" style="stroke: #000000; stroke-width: 0.8"/>
      </g>
     </g>
     <g id="text_6">
      <!-- 25 -->
      <g transform="translate(333.501229 401.198437)scale(0.1 -0.1)">
       <use xlink:href="#DejaVuSans-32"/>
       <use xlink:href="#DejaVuSans-35" x="63.623047"/>
      </g>
     </g>
    </g>
    <g id="xtick_7">
     <g id="line2d_7">
      <g>
       <use xlink:href="#m6f9be94af4" x="391.607696" y="386.6" style="stroke: #000000; stroke-width: 0.8"/>
      </g>
     </g>
     <g id="text_7">
      <!-- 30 -->
      <g transform="translate(385.245196 401.198437)scale(0.1 -0.1)">
       <defs>
        <path id="DejaVuSans-33" d="M 2597 2516 
Q 3050 2419 3304 2112 
Q 3559 1806 3559 1356 
Q 3559 666 3084 287 
Q 2609 -91 1734 -91 
Q 1441 -91 1130 -33 
Q 819 25 488 141 
L 488 750 
Q 750 597 1062 519 
Q 1375 441 1716 441 
Q 2309 441 2620 675 
Q 2931 909 2931 1356 
Q 2931 1769 2642 2001 
Q 2353 2234 1838 2234 
L 1294 2234 
L 1294 2753 
L 1863 2753 
Q 2328 2753 2575 2939 
Q 2822 3125 2822 3475 
Q 2822 3834 2567 4026 
Q 2313 4219 1838 4219 
Q 1578 4219 1281 4162 
Q 984 4106 628 3988 
L 628 4550 
Q 988 4650 1302 4700 
Q 1616 4750 1894 4750 
Q 2613 4750 3031 4423 
Q 3450 4097 3450 3541 
Q 3450 3153 3228 2886 
Q 3006 2619 2597 2516 
z
" transform="scale(0.015625)"/>
       </defs>
       <use xlink:href="#DejaVuSans-33"/>
       <use xlink:href="#DejaVuSans-30" x="63.623047"/>
      </g>
     </g>
    </g>
    <g id="text_8">
     <!-- t -->
     <g transform="translate(241.763281 414.876562)scale(0.1 -0.1)">
      <defs>
       <path id="DejaVuSans-74" d="M 1172 4494 
L 1172 3500 
L 2356 3500 
L 2356 3053 
L 1172 3053 
L 1172 1153 
Q 1172 725 1289 603 
Q 1406 481 1766 481 
L 2356 481 
L 2356 0 
L 1766 0 
Q 1100 0 847 248 
Q 594 497 594 1153 
L 594 3053 
L 172 3053 
L 172 3500 
L 594 3500 
L 594 4494 
L 1172 4494 
z
" transform="scale(0.015625)"/>
      </defs>
      <use xlink:href="#DejaVuSans-74"/>
     </g>
    </g>
   </g>
   <g id="matplotlib.axis_2">
    <g id="ytick_1">
     <g id="line2d_8">
      <defs>
       <path id="m69ab90b3a3" d="M 0 0 
L -3.5 0 
" style="stroke: #000000; stroke-width: 0.8"/>
      </defs>
      <g>
       <use xlink:href="#m69ab90b3a3" x="64.885938" y="344.353821" style="stroke: #000000; stroke-width: 0.8"/>
      </g>
     </g>
     <g id="text_9">
      <!-- −0.010 -->
      <g transform="translate(20.878125 348.15304)scale(0.1 -0.1)">
       <defs>
        <path id="DejaVuSans-2212" d="M 678 2272 
L 4684 2272 
L 4684 1741 
L 678 1741 
L 678 2272 
z
" transform="scale(0.015625)"/>
        <path id="DejaVuSans-2e" d="M 684 794 
L 1344 794 
L 1344 0 
L 684 0 
L 684 794 
z
" transform="scale(0.015625)"/>
       </defs>
       <use xlink:href="#DejaVuSans-2212"/>
       <use xlink:href="#DejaVuSans-30" x="83.789062"/>
       <use xlink:href="#DejaVuSans-2e" x="147.412109"/>
       <use xlink:href="#DejaVuSans-30" x="179.199219"/>
       <use xlink:href="#DejaVuSans-31" x="242.822266"/>
       <use xlink:href="#DejaVuSans-30" x="306.445312"/>
      </g>
     </g>
    </g>
    <g id="ytick_2">
     <g id="line2d_9">
      <g>
       <use xlink:href="#m69ab90b3a3" x="64.885938" y="275.023876" style="stroke: #000000; stroke-width: 0.8"/>
      </g>
     </g>
     <g id="text_10">
      <!-- −0.005 -->
      <g transform="translate(20.878125 278.823095)scale(0.1 -0.1)">
       <use xlink:href="#DejaVuSans-2212"/>
       <use xlink:href="#DejaVuSans-30" x="83.789062"/>
       <use xlink:href="#DejaVuSans-2e" x="147.412109"/>
       <use xlink:href="#DejaVuSans-30" x="179.199219"/>
       <use xlink:href="#DejaVuSans-30" x="242.822266"/>
       <use xlink:href="#DejaVuSans-35" x="306.445312"/>
      </g>
     </g>
    </g>
    <g id="ytick_3">
     <g id="line2d_10">
      <g>
       <use xlink:href="#m69ab90b3a3" x="64.885938" y="205.693932" style="stroke: #000000; stroke-width: 0.8"/>
      </g>
     </g>
     <g id="text_11">
      <!-- 0.000 -->
      <g transform="translate(29.257813 209.493151)scale(0.1 -0.1)">
       <use xlink:href="#DejaVuSans-30"/>
       <use xlink:href="#DejaVuSans-2e" x="63.623047"/>
       <use xlink:href="#DejaVuSans-30" x="95.410156"/>
       <use xlink:href="#DejaVuSans-30" x="159.033203"/>
       <use xlink:href="#DejaVuSans-30" x="222.65625"/>
      </g>
     </g>
    </g>
    <g id="ytick_4">
     <g id="line2d_11">
      <g>
       <use xlink:href="#m69ab90b3a3" x="64.885938" y="136.363987" style="stroke: #000000; stroke-width: 0.8"/>
      </g>
     </g>
     <g id="text_12">
      <!-- 0.005 -->
      <g transform="translate(29.257813 140.163206)scale(0.1 -0.1)">
       <use xlink:href="#DejaVuSans-30"/>
       <use xlink:href="#DejaVuSans-2e" x="63.623047"/>
       <use xlink:href="#DejaVuSans-30" x="95.410156"/>
       <use xlink:href="#DejaVuSans-30" x="159.033203"/>
       <use xlink:href="#DejaVuSans-35" x="222.65625"/>
      </g>
     </g>
    </g>
    <g id="ytick_5">
     <g id="line2d_12">
      <g>
       <use xlink:href="#m69ab90b3a3" x="64.885938" y="67.034043" style="stroke: #000000; stroke-width: 0.8"/>
      </g>
     </g>
     <g id="text_13">
      <!-- 0.010 -->
      <g transform="translate(29.257813 70.833262)scale(0.1 -0.1)">
       <use xlink:href="#DejaVuSans-30"/>
       <use xlink:href="#DejaVuSans-2e" x="63.623047"/>
       <use xlink:href="#DejaVuSans-30" x="95.410156"/>
       <use xlink:href="#DejaVuSans-31" x="159.033203"/>
       <use xlink:href="#DejaVuSans-30" x="222.65625"/>
      </g>
     </g>
    </g>
    <g id="text_14">
     <!-- Difference between Numerical &amp; Exact Solution (x(t)) -->
     <g transform="translate(14.798438 330.292187)rotate(-90)scale(0.1 -0.1)">
      <defs>
       <path id="DejaVuSans-44" d="M 1259 4147 
L 1259 519 
L 2022 519 
Q 2988 519 3436 956 
Q 3884 1394 3884 2338 
Q 3884 3275 3436 3711 
Q 2988 4147 2022 4147 
L 1259 4147 
z
M 628 4666 
L 1925 4666 
Q 3281 4666 3915 4102 
Q 4550 3538 4550 2338 
Q 4550 1131 3912 565 
Q 3275 0 1925 0 
L 628 0 
L 628 4666 
z
" transform="scale(0.015625)"/>
       <path id="DejaVuSans-69" d="M 603 3500 
L 1178 3500 
L 1178 0 
L 603 0 
L 603 3500 
z
M 603 4863 
L 1178 4863 
L 1178 4134 
L 603 4134 
L 603 4863 
z
" transform="scale(0.015625)"/>
       <path id="DejaVuSans-66" d="M 2375 4863 
L 2375 4384 
L 1825 4384 
Q 1516 4384 1395 4259 
Q 1275 4134 1275 3809 
L 1275 3500 
L 2222 3500 
L 2222 3053 
L 1275 3053 
L 1275 0 
L 697 0 
L 697 3053 
L 147 3053 
L 147 3500 
L 697 3500 
L 697 3744 
Q 697 4328 969 4595 
Q 1241 4863 1831 4863 
L 2375 4863 
z
" transform="scale(0.015625)"/>
       <path id="DejaVuSans-65" d="M 3597 1894 
L 3597 1613 
L 953 1613 
Q 991 1019 1311 708 
Q 1631 397 2203 397 
Q 2534 397 2845 478 
Q 3156 559 3463 722 
L 3463 178 
Q 3153 47 2828 -22 
Q 2503 -91 2169 -91 
Q 1331 -91 842 396 
Q 353 884 353 1716 
Q 353 2575 817 3079 
Q 1281 3584 2069 3584 
Q 2775 3584 3186 3129 
Q 3597 2675 3597 1894 
z
M 3022 2063 
Q 3016 2534 2758 2815 
Q 2500 3097 2075 3097 
Q 1594 3097 1305 2825 
Q 1016 2553 972 2059 
L 3022 2063 
z
" transform="scale(0.015625)"/>
       <path id="DejaVuSans-72" d="M 2631 2963 
Q 2534 3019 2420 3045 
Q 2306 3072 2169 3072 
Q 1681 3072 1420 2755 
Q 1159 2438 1159 1844 
L 1159 0 
L 581 0 
L 581 3500 
L 1159 3500 
L 1159 2956 
Q 1341 3275 1631 3429 
Q 1922 3584 2338 3584 
Q 2397 3584 2469 3576 
Q 2541 3569 2628 3553 
L 2631 2963 
z
" transform="scale(0.015625)"/>
       <path id="DejaVuSans-6e" d="M 3513 2113 
L 3513 0 
L 2938 0 
L 2938 2094 
Q 2938 2591 2744 2837 
Q 2550 3084 2163 3084 
Q 1697 3084 1428 2787 
Q 1159 2491 1159 1978 
L 1159 0 
L 581 0 
L 581 3500 
L 1159 3500 
L 1159 2956 
Q 1366 3272 1645 3428 
Q 1925 3584 2291 3584 
Q 2894 3584 3203 3211 
Q 3513 2838 3513 2113 
z
" transform="scale(0.015625)"/>
       <path id="DejaVuSans-63" d="M 3122 3366 
L 3122 2828 
Q 2878 2963 2633 3030 
Q 2388 3097 2138 3097 
Q 1578 3097 1268 2742 
Q 959 2388 959 1747 
Q 959 1106 1268 751 
Q 1578 397 2138 397 
Q 2388 397 2633 464 
Q 2878 531 3122 666 
L 3122 134 
Q 2881 22 2623 -34 
Q 2366 -91 2075 -91 
Q 1284 -91 818 406 
Q 353 903 353 1747 
Q 353 2603 823 3093 
Q 1294 3584 2113 3584 
Q 2378 3584 2631 3529 
Q 2884 3475 3122 3366 
z
" transform="scale(0.015625)"/>
       <path id="DejaVuSans-20" transform="scale(0.015625)"/>
       <path id="DejaVuSans-62" d="M 3116 1747 
Q 3116 2381 2855 2742 
Q 2594 3103 2138 3103 
Q 1681 3103 1420 2742 
Q 1159 2381 1159 1747 
Q 1159 1113 1420 752 
Q 1681 391 2138 391 
Q 2594 391 2855 752 
Q 3116 1113 3116 1747 
z
M 1159 2969 
Q 1341 3281 1617 3432 
Q 1894 3584 2278 3584 
Q 2916 3584 3314 3078 
Q 3713 2572 3713 1747 
Q 3713 922 3314 415 
Q 2916 -91 2278 -91 
Q 1894 -91 1617 61 
Q 1341 213 1159 525 
L 1159 0 
L 581 0 
L 581 4863 
L 1159 4863 
L 1159 2969 
z
" transform="scale(0.015625)"/>
       <path id="DejaVuSans-77" d="M 269 3500 
L 844 3500 
L 1563 769 
L 2278 3500 
L 2956 3500 
L 3675 769 
L 4391 3500 
L 4966 3500 
L 4050 0 
L 3372 0 
L 2619 2869 
L 1863 0 
L 1184 0 
L 269 3500 
z
" transform="scale(0.015625)"/>
       <path id="DejaVuSans-4e" d="M 628 4666 
L 1478 4666 
L 3547 763 
L 3547 4666 
L 4159 4666 
L 4159 0 
L 3309 0 
L 1241 3903 
L 1241 0 
L 628 0 
L 628 4666 
z
" transform="scale(0.015625)"/>
       <path id="DejaVuSans-75" d="M 544 1381 
L 544 3500 
L 1119 3500 
L 1119 1403 
Q 1119 906 1312 657 
Q 1506 409 1894 409 
Q 2359 409 2629 706 
Q 2900 1003 2900 1516 
L 2900 3500 
L 3475 3500 
L 3475 0 
L 2900 0 
L 2900 538 
Q 2691 219 2414 64 
Q 2138 -91 1772 -91 
Q 1169 -91 856 284 
Q 544 659 544 1381 
z
M 1991 3584 
L 1991 3584 
z
" transform="scale(0.015625)"/>
       <path id="DejaVuSans-6d" d="M 3328 2828 
Q 3544 3216 3844 3400 
Q 4144 3584 4550 3584 
Q 5097 3584 5394 3201 
Q 5691 2819 5691 2113 
L 5691 0 
L 5113 0 
L 5113 2094 
Q 5113 2597 4934 2840 
Q 4756 3084 4391 3084 
Q 3944 3084 3684 2787 
Q 3425 2491 3425 1978 
L 3425 0 
L 2847 0 
L 2847 2094 
Q 2847 2600 2669 2842 
Q 2491 3084 2119 3084 
Q 1678 3084 1418 2786 
Q 1159 2488 1159 1978 
L 1159 0 
L 581 0 
L 581 3500 
L 1159 3500 
L 1159 2956 
Q 1356 3278 1631 3431 
Q 1906 3584 2284 3584 
Q 2666 3584 2933 3390 
Q 3200 3197 3328 2828 
z
" transform="scale(0.015625)"/>
       <path id="DejaVuSans-61" d="M 2194 1759 
Q 1497 1759 1228 1600 
Q 959 1441 959 1056 
Q 959 750 1161 570 
Q 1363 391 1709 391 
Q 2188 391 2477 730 
Q 2766 1069 2766 1631 
L 2766 1759 
L 2194 1759 
z
M 3341 1997 
L 3341 0 
L 2766 0 
L 2766 531 
Q 2569 213 2275 61 
Q 1981 -91 1556 -91 
Q 1019 -91 701 211 
Q 384 513 384 1019 
Q 384 1609 779 1909 
Q 1175 2209 1959 2209 
L 2766 2209 
L 2766 2266 
Q 2766 2663 2505 2880 
Q 2244 3097 1772 3097 
Q 1472 3097 1187 3025 
Q 903 2953 641 2809 
L 641 3341 
Q 956 3463 1253 3523 
Q 1550 3584 1831 3584 
Q 2591 3584 2966 3190 
Q 3341 2797 3341 1997 
z
" transform="scale(0.015625)"/>
       <path id="DejaVuSans-6c" d="M 603 4863 
L 1178 4863 
L 1178 0 
L 603 0 
L 603 4863 
z
" transform="scale(0.015625)"/>
       <path id="DejaVuSans-26" d="M 1556 2509 
Q 1272 2256 1139 2004 
Q 1006 1753 1006 1478 
Q 1006 1022 1337 719 
Q 1669 416 2169 416 
Q 2466 416 2725 514 
Q 2984 613 3213 813 
L 1556 2509 
z
M 1997 2859 
L 3584 1234 
Q 3769 1513 3872 1830 
Q 3975 2147 3994 2503 
L 4575 2503 
Q 4538 2091 4375 1687 
Q 4213 1284 3922 891 
L 4794 0 
L 4006 0 
L 3559 459 
Q 3234 181 2878 45 
Q 2522 -91 2113 -91 
Q 1359 -91 881 339 
Q 403 769 403 1441 
Q 403 1841 612 2192 
Q 822 2544 1241 2853 
Q 1091 3050 1012 3245 
Q 934 3441 934 3628 
Q 934 4134 1281 4442 
Q 1628 4750 2203 4750 
Q 2463 4750 2720 4694 
Q 2978 4638 3244 4525 
L 3244 3956 
Q 2972 4103 2725 4179 
Q 2478 4256 2266 4256 
Q 1938 4256 1733 4082 
Q 1528 3909 1528 3634 
Q 1528 3475 1620 3314 
Q 1713 3153 1997 2859 
z
" transform="scale(0.015625)"/>
       <path id="DejaVuSans-45" d="M 628 4666 
L 3578 4666 
L 3578 4134 
L 1259 4134 
L 1259 2753 
L 3481 2753 
L 3481 2222 
L 1259 2222 
L 1259 531 
L 3634 531 
L 3634 0 
L 628 0 
L 628 4666 
z
" transform="scale(0.015625)"/>
       <path id="DejaVuSans-78" d="M 3513 3500 
L 2247 1797 
L 3578 0 
L 2900 0 
L 1881 1375 
L 863 0 
L 184 0 
L 1544 1831 
L 300 3500 
L 978 3500 
L 1906 2253 
L 2834 3500 
L 3513 3500 
z
" transform="scale(0.015625)"/>
       <path id="DejaVuSans-53" d="M 3425 4513 
L 3425 3897 
Q 3066 4069 2747 4153 
Q 2428 4238 2131 4238 
Q 1616 4238 1336 4038 
Q 1056 3838 1056 3469 
Q 1056 3159 1242 3001 
Q 1428 2844 1947 2747 
L 2328 2669 
Q 3034 2534 3370 2195 
Q 3706 1856 3706 1288 
Q 3706 609 3251 259 
Q 2797 -91 1919 -91 
Q 1588 -91 1214 -16 
Q 841 59 441 206 
L 441 856 
Q 825 641 1194 531 
Q 1563 422 1919 422 
Q 2459 422 2753 634 
Q 3047 847 3047 1241 
Q 3047 1584 2836 1778 
Q 2625 1972 2144 2069 
L 1759 2144 
Q 1053 2284 737 2584 
Q 422 2884 422 3419 
Q 422 4038 858 4394 
Q 1294 4750 2059 4750 
Q 2388 4750 2728 4690 
Q 3069 4631 3425 4513 
z
" transform="scale(0.015625)"/>
       <path id="DejaVuSans-6f" d="M 1959 3097 
Q 1497 3097 1228 2736 
Q 959 2375 959 1747 
Q 959 1119 1226 758 
Q 1494 397 1959 397 
Q 2419 397 2687 759 
Q 2956 1122 2956 1747 
Q 2956 2369 2687 2733 
Q 2419 3097 1959 3097 
z
M 1959 3584 
Q 2709 3584 3137 3096 
Q 3566 2609 3566 1747 
Q 3566 888 3137 398 
Q 2709 -91 1959 -91 
Q 1206 -91 779 398 
Q 353 888 353 1747 
Q 353 2609 779 3096 
Q 1206 3584 1959 3584 
z
" transform="scale(0.015625)"/>
       <path id="DejaVuSans-28" d="M 1984 4856 
Q 1566 4138 1362 3434 
Q 1159 2731 1159 2009 
Q 1159 1288 1364 580 
Q 1569 -128 1984 -844 
L 1484 -844 
Q 1016 -109 783 600 
Q 550 1309 550 2009 
Q 550 2706 781 3412 
Q 1013 4119 1484 4856 
L 1984 4856 
z
" transform="scale(0.015625)"/>
       <path id="DejaVuSans-29" d="M 513 4856 
L 1013 4856 
Q 1481 4119 1714 3412 
Q 1947 2706 1947 2009 
Q 1947 1309 1714 600 
Q 1481 -109 1013 -844 
L 513 -844 
Q 928 -128 1133 580 
Q 1338 1288 1338 2009 
Q 1338 2731 1133 3434 
Q 928 4138 513 4856 
z
" transform="scale(0.015625)"/>
      </defs>
      <use xlink:href="#DejaVuSans-44"/>
      <use xlink:href="#DejaVuSans-69" x="77.001953"/>
      <use xlink:href="#DejaVuSans-66" x="104.785156"/>
      <use xlink:href="#DejaVuSans-66" x="139.990234"/>
      <use xlink:href="#DejaVuSans-65" x="175.195312"/>
      <use xlink:href="#DejaVuSans-72" x="236.71875"/>
      <use xlink:href="#DejaVuSans-65" x="275.582031"/>
      <use xlink:href="#DejaVuSans-6e" x="337.105469"/>
      <use xlink:href="#DejaVuSans-63" x="400.484375"/>
      <use xlink:href="#DejaVuSans-65" x="455.464844"/>
      <use xlink:href="#DejaVuSans-20" x="516.988281"/>
      <use xlink:href="#DejaVuSans-62" x="548.775391"/>
      <use xlink:href="#DejaVuSans-65" x="612.251953"/>
      <use xlink:href="#DejaVuSans-74" x="673.775391"/>
      <use xlink:href="#DejaVuSans-77" x="712.984375"/>
      <use xlink:href="#DejaVuSans-65" x="794.771484"/>
      <use xlink:href="#DejaVuSans-65" x="856.294922"/>
      <use xlink:href="#DejaVuSans-6e" x="917.818359"/>
      <use xlink:href="#DejaVuSans-20" x="981.197266"/>
      <use xlink:href="#DejaVuSans-4e" x="1012.984375"/>
      <use xlink:href="#DejaVuSans-75" x="1087.789062"/>
      <use xlink:href="#DejaVuSans-6d" x="1151.167969"/>
      <use xlink:href="#DejaVuSans-65" x="1248.580078"/>
      <use xlink:href="#DejaVuSans-72" x="1310.103516"/>
      <use xlink:href="#DejaVuSans-69" x="1351.216797"/>
      <use xlink:href="#DejaVuSans-63" x="1379"/>
      <use xlink:href="#DejaVuSans-61" x="1433.980469"/>
      <use xlink:href="#DejaVuSans-6c" x="1495.259766"/>
      <use xlink:href="#DejaVuSans-20" x="1523.042969"/>
      <use xlink:href="#DejaVuSans-26" x="1554.830078"/>
      <use xlink:href="#DejaVuSans-20" x="1632.808594"/>
      <use xlink:href="#DejaVuSans-45" x="1664.595703"/>
      <use xlink:href="#DejaVuSans-78" x="1727.779297"/>
      <use xlink:href="#DejaVuSans-61" x="1786.958984"/>
      <use xlink:href="#DejaVuSans-63" x="1848.238281"/>
      <use xlink:href="#DejaVuSans-74" x="1903.21875"/>
      <use xlink:href="#DejaVuSans-20" x="1942.427734"/>
      <use xlink:href="#DejaVuSans-53" x="1974.214844"/>
      <use xlink:href="#DejaVuSans-6f" x="2037.691406"/>
      <use xlink:href="#DejaVuSans-6c" x="2098.873047"/>
      <use xlink:href="#DejaVuSans-75" x="2126.65625"/>
      <use xlink:href="#DejaVuSans-74" x="2190.035156"/>
      <use xlink:href="#DejaVuSans-69" x="2229.244141"/>
      <use xlink:href="#DejaVuSans-6f" x="2257.027344"/>
      <use xlink:href="#DejaVuSans-6e" x="2318.208984"/>
      <use xlink:href="#DejaVuSans-20" x="2381.587891"/>
      <use xlink:href="#DejaVuSans-28" x="2413.375"/>
      <use xlink:href="#DejaVuSans-78" x="2452.388672"/>
      <use xlink:href="#DejaVuSans-28" x="2511.568359"/>
      <use xlink:href="#DejaVuSans-74" x="2550.582031"/>
      <use xlink:href="#DejaVuSans-29" x="2589.791016"/>
      <use xlink:href="#DejaVuSans-29" x="2628.804688"/>
     </g>
    </g>
   </g>
   <g id="line2d_13">
    <path d="M 81.143892 205.693932 
L 84.76597 203.769869 
L 86.835728 202.924847 
L 88.388047 202.505687 
L 89.940366 202.317527 
L 91.492686 202.393333 
L 93.045005 202.755911 
L 94.597324 203.41685 
L 96.149643 204.375814 
L 97.701962 205.620226 
L 99.254281 207.125346 
L 101.324039 209.473201 
L 103.911238 212.788042 
L 109.085634 219.540507 
L 111.155393 221.802695 
L 112.707712 223.16967 
L 114.260031 224.177206 
L 115.294911 224.618511 
L 116.32979 224.856656 
L 117.364669 224.877895 
L 118.399549 224.670901 
L 119.434428 224.226996 
L 120.469307 223.54034 
L 121.504187 222.608095 
L 122.539066 221.430551 
L 124.091385 219.212848 
L 125.643704 216.477454 
L 127.196023 213.266392 
L 129.265782 208.347398 
L 131.85298 201.432054 
L 139.097135 181.360096 
L 140.649455 177.716569 
L 142.201774 174.561914 
L 143.754093 172.001191 
L 144.788972 170.671006 
L 145.823851 169.671449 
L 146.858731 169.023965 
L 147.89361 168.74656 
L 148.928489 168.853506 
L 149.963369 169.355082 
L 150.998248 170.257359 
L 152.033127 171.562031 
L 153.068007 173.266283 
L 154.102886 175.362726 
L 155.655205 179.215267 
L 157.207524 183.862527 
L 158.759843 189.222499 
L 160.829602 197.296957 
L 163.4168 208.455651 
L 169.626076 235.992229 
L 171.695835 244.016861 
L 173.248154 249.248584 
L 174.800473 253.639479 
L 175.835352 256.033171 
L 176.870232 257.958925 
L 177.905111 259.386344 
L 178.93999 260.28977 
L 179.45743 260.538357 
L 179.97487 260.648658 
L 180.492309 260.618957 
L 181.009749 260.447892 
L 181.527189 260.134467 
L 182.562068 259.078401 
L 183.596947 257.450259 
L 184.631827 255.255643 
L 185.666706 252.50631 
L 186.701585 249.220154 
L 188.253904 243.338384 
L 189.806224 236.409536 
L 191.358543 228.567164 
L 193.428301 216.967902 
L 196.532939 198.030722 
L 201.189896 169.564635 
L 203.259655 158.263974 
L 204.811974 150.787252 
L 206.364293 144.387035 
L 207.399172 140.806366 
L 208.434052 137.829221 
L 209.468931 135.496191 
L 210.50381 133.841772 
L 211.02125 133.27804 
L 211.53869 132.893906 
L 212.056129 132.691773 
L 212.573569 132.67359 
L 213.091009 132.840845 
L 213.608448 133.194551 
L 214.125888 133.735248 
L 215.160768 135.377352 
L 216.195647 137.761769 
L 217.230526 140.875297 
L 218.265406 144.696945 
L 219.300285 149.198042 
L 220.852604 157.142576 
L 222.404923 166.380715 
L 224.474682 180.385105 
L 227.06188 199.854283 
L 234.306035 255.962891 
L 236.375794 269.558214 
L 237.928113 278.317262 
L 239.480432 285.589331 
L 240.515312 289.512523 
L 241.550191 292.636611 
L 242.58507 294.919319 
L 243.10251 295.734156 
L 243.61995 296.326505 
L 244.137389 296.693445 
L 244.654829 296.832614 
L 245.172269 296.742219 
L 245.689708 296.421048 
L 246.207148 295.868472 
L 246.724588 295.084452 
L 247.759467 292.824895 
L 248.794346 289.653968 
L 249.829226 285.592775 
L 250.864105 280.671831 
L 252.416424 271.767706 
L 253.968743 261.191778 
L 255.521062 249.156997 
L 257.590821 231.279021 
L 260.695459 201.951344 
L 265.352416 157.523578 
L 267.422175 139.693845 
L 268.974494 127.776955 
L 270.526813 117.437201 
L 272.079132 108.937613 
L 273.114011 104.406343 
L 274.14889 100.849779 
L 275.18377 98.31455 
L 275.701209 97.441803 
L 276.218649 96.837344 
L 276.736089 96.504124 
L 277.253528 96.444423 
L 277.770968 96.659833 
L 278.288408 97.151254 
L 278.805847 97.918887 
L 279.323287 98.96223 
L 280.358166 101.870517 
L 281.393046 105.85801 
L 282.427925 110.895398 
L 283.462804 116.942362 
L 285.015123 127.791295 
L 286.567442 140.579418 
L 288.119761 155.043804 
L 290.18952 176.404027 
L 293.294158 211.188717 
L 297.951115 263.357161 
L 300.020874 284.098679 
L 301.573193 297.87868 
L 303.125512 309.759245 
L 304.160391 316.47546 
L 305.195271 322.137021 
L 306.23015 326.676819 
L 307.265029 330.038538 
L 307.782469 331.263137 
L 308.299909 332.177324 
L 308.817348 332.777376 
L 309.334788 333.060348 
L 309.852228 333.02409 
L 310.369667 332.667248 
L 310.887107 331.989278 
L 311.404547 330.990447 
L 311.921986 329.671836 
L 312.956866 326.083684 
L 313.991745 321.249756 
L 315.026625 315.207864 
L 316.061504 308.008423 
L 317.613823 295.179029 
L 319.166142 280.148611 
L 321.235901 257.233173 
L 323.823099 225.215477 
L 331.584694 126.094289 
L 333.654453 104.002667 
L 335.206772 89.840094 
L 336.759091 78.13088 
L 337.79397 71.83644 
L 338.82885 66.838807 
L 339.863729 63.198908 
L 340.381169 61.903537 
L 340.898608 60.964401 
L 341.416048 60.385286 
L 341.933488 60.169084 
L 342.450927 60.31778 
L 342.968367 60.832446 
L 343.485807 61.713229 
L 344.003246 62.959353 
L 345.038126 66.539889 
L 346.073005 71.549336 
L 347.107884 77.948317 
L 348.142764 85.683076 
L 349.695083 99.638043 
L 351.247402 116.158992 
L 352.799721 134.900082 
L 354.869479 162.642887 
L 357.974117 207.9384 
L 362.631075 276.119759 
L 364.700833 303.349419 
L 366.253152 321.510721 
L 367.805471 337.247757 
L 369.35779 350.176782 
L 370.39267 357.073428 
L 371.427549 362.497143 
L 372.462428 366.382708 
L 372.979868 367.73241 
L 373.497308 368.679989 
L 374.014747 369.221633 
L 374.532187 369.354545 
L 375.049627 369.076949 
L 375.567066 368.388096 
L 376.084506 367.288275 
L 376.601946 365.778812 
L 377.636825 361.541452 
L 378.671704 355.707327 
L 379.706584 348.324098 
L 380.741463 339.455407 
L 382.293782 323.544189 
L 383.846101 304.800342 
L 385.91586 276.095507 
L 388.503058 235.821031 
L 396.264653 110.194568 
L 398.334412 81.924552 
L 399.886731 63.687053 
L 401.43905 48.483812 
L 402.473929 40.221773 
L 403.508809 33.569137 
L 404.543688 28.603253 
L 405.061128 26.772519 
L 405.578567 25.384952 
L 406.096007 24.445455 
L 406.096007 24.445455 
" clip-path="url(#pecb0ce79e8)" style="fill: none; stroke: #1f77b4; stroke-width: 1.5; stroke-linecap: square"/>
   </g>
   <g id="line2d_14">
    <path d="M 81.143892 205.693932 
L 91.699661 205.569062 
L 98.426377 205.729279 
L 109.81005 206.288633 
L 116.122814 206.454311 
L 121.193723 206.365759 
L 126.264632 206.048742 
L 132.577396 205.409603 
L 142.098286 204.440543 
L 146.548267 204.234013 
L 150.480808 204.273504 
L 154.309862 204.53167 
L 158.449379 205.035342 
L 163.93424 205.949328 
L 172.316763 207.348366 
L 176.145816 207.748313 
L 179.560918 207.88504 
L 182.769044 207.794808 
L 186.080658 207.474385 
L 189.599248 206.90361 
L 193.842253 205.97767 
L 204.915462 203.434452 
L 208.227076 202.977606 
L 211.228226 202.789031 
L 214.0224 202.831158 
L 216.816574 203.089478 
L 219.817725 203.595446 
L 223.129338 204.387884 
L 227.475832 205.679066 
L 235.444403 208.081339 
L 238.652529 208.788515 
L 241.446703 209.183167 
L 244.033901 209.330333 
L 246.6211 209.250696 
L 249.208298 208.942159 
L 251.898984 208.392183 
L 254.900134 207.540954 
L 258.6257 206.231747 
L 268.353566 202.683648 
L 271.251228 201.941994 
L 273.838427 201.511041 
L 276.218649 201.337807 
L 278.598872 201.393834 
L 280.979094 201.681702 
L 283.462804 202.218395 
L 286.050003 203.006697 
L 289.154641 204.198896 
L 293.604622 206.178534 
L 299.089483 208.570404 
L 302.090633 209.626354 
L 304.574343 210.272893 
L 306.851078 210.644966 
L 309.024324 210.781567 
L 311.197571 210.694188 
L 313.370818 210.382459 
L 315.647552 209.82595 
L 318.131263 208.977209 
L 320.925437 207.775414 
L 324.651002 205.907304 
L 331.584694 202.395655 
L 334.378868 201.261543 
L 336.759091 200.529548 
L 338.932337 200.088876 
L 341.002096 199.893634 
L 343.071855 199.929084 
L 345.141614 200.19747 
L 347.211372 200.691628 
L 349.384619 201.435378 
L 351.868329 202.529766 
L 354.765991 204.059316 
L 359.733412 206.985855 
L 363.769442 209.253359 
L 366.460128 210.519106 
L 368.736863 211.355655 
L 370.806621 211.889347 
L 372.772892 212.172741 
L 374.739163 212.224631 
L 376.601946 212.055596 
L 378.568216 211.650035 
L 380.637975 210.983947 
L 382.811222 210.046031 
L 385.294932 208.723747 
L 388.39957 206.803208 
L 397.092557 201.270544 
L 399.576267 200.046698 
L 401.749514 199.226082 
L 403.715785 198.720165 
L 405.578567 198.468335 
L 406.302983 198.432812 
L 406.302983 198.432812 
" clip-path="url(#pecb0ce79e8)" style="fill: none; stroke: #ff7f0e; stroke-width: 1.5; stroke-linecap: square"/>
   </g>
   <g id="line2d_15">
    <path d="M 81.143892 205.693932 
L 98.736841 205.706222 
L 122.901274 205.840722 
L 134.491922 205.567379 
L 146.806987 205.327968 
L 154.620326 205.412014 
L 163.779008 205.752494 
L 176.508024 206.214239 
L 183.131252 206.212301 
L 189.857967 205.981868 
L 201.24164 205.312203 
L 208.692772 205.003137 
L 214.488096 204.986109 
L 220.28342 205.195961 
L 227.57932 205.701381 
L 238.756017 206.473725 
L 244.189133 206.603322 
L 249.260042 206.502143 
L 254.744903 206.164923 
L 263.230913 205.381379 
L 270.630301 204.788379 
L 275.649465 204.609895 
L 280.306422 204.66628 
L 285.170355 204.952283 
L 291.172656 205.543023 
L 302.815048 206.732563 
L 307.523749 206.948692 
L 311.870243 206.924437 
L 316.320224 206.672167 
L 321.442876 206.14845 
L 337.069555 204.381554 
L 341.260816 204.24176 
L 345.296845 204.329159 
L 349.539851 204.648448 
L 354.559016 205.2615 
L 368.322911 207.078828 
L 372.410684 207.305641 
L 376.239738 207.295342 
L 380.120535 207.060129 
L 384.415285 206.569953 
L 390.314097 205.648746 
L 398.334412 204.422177 
L 402.525673 204.017678 
L 406.251239 203.878951 
L 406.251239 203.878951 
" clip-path="url(#pecb0ce79e8)" style="fill: none; stroke: #2ca02c; stroke-width: 1.5; stroke-linecap: square"/>
   </g>
   <g id="patch_3">
    <path d="M 64.885938 386.6 
L 64.885938 7.2 
" style="fill: none; stroke: #000000; stroke-width: 0.8; stroke-linejoin: miter; stroke-linecap: square"/>
   </g>
   <g id="patch_4">
    <path d="M 422.560938 386.6 
L 422.560938 7.2 
" style="fill: none; stroke: #000000; stroke-width: 0.8; stroke-linejoin: miter; stroke-linecap: square"/>
   </g>
   <g id="patch_5">
    <path d="M 64.885937 386.6 
L 422.560938 386.6 
" style="fill: none; stroke: #000000; stroke-width: 0.8; stroke-linejoin: miter; stroke-linecap: square"/>
   </g>
   <g id="patch_6">
    <path d="M 64.885937 7.2 
L 422.560938 7.2 
" style="fill: none; stroke: #000000; stroke-width: 0.8; stroke-linejoin: miter; stroke-linecap: square"/>
   </g>
   <g id="legend_1">
    <g id="patch_7">
     <path d="M 71.885938 59.234375 
L 153.5875 59.234375 
Q 155.5875 59.234375 155.5875 57.234375 
L 155.5875 14.2 
Q 155.5875 12.2 153.5875 12.2 
L 71.885938 12.2 
Q 69.885938 12.2 69.885938 14.2 
L 69.885938 57.234375 
Q 69.885938 59.234375 71.885938 59.234375 
z
" style="fill: #ffffff; opacity: 0.8; stroke: #cccccc; stroke-linejoin: miter"/>
    </g>
    <g id="line2d_16">
     <path d="M 73.885938 20.298437 
L 83.885938 20.298437 
L 93.885938 20.298437 
" style="fill: none; stroke: #1f77b4; stroke-width: 1.5; stroke-linecap: square"/>
    </g>
    <g id="text_15">
     <!-- h = 0.05 -->
     <g transform="translate(101.885938 23.798437)scale(0.1 -0.1)">
      <defs>
       <path id="DejaVuSans-68" d="M 3513 2113 
L 3513 0 
L 2938 0 
L 2938 2094 
Q 2938 2591 2744 2837 
Q 2550 3084 2163 3084 
Q 1697 3084 1428 2787 
Q 1159 2491 1159 1978 
L 1159 0 
L 581 0 
L 581 4863 
L 1159 4863 
L 1159 2956 
Q 1366 3272 1645 3428 
Q 1925 3584 2291 3584 
Q 2894 3584 3203 3211 
Q 3513 2838 3513 2113 
z
" transform="scale(0.015625)"/>
       <path id="DejaVuSans-3d" d="M 678 2906 
L 4684 2906 
L 4684 2381 
L 678 2381 
L 678 2906 
z
M 678 1631 
L 4684 1631 
L 4684 1100 
L 678 1100 
L 678 1631 
z
" transform="scale(0.015625)"/>
      </defs>
      <use xlink:href="#DejaVuSans-68"/>
      <use xlink:href="#DejaVuSans-20" x="63.378906"/>
      <use xlink:href="#DejaVuSans-3d" x="95.166016"/>
      <use xlink:href="#DejaVuSans-20" x="178.955078"/>
      <use xlink:href="#DejaVuSans-30" x="210.742188"/>
      <use xlink:href="#DejaVuSans-2e" x="274.365234"/>
      <use xlink:href="#DejaVuSans-30" x="306.152344"/>
      <use xlink:href="#DejaVuSans-35" x="369.775391"/>
     </g>
    </g>
    <g id="line2d_17">
     <path d="M 73.885938 34.976562 
L 83.885938 34.976562 
L 93.885938 34.976562 
" style="fill: none; stroke: #ff7f0e; stroke-width: 1.5; stroke-linecap: square"/>
    </g>
    <g id="text_16">
     <!-- h = 0.01 -->
     <g transform="translate(101.885938 38.476562)scale(0.1 -0.1)">
      <use xlink:href="#DejaVuSans-68"/>
      <use xlink:href="#DejaVuSans-20" x="63.378906"/>
      <use xlink:href="#DejaVuSans-3d" x="95.166016"/>
      <use xlink:href="#DejaVuSans-20" x="178.955078"/>
      <use xlink:href="#DejaVuSans-30" x="210.742188"/>
      <use xlink:href="#DejaVuSans-2e" x="274.365234"/>
      <use xlink:href="#DejaVuSans-30" x="306.152344"/>
      <use xlink:href="#DejaVuSans-31" x="369.775391"/>
     </g>
    </g>
    <g id="line2d_18">
     <path d="M 73.885938 49.654687 
L 83.885938 49.654687 
L 93.885938 49.654687 
" style="fill: none; stroke: #2ca02c; stroke-width: 1.5; stroke-linecap: square"/>
    </g>
    <g id="text_17">
     <!-- h = 0.005 -->
     <g transform="translate(101.885938 53.154687)scale(0.1 -0.1)">
      <use xlink:href="#DejaVuSans-68"/>
      <use xlink:href="#DejaVuSans-20" x="63.378906"/>
      <use xlink:href="#DejaVuSans-3d" x="95.166016"/>
      <use xlink:href="#DejaVuSans-20" x="178.955078"/>
      <use xlink:href="#DejaVuSans-30" x="210.742188"/>
      <use xlink:href="#DejaVuSans-2e" x="274.365234"/>
      <use xlink:href="#DejaVuSans-30" x="306.152344"/>
      <use xlink:href="#DejaVuSans-30" x="369.775391"/>
      <use xlink:href="#DejaVuSans-35" x="433.398438"/>
     </g>
    </g>
   </g>
  </g>
  <g id="axes_2">
   <g id="patch_8">
    <path d="M 491.485937 386.6 
L 849.160938 386.6 
L 849.160938 7.2 
L 491.485937 7.2 
z
" style="fill: #ffffff"/>
   </g>
   <g id="matplotlib.axis_3">
    <g id="xtick_8">
     <g id="line2d_19">
      <g>
       <use xlink:href="#m6f9be94af4" x="507.743892" y="386.6" style="stroke: #000000; stroke-width: 0.8"/>
      </g>
     </g>
     <g id="text_18">
      <!-- 0 -->
      <g transform="translate(504.562642 401.198437)scale(0.1 -0.1)">
       <use xlink:href="#DejaVuSans-30"/>
      </g>
     </g>
    </g>
    <g id="xtick_9">
     <g id="line2d_20">
      <g>
       <use xlink:href="#m6f9be94af4" x="559.487859" y="386.6" style="stroke: #000000; stroke-width: 0.8"/>
      </g>
     </g>
     <g id="text_19">
      <!-- 5 -->
      <g transform="translate(556.306609 401.198437)scale(0.1 -0.1)">
       <use xlink:href="#DejaVuSans-35"/>
      </g>
     </g>
    </g>
    <g id="xtick_10">
     <g id="line2d_21">
      <g>
       <use xlink:href="#m6f9be94af4" x="611.231827" y="386.6" style="stroke: #000000; stroke-width: 0.8"/>
      </g>
     </g>
     <g id="text_20">
      <!-- 10 -->
      <g transform="translate(604.869327 401.198437)scale(0.1 -0.1)">
       <use xlink:href="#DejaVuSans-31"/>
       <use xlink:href="#DejaVuSans-30" x="63.623047"/>
      </g>
     </g>
    </g>
    <g id="xtick_11">
     <g id="line2d_22">
      <g>
       <use xlink:href="#m6f9be94af4" x="662.975794" y="386.6" style="stroke: #000000; stroke-width: 0.8"/>
      </g>
     </g>
     <g id="text_21">
      <!-- 15 -->
      <g transform="translate(656.613294 401.198437)scale(0.1 -0.1)">
       <use xlink:href="#DejaVuSans-31"/>
       <use xlink:href="#DejaVuSans-35" x="63.623047"/>
      </g>
     </g>
    </g>
    <g id="xtick_12">
     <g id="line2d_23">
      <g>
       <use xlink:href="#m6f9be94af4" x="714.719761" y="386.6" style="stroke: #000000; stroke-width: 0.8"/>
      </g>
     </g>
     <g id="text_22">
      <!-- 20 -->
      <g transform="translate(708.357261 401.198437)scale(0.1 -0.1)">
       <use xlink:href="#DejaVuSans-32"/>
       <use xlink:href="#DejaVuSans-30" x="63.623047"/>
      </g>
     </g>
    </g>
    <g id="xtick_13">
     <g id="line2d_24">
      <g>
       <use xlink:href="#m6f9be94af4" x="766.463729" y="386.6" style="stroke: #000000; stroke-width: 0.8"/>
      </g>
     </g>
     <g id="text_23">
      <!-- 25 -->
      <g transform="translate(760.101229 401.198437)scale(0.1 -0.1)">
       <use xlink:href="#DejaVuSans-32"/>
       <use xlink:href="#DejaVuSans-35" x="63.623047"/>
      </g>
     </g>
    </g>
    <g id="xtick_14">
     <g id="line2d_25">
      <g>
       <use xlink:href="#m6f9be94af4" x="818.207696" y="386.6" style="stroke: #000000; stroke-width: 0.8"/>
      </g>
     </g>
     <g id="text_24">
      <!-- 30 -->
      <g transform="translate(811.845196 401.198437)scale(0.1 -0.1)">
       <use xlink:href="#DejaVuSans-33"/>
       <use xlink:href="#DejaVuSans-30" x="63.623047"/>
      </g>
     </g>
    </g>
    <g id="text_25">
     <!-- t -->
     <g transform="translate(668.363281 414.876562)scale(0.1 -0.1)">
      <use xlink:href="#DejaVuSans-74"/>
     </g>
    </g>
   </g>
   <g id="matplotlib.axis_4">
    <g id="ytick_6">
     <g id="line2d_26">
      <g>
       <use xlink:href="#m69ab90b3a3" x="491.485937" y="352.602595" style="stroke: #000000; stroke-width: 0.8"/>
      </g>
     </g>
     <g id="text_26">
      <!-- −0.010 -->
      <g transform="translate(447.478125 356.401814)scale(0.1 -0.1)">
       <use xlink:href="#DejaVuSans-2212"/>
       <use xlink:href="#DejaVuSans-30" x="83.789062"/>
       <use xlink:href="#DejaVuSans-2e" x="147.412109"/>
       <use xlink:href="#DejaVuSans-30" x="179.199219"/>
       <use xlink:href="#DejaVuSans-31" x="242.822266"/>
       <use xlink:href="#DejaVuSans-30" x="306.445312"/>
      </g>
     </g>
    </g>
    <g id="ytick_7">
     <g id="line2d_27">
      <g>
       <use xlink:href="#m69ab90b3a3" x="491.485937" y="279.539509" style="stroke: #000000; stroke-width: 0.8"/>
      </g>
     </g>
     <g id="text_27">
      <!-- −0.005 -->
      <g transform="translate(447.478125 283.338728)scale(0.1 -0.1)">
       <use xlink:href="#DejaVuSans-2212"/>
       <use xlink:href="#DejaVuSans-30" x="83.789062"/>
       <use xlink:href="#DejaVuSans-2e" x="147.412109"/>
       <use xlink:href="#DejaVuSans-30" x="179.199219"/>
       <use xlink:href="#DejaVuSans-30" x="242.822266"/>
       <use xlink:href="#DejaVuSans-35" x="306.445312"/>
      </g>
     </g>
    </g>
    <g id="ytick_8">
     <g id="line2d_28">
      <g>
       <use xlink:href="#m69ab90b3a3" x="491.485937" y="206.476424" style="stroke: #000000; stroke-width: 0.8"/>
      </g>
     </g>
     <g id="text_28">
      <!-- 0.000 -->
      <g transform="translate(455.857812 210.275642)scale(0.1 -0.1)">
       <use xlink:href="#DejaVuSans-30"/>
       <use xlink:href="#DejaVuSans-2e" x="63.623047"/>
       <use xlink:href="#DejaVuSans-30" x="95.410156"/>
       <use xlink:href="#DejaVuSans-30" x="159.033203"/>
       <use xlink:href="#DejaVuSans-30" x="222.65625"/>
      </g>
     </g>
    </g>
    <g id="ytick_9">
     <g id="line2d_29">
      <g>
       <use xlink:href="#m69ab90b3a3" x="491.485937" y="133.413338" style="stroke: #000000; stroke-width: 0.8"/>
      </g>
     </g>
     <g id="text_29">
      <!-- 0.005 -->
      <g transform="translate(455.857812 137.212557)scale(0.1 -0.1)">
       <use xlink:href="#DejaVuSans-30"/>
       <use xlink:href="#DejaVuSans-2e" x="63.623047"/>
       <use xlink:href="#DejaVuSans-30" x="95.410156"/>
       <use xlink:href="#DejaVuSans-30" x="159.033203"/>
       <use xlink:href="#DejaVuSans-35" x="222.65625"/>
      </g>
     </g>
    </g>
    <g id="ytick_10">
     <g id="line2d_30">
      <g>
       <use xlink:href="#m69ab90b3a3" x="491.485937" y="60.350252" style="stroke: #000000; stroke-width: 0.8"/>
      </g>
     </g>
     <g id="text_30">
      <!-- 0.010 -->
      <g transform="translate(455.857812 64.149471)scale(0.1 -0.1)">
       <use xlink:href="#DejaVuSans-30"/>
       <use xlink:href="#DejaVuSans-2e" x="63.623047"/>
       <use xlink:href="#DejaVuSans-30" x="95.410156"/>
       <use xlink:href="#DejaVuSans-31" x="159.033203"/>
       <use xlink:href="#DejaVuSans-30" x="222.65625"/>
      </g>
     </g>
    </g>
    <g id="text_31">
     <!-- Difference between Numerical &amp; Exact Solution (v(t)) -->
     <g transform="translate(441.398437 330.292187)rotate(-90)scale(0.1 -0.1)">
      <defs>
       <path id="DejaVuSans-76" d="M 191 3500 
L 800 3500 
L 1894 563 
L 2988 3500 
L 3597 3500 
L 2284 0 
L 1503 0 
L 191 3500 
z
" transform="scale(0.015625)"/>
      </defs>
      <use xlink:href="#DejaVuSans-44"/>
      <use xlink:href="#DejaVuSans-69" x="77.001953"/>
      <use xlink:href="#DejaVuSans-66" x="104.785156"/>
      <use xlink:href="#DejaVuSans-66" x="139.990234"/>
      <use xlink:href="#DejaVuSans-65" x="175.195312"/>
      <use xlink:href="#DejaVuSans-72" x="236.71875"/>
      <use xlink:href="#DejaVuSans-65" x="275.582031"/>
      <use xlink:href="#DejaVuSans-6e" x="337.105469"/>
      <use xlink:href="#DejaVuSans-63" x="400.484375"/>
      <use xlink:href="#DejaVuSans-65" x="455.464844"/>
      <use xlink:href="#DejaVuSans-20" x="516.988281"/>
      <use xlink:href="#DejaVuSans-62" x="548.775391"/>
      <use xlink:href="#DejaVuSans-65" x="612.251953"/>
      <use xlink:href="#DejaVuSans-74" x="673.775391"/>
      <use xlink:href="#DejaVuSans-77" x="712.984375"/>
      <use xlink:href="#DejaVuSans-65" x="794.771484"/>
      <use xlink:href="#DejaVuSans-65" x="856.294922"/>
      <use xlink:href="#DejaVuSans-6e" x="917.818359"/>
      <use xlink:href="#DejaVuSans-20" x="981.197266"/>
      <use xlink:href="#DejaVuSans-4e" x="1012.984375"/>
      <use xlink:href="#DejaVuSans-75" x="1087.789062"/>
      <use xlink:href="#DejaVuSans-6d" x="1151.167969"/>
      <use xlink:href="#DejaVuSans-65" x="1248.580078"/>
      <use xlink:href="#DejaVuSans-72" x="1310.103516"/>
      <use xlink:href="#DejaVuSans-69" x="1351.216797"/>
      <use xlink:href="#DejaVuSans-63" x="1379"/>
      <use xlink:href="#DejaVuSans-61" x="1433.980469"/>
      <use xlink:href="#DejaVuSans-6c" x="1495.259766"/>
      <use xlink:href="#DejaVuSans-20" x="1523.042969"/>
      <use xlink:href="#DejaVuSans-26" x="1554.830078"/>
      <use xlink:href="#DejaVuSans-20" x="1632.808594"/>
      <use xlink:href="#DejaVuSans-45" x="1664.595703"/>
      <use xlink:href="#DejaVuSans-78" x="1727.779297"/>
      <use xlink:href="#DejaVuSans-61" x="1786.958984"/>
      <use xlink:href="#DejaVuSans-63" x="1848.238281"/>
      <use xlink:href="#DejaVuSans-74" x="1903.21875"/>
      <use xlink:href="#DejaVuSans-20" x="1942.427734"/>
      <use xlink:href="#DejaVuSans-53" x="1974.214844"/>
      <use xlink:href="#DejaVuSans-6f" x="2037.691406"/>
      <use xlink:href="#DejaVuSans-6c" x="2098.873047"/>
      <use xlink:href="#DejaVuSans-75" x="2126.65625"/>
      <use xlink:href="#DejaVuSans-74" x="2190.035156"/>
      <use xlink:href="#DejaVuSans-69" x="2229.244141"/>
      <use xlink:href="#DejaVuSans-6f" x="2257.027344"/>
      <use xlink:href="#DejaVuSans-6e" x="2318.208984"/>
      <use xlink:href="#DejaVuSans-20" x="2381.587891"/>
      <use xlink:href="#DejaVuSans-28" x="2413.375"/>
      <use xlink:href="#DejaVuSans-76" x="2452.388672"/>
      <use xlink:href="#DejaVuSans-28" x="2511.568359"/>
      <use xlink:href="#DejaVuSans-74" x="2550.582031"/>
      <use xlink:href="#DejaVuSans-29" x="2589.791016"/>
      <use xlink:href="#DejaVuSans-29" x="2628.804688"/>
     </g>
    </g>
   </g>
   <g id="line2d_31">
    <path d="M 507.743892 206.476424 
L 509.296211 206.578966 
L 510.84853 206.950483 
L 512.400849 207.574999 
L 513.953168 208.424931 
L 516.022927 209.841299 
L 519.127565 212.327633 
L 522.749643 215.194592 
L 524.819401 216.513378 
L 526.37172 217.234002 
L 527.924039 217.660821 
L 528.958919 217.757533 
L 529.993798 217.689458 
L 531.028677 217.446561 
L 532.063557 217.021185 
L 533.098436 216.408221 
L 534.133315 215.60526 
L 535.685634 214.046222 
L 537.237953 212.074766 
L 538.790272 209.719116 
L 540.860031 206.056343 
L 543.44723 200.840987 
L 550.691385 185.608694 
L 552.243704 182.890872 
L 553.796023 180.584438 
L 555.348342 178.779307 
L 556.383221 177.894591 
L 557.418101 177.289627 
L 558.45298 176.982619 
L 559.487859 176.988732 
L 560.522739 177.319815 
L 561.557618 177.984171 
L 562.592497 178.98635 
L 563.627377 180.326997 
L 564.662256 182.002736 
L 565.697135 184.006107 
L 567.249455 187.599055 
L 568.801774 191.84606 
L 570.354093 196.671126 
L 572.423851 203.837814 
L 575.528489 215.594187 
L 580.185446 233.301082 
L 582.255205 240.286671 
L 583.807524 244.861113 
L 585.359843 248.71353 
L 586.394722 250.819227 
L 587.429602 252.516445 
L 588.464481 253.776408 
L 589.49936 254.574483 
L 590.0168 254.793838 
L 590.53424 254.890545 
L 591.051679 254.862844 
L 591.569119 254.709298 
L 592.086559 254.428793 
L 593.121438 253.484133 
L 594.156318 252.02673 
L 595.191197 250.060001 
L 596.226076 247.592998 
L 597.260956 244.640416 
L 598.813275 239.346984 
L 600.365594 233.099421 
L 601.917913 226.015476 
L 603.987671 215.517564 
L 607.092309 198.336625 
L 611.749266 172.441448 
L 613.819025 162.150031 
L 615.371344 155.343673 
L 616.923663 149.525054 
L 617.958543 146.277347 
L 618.993422 143.586173 
L 620.028301 141.489932 
L 621.063181 140.021414 
L 621.58062 139.531152 
L 622.09806 139.207351 
L 622.6155 139.052342 
L 623.132939 139.068034 
L 623.650379 139.255903 
L 624.167819 139.616985 
L 624.685258 140.151871 
L 625.720138 141.743159 
L 626.755017 144.025403 
L 627.789896 146.986896 
L 628.824776 150.608592 
L 629.859655 154.864189 
L 631.411974 162.361223 
L 632.964293 171.066542 
L 635.034052 184.249499 
L 637.62125 202.56043 
L 644.865406 255.229671 
L 646.935164 267.944943 
L 648.487483 276.111292 
L 650.039802 282.86092 
L 651.074682 286.479622 
L 652.109561 289.337089 
L 653.14444 291.393046 
L 653.66188 292.109977 
L 654.17932 292.614962 
L 654.696759 292.905218 
L 655.214199 292.978497 
L 655.731639 292.833094 
L 656.249078 292.467861 
L 656.766518 291.882205 
L 657.283958 291.0761 
L 658.318837 288.805282 
L 659.353716 285.666596 
L 660.388596 281.680356 
L 661.423475 276.875907 
L 662.975794 268.220976 
L 664.528113 257.977603 
L 666.080432 246.350596 
L 668.150191 229.116718 
L 671.254829 200.91727 
L 675.911786 158.353264 
L 677.981545 141.341121 
L 679.533864 130.007891 
L 681.086183 120.214112 
L 682.121062 114.666533 
L 683.155941 109.982376 
L 684.190821 106.219599 
L 685.2257 103.427386 
L 685.74314 102.408059 
L 686.260579 101.645532 
L 686.778019 101.143231 
L 687.295459 100.903931 
L 687.812898 100.929754 
L 688.330338 101.222153 
L 688.847778 101.781912 
L 689.365217 102.609132 
L 689.882657 103.703233 
L 690.917537 106.686331 
L 691.952416 110.71286 
L 692.987295 115.753587 
L 694.022175 121.768571 
L 695.574494 132.504883 
L 697.126813 145.106017 
L 699.196571 164.356264 
L 701.78377 191.317821 
L 709.545365 275.177456 
L 711.615123 293.93994 
L 713.167442 305.980456 
L 714.719761 315.940435 
L 715.754641 321.294622 
L 716.78952 325.543232 
L 717.8244 328.632193 
L 718.341839 329.727978 
L 718.859279 330.518719 
L 719.376719 331.000922 
L 719.894158 331.171859 
L 720.411598 331.029581 
L 720.929038 330.572924 
L 721.446477 329.80152 
L 721.963917 328.715797 
L 722.998796 325.607115 
L 724.033676 321.266323 
L 725.068555 315.725593 
L 726.103434 309.029617 
L 727.655753 296.947192 
L 729.208072 282.636897 
L 730.760391 266.393897 
L 732.83015 242.330035 
L 735.934788 202.995005 
L 740.591745 143.691431 
L 742.661504 119.98275 
L 744.213823 104.166346 
L 745.766142 90.463467 
L 747.318461 79.214072 
L 748.35334 73.222232 
L 749.38822 68.521287 
L 750.423099 65.169862 
L 750.940539 64.014948 
L 751.457978 63.213388 
L 751.975418 62.768703 
L 752.492858 62.683529 
L 753.010297 62.959599 
L 753.527737 63.597741 
L 754.045177 64.597869 
L 754.562616 65.958979 
L 755.597496 69.755546 
L 756.632375 74.961088 
L 757.667254 81.534748 
L 758.702134 89.421455 
L 760.254453 103.559279 
L 761.806772 120.206339 
L 763.87653 145.696409 
L 766.463729 181.464146 
L 774.225324 293.078088 
L 776.295083 318.187716 
L 777.847402 334.373621 
L 779.399721 347.848175 
L 780.4346 355.155668 
L 781.469479 361.022735 
L 782.504359 365.379247 
L 783.021798 366.973146 
L 783.539238 368.169832 
L 784.056678 368.964801 
L 784.574117 369.354545 
L 785.091557 369.336568 
L 785.608997 368.909392 
L 786.126436 368.07257 
L 786.643876 366.826685 
L 787.161316 365.17336 
L 788.196195 360.656035 
L 789.231075 354.554187 
L 790.265954 346.917676 
L 791.300833 337.812249 
L 792.853152 321.581278 
L 794.405471 302.565531 
L 796.47523 273.58182 
L 799.062428 233.107249 
L 806.306584 115.523523 
L 808.376342 86.643926 
L 809.928661 67.826431 
L 811.48098 51.953001 
L 812.51586 43.20195 
L 813.550739 36.032638 
L 814.585619 30.52804 
L 815.620498 26.754876 
L 816.137938 25.533794 
L 816.655377 24.762838 
L 817.172817 24.445455 
L 817.690257 24.583961 
L 818.207696 25.179533 
L 818.725136 26.232194 
L 819.242576 27.740819 
L 819.760015 29.703129 
L 820.794895 34.973931 
L 821.829774 42.003444 
L 822.864653 50.732489 
L 823.899533 61.084344 
L 825.451852 79.445724 
L 827.004171 100.86152 
L 829.073929 133.37031 
L 831.661128 178.572655 
L 832.696007 197.511616 
L 832.696007 197.511616 
" clip-path="url(#pdb03521b43)" style="fill: none; stroke: #1f77b4; stroke-width: 1.5; stroke-linecap: square"/>
   </g>
   <g id="line2d_32">
    <path d="M 507.743892 206.476424 
L 514.988047 206.58527 
L 530.614726 206.910782 
L 536.306562 206.7314 
L 542.619326 206.296565 
L 555.141366 205.371886 
L 559.694835 205.308497 
L 563.937841 205.47367 
L 568.284334 205.868755 
L 573.562219 206.583783 
L 584.117988 208.069483 
L 588.050529 208.356609 
L 591.569119 208.393244 
L 594.984221 208.206467 
L 598.502811 207.789682 
L 602.53884 207.076195 
L 608.748116 205.711121 
L 614.439953 204.544663 
L 618.06203 204.031466 
L 621.166669 203.809654 
L 624.167819 203.819728 
L 627.065481 204.049397 
L 630.170119 204.525709 
L 633.585221 205.285718 
L 638.035202 206.526199 
L 646.003773 208.779102 
L 649.315387 209.455012 
L 652.213049 209.818555 
L 654.903735 209.929757 
L 657.490934 209.815503 
L 660.078132 209.484005 
L 662.872306 208.898267 
L 665.976944 208.012954 
L 670.012974 206.611323 
L 677.981545 203.790827 
L 681.086183 202.969417 
L 683.776869 202.49067 
L 686.260579 202.278039 
L 688.640802 202.299051 
L 691.021024 202.544998 
L 693.504735 203.033342 
L 696.091933 203.769642 
L 699.093083 204.861041 
L 703.232601 206.62868 
L 709.545365 209.324383 
L 712.546515 210.348951 
L 715.030225 210.973906 
L 717.30696 211.330532 
L 719.480206 211.456721 
L 721.653453 211.363392 
L 723.8267 211.050219 
L 726.103434 210.496875 
L 728.587145 209.656643 
L 731.381319 208.469889 
L 735.210373 206.575265 
L 741.8336 203.268627 
L 744.627775 202.139068 
L 747.007997 201.404423 
L 749.181244 200.956397 
L 751.251002 200.750258 
L 753.320761 200.771648 
L 755.39052 201.023571 
L 757.460279 201.499717 
L 759.633525 202.223886 
L 762.117236 203.296399 
L 765.014898 204.803032 
L 769.775343 207.58023 
L 774.018348 209.962651 
L 776.709034 211.231698 
L 778.985769 212.075767 
L 781.055528 212.619578 
L 783.021798 212.914946 
L 784.988069 212.980511 
L 786.850852 212.825401 
L 788.817123 212.434892 
L 790.886881 211.784274 
L 793.060128 210.861322 
L 795.543839 209.55347 
L 798.648477 207.64544 
L 807.651927 201.938206 
L 810.032149 200.780544 
L 812.205396 199.970779 
L 814.171667 199.475894 
L 816.03445 199.235372 
L 817.897232 199.227852 
L 819.760015 199.456398 
L 821.622798 199.916386 
L 823.589069 200.639365 
L 825.658828 201.638487 
L 828.03905 203.041436 
L 831.0402 205.090618 
L 832.902983 206.452206 
L 832.902983 206.452206 
" clip-path="url(#pdb03521b43)" style="fill: none; stroke: #ff7f0e; stroke-width: 1.5; stroke-linecap: square"/>
   </g>
   <g id="line2d_33">
    <path d="M 507.743892 206.476424 
L 545.67222 206.365611 
L 559.177396 206.18352 
L 567.663406 206.308365 
L 580.858118 206.778357 
L 589.447617 206.956784 
L 596.329564 206.874278 
L 604.039415 206.546219 
L 619.35563 205.83479 
L 625.35793 205.830213 
L 631.411974 206.053614 
L 639.484033 206.599835 
L 649.211899 207.21815 
L 654.800247 207.339546 
L 660.026388 207.228718 
L 665.718224 206.877911 
L 676.636202 205.908558 
L 682.74199 205.517442 
L 687.657667 205.423481 
L 692.418112 205.557335 
L 697.592508 205.932843 
L 705.354103 206.754738 
L 712.805235 207.46594 
L 717.617424 207.698399 
L 722.015661 207.687642 
L 726.465642 207.451511 
L 731.588295 206.946332 
L 747.835901 205.157251 
L 752.027162 205.040325 
L 756.114935 205.150853 
L 760.409685 205.49462 
L 765.635825 206.150583 
L 778.002634 207.79567 
L 782.193895 208.062898 
L 786.022949 208.086376 
L 789.903746 207.884876 
L 794.095007 207.438813 
L 799.528124 206.618787 
L 809.049014 205.159983 
L 813.188531 204.778577 
L 816.914097 204.658081 
L 820.536175 204.764831 
L 824.313484 205.102514 
L 828.659978 205.724493 
L 832.851239 206.467604 
L 832.851239 206.467604 
" clip-path="url(#pdb03521b43)" style="fill: none; stroke: #2ca02c; stroke-width: 1.5; stroke-linecap: square"/>
   </g>
   <g id="patch_9">
    <path d="M 491.485937 386.6 
L 491.485937 7.2 
" style="fill: none; stroke: #000000; stroke-width: 0.8; stroke-linejoin: miter; stroke-linecap: square"/>
   </g>
   <g id="patch_10">
    <path d="M 849.160938 386.6 
L 849.160938 7.2 
" style="fill: none; stroke: #000000; stroke-width: 0.8; stroke-linejoin: miter; stroke-linecap: square"/>
   </g>
   <g id="patch_11">
    <path d="M 491.485937 386.6 
L 849.160938 386.6 
" style="fill: none; stroke: #000000; stroke-width: 0.8; stroke-linejoin: miter; stroke-linecap: square"/>
   </g>
   <g id="patch_12">
    <path d="M 491.485937 7.2 
L 849.160938 7.2 
" style="fill: none; stroke: #000000; stroke-width: 0.8; stroke-linejoin: miter; stroke-linecap: square"/>
   </g>
   <g id="legend_2">
    <g id="patch_13">
     <path d="M 498.485937 59.234375 
L 580.1875 59.234375 
Q 582.1875 59.234375 582.1875 57.234375 
L 582.1875 14.2 
Q 582.1875 12.2 580.1875 12.2 
L 498.485937 12.2 
Q 496.485937 12.2 496.485937 14.2 
L 496.485937 57.234375 
Q 496.485937 59.234375 498.485937 59.234375 
z
" style="fill: #ffffff; opacity: 0.8; stroke: #cccccc; stroke-linejoin: miter"/>
    </g>
    <g id="line2d_34">
     <path d="M 500.485937 20.298437 
L 510.485937 20.298437 
L 520.485937 20.298437 
" style="fill: none; stroke: #1f77b4; stroke-width: 1.5; stroke-linecap: square"/>
    </g>
    <g id="text_32">
     <!-- h = 0.05 -->
     <g transform="translate(528.485937 23.798437)scale(0.1 -0.1)">
      <use xlink:href="#DejaVuSans-68"/>
      <use xlink:href="#DejaVuSans-20" x="63.378906"/>
      <use xlink:href="#DejaVuSans-3d" x="95.166016"/>
      <use xlink:href="#DejaVuSans-20" x="178.955078"/>
      <use xlink:href="#DejaVuSans-30" x="210.742188"/>
      <use xlink:href="#DejaVuSans-2e" x="274.365234"/>
      <use xlink:href="#DejaVuSans-30" x="306.152344"/>
      <use xlink:href="#DejaVuSans-35" x="369.775391"/>
     </g>
    </g>
    <g id="line2d_35">
     <path d="M 500.485937 34.976562 
L 510.485937 34.976562 
L 520.485937 34.976562 
" style="fill: none; stroke: #ff7f0e; stroke-width: 1.5; stroke-linecap: square"/>
    </g>
    <g id="text_33">
     <!-- h = 0.01 -->
     <g transform="translate(528.485937 38.476562)scale(0.1 -0.1)">
      <use xlink:href="#DejaVuSans-68"/>
      <use xlink:href="#DejaVuSans-20" x="63.378906"/>
      <use xlink:href="#DejaVuSans-3d" x="95.166016"/>
      <use xlink:href="#DejaVuSans-20" x="178.955078"/>
      <use xlink:href="#DejaVuSans-30" x="210.742188"/>
      <use xlink:href="#DejaVuSans-2e" x="274.365234"/>
      <use xlink:href="#DejaVuSans-30" x="306.152344"/>
      <use xlink:href="#DejaVuSans-31" x="369.775391"/>
     </g>
    </g>
    <g id="line2d_36">
     <path d="M 500.485937 49.654687 
L 510.485937 49.654687 
L 520.485937 49.654687 
" style="fill: none; stroke: #2ca02c; stroke-width: 1.5; stroke-linecap: square"/>
    </g>
    <g id="text_34">
     <!-- h = 0.005 -->
     <g transform="translate(528.485937 53.154687)scale(0.1 -0.1)">
      <use xlink:href="#DejaVuSans-68"/>
      <use xlink:href="#DejaVuSans-20" x="63.378906"/>
      <use xlink:href="#DejaVuSans-3d" x="95.166016"/>
      <use xlink:href="#DejaVuSans-20" x="178.955078"/>
      <use xlink:href="#DejaVuSans-30" x="210.742188"/>
      <use xlink:href="#DejaVuSans-2e" x="274.365234"/>
      <use xlink:href="#DejaVuSans-30" x="306.152344"/>
      <use xlink:href="#DejaVuSans-30" x="369.775391"/>
      <use xlink:href="#DejaVuSans-35" x="433.398438"/>
     </g>
    </g>
   </g>
  </g>
 </g>
 <defs>
  <clipPath id="pecb0ce79e8">
   <rect x="64.885938" y="7.2" width="357.675" height="379.4"/>
  </clipPath>
  <clipPath id="pdb03521b43">
   <rect x="491.485937" y="7.2" width="357.675" height="379.4"/>
  </clipPath>
 </defs>
</svg>
