<?xml version="1.0" encoding="utf-8" standalone="no"?>
<!DOCTYPE svg PUBLIC "-//W3C//DTD SVG 1.1//EN"
  "http://www.w3.org/Graphics/SVG/1.1/DTD/svg11.dtd">
<svg xmlns:xlink="http://www.w3.org/1999/xlink" width="424.373437pt" height="280.15625pt" viewBox="0 0 424.373437 280.15625" xmlns="http://www.w3.org/2000/svg" version="1.1">
 <metadata>
  <rdf:RDF xmlns:dc="http://purl.org/dc/elements/1.1/" xmlns:cc="http://creativecommons.org/ns#" xmlns:rdf="http://www.w3.org/1999/02/22-rdf-syntax-ns#">
   <cc:Work>
    <dc:type rdf:resource="http://purl.org/dc/dcmitype/StillImage"/>
    <dc:date>2024-09-25T12:35:43.112157</dc:date>
    <dc:format>image/svg+xml</dc:format>
    <dc:creator>
     <cc:Agent>
      <dc:title>Matplotlib v3.5.2, https://matplotlib.org/</dc:title>
     </cc:Agent>
    </dc:creator>
   </cc:Work>
  </rdf:RDF>
 </metadata>
 <defs>
  <style type="text/css">*{stroke-linejoin: round; stroke-linecap: butt}</style>
 </defs>
 <g id="figure_1">
  <g id="patch_1">
   <path d="M 0 280.15625 
L 424.373437 280.15625 
L 424.373437 0 
L 0 0 
z
" style="fill: #ffffff"/>
  </g>
  <g id="axes_1">
   <g id="patch_2">
    <path d="M 58.523438 242.6 
L 417.173437 242.6 
L 417.173437 7.2 
L 58.523438 7.2 
z
" style="fill: #ffffff"/>
   </g>
   <g id="matplotlib.axis_1">
    <g id="xtick_1">
     <g id="line2d_1">
      <defs>
       <path id="m893f638258" d="M 0 0 
L 0 3.5 
" style="stroke: #000000; stroke-width: 0.8"/>
      </defs>
      <g>
       <use xlink:href="#m893f638258" x="74.82571" y="242.6" style="stroke: #000000; stroke-width: 0.8"/>
      </g>
     </g>
     <g id="text_1">
      <!-- 0 -->
      <g transform="translate(71.64446 257.198437)scale(0.1 -0.1)">
       <defs>
        <path id="DejaVuSans-30" d="M 2034 4250 
Q 1547 4250 1301 3770 
Q 1056 3291 1056 2328 
Q 1056 1369 1301 889 
Q 1547 409 2034 409 
Q 2525 409 2770 889 
Q 3016 1369 3016 2328 
Q 3016 3291 2770 3770 
Q 2525 4250 2034 4250 
z
M 2034 4750 
Q 2819 4750 3233 4129 
Q 3647 3509 3647 2328 
Q 3647 1150 3233 529 
Q 2819 -91 2034 -91 
Q 1250 -91 836 529 
Q 422 1150 422 2328 
Q 422 3509 836 4129 
Q 1250 4750 2034 4750 
z
" transform="scale(0.015625)"/>
       </defs>
       <use xlink:href="#DejaVuSans-30"/>
      </g>
     </g>
    </g>
    <g id="xtick_2">
     <g id="line2d_2">
      <g>
       <use xlink:href="#m893f638258" x="126.710728" y="242.6" style="stroke: #000000; stroke-width: 0.8"/>
      </g>
     </g>
     <g id="text_2">
      <!-- 5 -->
      <g transform="translate(123.529478 257.198437)scale(0.1 -0.1)">
       <defs>
        <path id="DejaVuSans-35" d="M 691 4666 
L 3169 4666 
L 3169 4134 
L 1269 4134 
L 1269 2991 
Q 1406 3038 1543 3061 
Q 1681 3084 1819 3084 
Q 2600 3084 3056 2656 
Q 3513 2228 3513 1497 
Q 3513 744 3044 326 
Q 2575 -91 1722 -91 
Q 1428 -91 1123 -41 
Q 819 9 494 109 
L 494 744 
Q 775 591 1075 516 
Q 1375 441 1709 441 
Q 2250 441 2565 725 
Q 2881 1009 2881 1497 
Q 2881 1984 2565 2268 
Q 2250 2553 1709 2553 
Q 1456 2553 1204 2497 
Q 953 2441 691 2322 
L 691 4666 
z
" transform="scale(0.015625)"/>
       </defs>
       <use xlink:href="#DejaVuSans-35"/>
      </g>
     </g>
    </g>
    <g id="xtick_3">
     <g id="line2d_3">
      <g>
       <use xlink:href="#m893f638258" x="178.595747" y="242.6" style="stroke: #000000; stroke-width: 0.8"/>
      </g>
     </g>
     <g id="text_3">
      <!-- 10 -->
      <g transform="translate(172.233247 257.198437)scale(0.1 -0.1)">
       <defs>
        <path id="DejaVuSans-31" d="M 794 531 
L 1825 531 
L 1825 4091 
L 703 3866 
L 703 4441 
L 1819 4666 
L 2450 4666 
L 2450 531 
L 3481 531 
L 3481 0 
L 794 0 
L 794 531 
z
" transform="scale(0.015625)"/>
       </defs>
       <use xlink:href="#DejaVuSans-31"/>
       <use xlink:href="#DejaVuSans-30" x="63.623047"/>
      </g>
     </g>
    </g>
    <g id="xtick_4">
     <g id="line2d_4">
      <g>
       <use xlink:href="#m893f638258" x="230.480765" y="242.6" style="stroke: #000000; stroke-width: 0.8"/>
      </g>
     </g>
     <g id="text_4">
      <!-- 15 -->
      <g transform="translate(224.118265 257.198437)scale(0.1 -0.1)">
       <use xlink:href="#DejaVuSans-31"/>
       <use xlink:href="#DejaVuSans-35" x="63.623047"/>
      </g>
     </g>
    </g>
    <g id="xtick_5">
     <g id="line2d_5">
      <g>
       <use xlink:href="#m893f638258" x="282.365783" y="242.6" style="stroke: #000000; stroke-width: 0.8"/>
      </g>
     </g>
     <g id="text_5">
      <!-- 20 -->
      <g transform="translate(276.003283 257.198437)scale(0.1 -0.1)">
       <defs>
        <path id="DejaVuSans-32" d="M 1228 531 
L 3431 531 
L 3431 0 
L 469 0 
L 469 531 
Q 828 903 1448 1529 
Q 2069 2156 2228 2338 
Q 2531 2678 2651 2914 
Q 2772 3150 2772 3378 
Q 2772 3750 2511 3984 
Q 2250 4219 1831 4219 
Q 1534 4219 1204 4116 
Q 875 4013 500 3803 
L 500 4441 
Q 881 4594 1212 4672 
Q 1544 4750 1819 4750 
Q 2544 4750 2975 4387 
Q 3406 4025 3406 3419 
Q 3406 3131 3298 2873 
Q 3191 2616 2906 2266 
Q 2828 2175 2409 1742 
Q 1991 1309 1228 531 
z
" transform="scale(0.015625)"/>
       </defs>
       <use xlink:href="#DejaVuSans-32"/>
       <use xlink:href="#DejaVuSans-30" x="63.623047"/>
      </g>
     </g>
    </g>
    <g id="xtick_6">
     <g id="line2d_6">
      <g>
       <use xlink:href="#m893f638258" x="334.250801" y="242.6" style="stroke: #000000; stroke-width: 0.8"/>
      </g>
     </g>
     <g id="text_6">
      <!-- 25 -->
      <g transform="translate(327.888301 257.198437)scale(0.1 -0.1)">
       <use xlink:href="#DejaVuSans-32"/>
       <use xlink:href="#DejaVuSans-35" x="63.623047"/>
      </g>
     </g>
    </g>
    <g id="xtick_7">
     <g id="line2d_7">
      <g>
       <use xlink:href="#m893f638258" x="386.13582" y="242.6" style="stroke: #000000; stroke-width: 0.8"/>
      </g>
     </g>
     <g id="text_7">
      <!-- 30 -->
      <g transform="translate(379.77332 257.198437)scale(0.1 -0.1)">
       <defs>
        <path id="DejaVuSans-33" d="M 2597 2516 
Q 3050 2419 3304 2112 
Q 3559 1806 3559 1356 
Q 3559 666 3084 287 
Q 2609 -91 1734 -91 
Q 1441 -91 1130 -33 
Q 819 25 488 141 
L 488 750 
Q 750 597 1062 519 
Q 1375 441 1716 441 
Q 2309 441 2620 675 
Q 2931 909 2931 1356 
Q 2931 1769 2642 2001 
Q 2353 2234 1838 2234 
L 1294 2234 
L 1294 2753 
L 1863 2753 
Q 2328 2753 2575 2939 
Q 2822 3125 2822 3475 
Q 2822 3834 2567 4026 
Q 2313 4219 1838 4219 
Q 1578 4219 1281 4162 
Q 984 4106 628 3988 
L 628 4550 
Q 988 4650 1302 4700 
Q 1616 4750 1894 4750 
Q 2613 4750 3031 4423 
Q 3450 4097 3450 3541 
Q 3450 3153 3228 2886 
Q 3006 2619 2597 2516 
z
" transform="scale(0.015625)"/>
       </defs>
       <use xlink:href="#DejaVuSans-33"/>
       <use xlink:href="#DejaVuSans-30" x="63.623047"/>
      </g>
     </g>
    </g>
    <g id="text_8">
     <!-- t -->
     <g transform="translate(235.888281 270.876562)scale(0.1 -0.1)">
      <defs>
       <path id="DejaVuSans-74" d="M 1172 4494 
L 1172 3500 
L 2356 3500 
L 2356 3053 
L 1172 3053 
L 1172 1153 
Q 1172 725 1289 603 
Q 1406 481 1766 481 
L 2356 481 
L 2356 0 
L 1766 0 
Q 1100 0 847 248 
Q 594 497 594 1153 
L 594 3053 
L 172 3053 
L 172 3500 
L 594 3500 
L 594 4494 
L 1172 4494 
z
" transform="scale(0.015625)"/>
      </defs>
      <use xlink:href="#DejaVuSans-74"/>
     </g>
    </g>
   </g>
   <g id="matplotlib.axis_2">
    <g id="ytick_1">
     <g id="line2d_8">
      <defs>
       <path id="mceab6a3457" d="M 0 0 
L -3.5 0 
" style="stroke: #000000; stroke-width: 0.8"/>
      </defs>
      <g>
       <use xlink:href="#mceab6a3457" x="58.523438" y="231.86088" style="stroke: #000000; stroke-width: 0.8"/>
      </g>
     </g>
     <g id="text_9">
      <!-- −1.00 -->
      <g transform="translate(20.878125 235.660099)scale(0.1 -0.1)">
       <defs>
        <path id="DejaVuSans-2212" d="M 678 2272 
L 4684 2272 
L 4684 1741 
L 678 1741 
L 678 2272 
z
" transform="scale(0.015625)"/>
        <path id="DejaVuSans-2e" d="M 684 794 
L 1344 794 
L 1344 0 
L 684 0 
L 684 794 
z
" transform="scale(0.015625)"/>
       </defs>
       <use xlink:href="#DejaVuSans-2212"/>
       <use xlink:href="#DejaVuSans-31" x="83.789062"/>
       <use xlink:href="#DejaVuSans-2e" x="147.412109"/>
       <use xlink:href="#DejaVuSans-30" x="179.199219"/>
       <use xlink:href="#DejaVuSans-30" x="242.822266"/>
      </g>
     </g>
    </g>
    <g id="ytick_2">
     <g id="line2d_9">
      <g>
       <use xlink:href="#mceab6a3457" x="58.523438" y="205.120965" style="stroke: #000000; stroke-width: 0.8"/>
      </g>
     </g>
     <g id="text_10">
      <!-- −0.75 -->
      <g transform="translate(20.878125 208.920183)scale(0.1 -0.1)">
       <defs>
        <path id="DejaVuSans-37" d="M 525 4666 
L 3525 4666 
L 3525 4397 
L 1831 0 
L 1172 0 
L 2766 4134 
L 525 4134 
L 525 4666 
z
" transform="scale(0.015625)"/>
       </defs>
       <use xlink:href="#DejaVuSans-2212"/>
       <use xlink:href="#DejaVuSans-30" x="83.789062"/>
       <use xlink:href="#DejaVuSans-2e" x="147.412109"/>
       <use xlink:href="#DejaVuSans-37" x="179.199219"/>
       <use xlink:href="#DejaVuSans-35" x="242.822266"/>
      </g>
     </g>
    </g>
    <g id="ytick_3">
     <g id="line2d_10">
      <g>
       <use xlink:href="#mceab6a3457" x="58.523438" y="178.38105" style="stroke: #000000; stroke-width: 0.8"/>
      </g>
     </g>
     <g id="text_11">
      <!-- −0.50 -->
      <g transform="translate(20.878125 182.180268)scale(0.1 -0.1)">
       <use xlink:href="#DejaVuSans-2212"/>
       <use xlink:href="#DejaVuSans-30" x="83.789062"/>
       <use xlink:href="#DejaVuSans-2e" x="147.412109"/>
       <use xlink:href="#DejaVuSans-35" x="179.199219"/>
       <use xlink:href="#DejaVuSans-30" x="242.822266"/>
      </g>
     </g>
    </g>
    <g id="ytick_4">
     <g id="line2d_11">
      <g>
       <use xlink:href="#mceab6a3457" x="58.523438" y="151.641134" style="stroke: #000000; stroke-width: 0.8"/>
      </g>
     </g>
     <g id="text_12">
      <!-- −0.25 -->
      <g transform="translate(20.878125 155.440353)scale(0.1 -0.1)">
       <use xlink:href="#DejaVuSans-2212"/>
       <use xlink:href="#DejaVuSans-30" x="83.789062"/>
       <use xlink:href="#DejaVuSans-2e" x="147.412109"/>
       <use xlink:href="#DejaVuSans-32" x="179.199219"/>
       <use xlink:href="#DejaVuSans-35" x="242.822266"/>
      </g>
     </g>
    </g>
    <g id="ytick_5">
     <g id="line2d_12">
      <g>
       <use xlink:href="#mceab6a3457" x="58.523438" y="124.901219" style="stroke: #000000; stroke-width: 0.8"/>
      </g>
     </g>
     <g id="text_13">
      <!-- 0.00 -->
      <g transform="translate(29.257813 128.700438)scale(0.1 -0.1)">
       <use xlink:href="#DejaVuSans-30"/>
       <use xlink:href="#DejaVuSans-2e" x="63.623047"/>
       <use xlink:href="#DejaVuSans-30" x="95.410156"/>
       <use xlink:href="#DejaVuSans-30" x="159.033203"/>
      </g>
     </g>
    </g>
    <g id="ytick_6">
     <g id="line2d_13">
      <g>
       <use xlink:href="#mceab6a3457" x="58.523438" y="98.161304" style="stroke: #000000; stroke-width: 0.8"/>
      </g>
     </g>
     <g id="text_14">
      <!-- 0.25 -->
      <g transform="translate(29.257813 101.960523)scale(0.1 -0.1)">
       <use xlink:href="#DejaVuSans-30"/>
       <use xlink:href="#DejaVuSans-2e" x="63.623047"/>
       <use xlink:href="#DejaVuSans-32" x="95.410156"/>
       <use xlink:href="#DejaVuSans-35" x="159.033203"/>
      </g>
     </g>
    </g>
    <g id="ytick_7">
     <g id="line2d_14">
      <g>
       <use xlink:href="#mceab6a3457" x="58.523438" y="71.421389" style="stroke: #000000; stroke-width: 0.8"/>
      </g>
     </g>
     <g id="text_15">
      <!-- 0.50 -->
      <g transform="translate(29.257813 75.220607)scale(0.1 -0.1)">
       <use xlink:href="#DejaVuSans-30"/>
       <use xlink:href="#DejaVuSans-2e" x="63.623047"/>
       <use xlink:href="#DejaVuSans-35" x="95.410156"/>
       <use xlink:href="#DejaVuSans-30" x="159.033203"/>
      </g>
     </g>
    </g>
    <g id="ytick_8">
     <g id="line2d_15">
      <g>
       <use xlink:href="#mceab6a3457" x="58.523438" y="44.681473" style="stroke: #000000; stroke-width: 0.8"/>
      </g>
     </g>
     <g id="text_16">
      <!-- 0.75 -->
      <g transform="translate(29.257813 48.480692)scale(0.1 -0.1)">
       <use xlink:href="#DejaVuSans-30"/>
       <use xlink:href="#DejaVuSans-2e" x="63.623047"/>
       <use xlink:href="#DejaVuSans-37" x="95.410156"/>
       <use xlink:href="#DejaVuSans-35" x="159.033203"/>
      </g>
     </g>
    </g>
    <g id="ytick_9">
     <g id="line2d_16">
      <g>
       <use xlink:href="#mceab6a3457" x="58.523438" y="17.941558" style="stroke: #000000; stroke-width: 0.8"/>
      </g>
     </g>
     <g id="text_17">
      <!-- 1.00 -->
      <g transform="translate(29.257813 21.740777)scale(0.1 -0.1)">
       <use xlink:href="#DejaVuSans-31"/>
       <use xlink:href="#DejaVuSans-2e" x="63.623047"/>
       <use xlink:href="#DejaVuSans-30" x="95.410156"/>
       <use xlink:href="#DejaVuSans-30" x="159.033203"/>
      </g>
     </g>
    </g>
    <g id="text_18">
     <!-- x(t) -->
     <g transform="translate(14.798438 133.721094)rotate(-90)scale(0.1 -0.1)">
      <defs>
       <path id="DejaVuSans-78" d="M 3513 3500 
L 2247 1797 
L 3578 0 
L 2900 0 
L 1881 1375 
L 863 0 
L 184 0 
L 1544 1831 
L 300 3500 
L 978 3500 
L 1906 2253 
L 2834 3500 
L 3513 3500 
z
" transform="scale(0.015625)"/>
       <path id="DejaVuSans-28" d="M 1984 4856 
Q 1566 4138 1362 3434 
Q 1159 2731 1159 2009 
Q 1159 1288 1364 580 
Q 1569 -128 1984 -844 
L 1484 -844 
Q 1016 -109 783 600 
Q 550 1309 550 2009 
Q 550 2706 781 3412 
Q 1013 4119 1484 4856 
L 1984 4856 
z
" transform="scale(0.015625)"/>
       <path id="DejaVuSans-29" d="M 513 4856 
L 1013 4856 
Q 1481 4119 1714 3412 
Q 1947 2706 1947 2009 
Q 1947 1309 1714 600 
Q 1481 -109 1013 -844 
L 513 -844 
Q 928 -128 1133 580 
Q 1338 1288 1338 2009 
Q 1338 2731 1133 3434 
Q 928 4138 513 4856 
z
" transform="scale(0.015625)"/>
      </defs>
      <use xlink:href="#DejaVuSans-78"/>
      <use xlink:href="#DejaVuSans-28" x="59.179688"/>
      <use xlink:href="#DejaVuSans-74" x="98.193359"/>
      <use xlink:href="#DejaVuSans-29" x="137.402344"/>
     </g>
    </g>
   </g>
   <g id="line2d_17">
    <path d="M 74.82571 124.901219 
L 78.976512 83.232498 
L 81.051912 64.484634 
L 82.608463 51.968079 
L 84.165014 41.090752 
L 85.721564 32.097145 
L 86.759264 27.249634 
L 87.796965 23.378624 
L 88.834665 20.522828 
L 89.353515 19.484965 
L 89.872366 18.710807 
L 90.391216 18.202288 
L 90.910066 17.960684 
L 91.428916 17.986597 
L 91.947766 18.279964 
L 92.466616 18.840051 
L 92.985467 19.665458 
L 93.504317 20.754119 
L 94.542017 23.709665 
L 95.579718 27.677135 
L 96.617418 32.616858 
L 97.655118 38.479441 
L 99.211669 48.873056 
L 100.768219 60.975573 
L 102.84362 79.295622 
L 105.437871 104.661728 
L 112.182923 172.37944 
L 114.258324 190.482995 
L 115.814875 202.379342 
L 117.371425 212.534302 
L 118.409126 218.222347 
L 119.446826 222.977199 
L 120.484526 226.751306 
L 121.522227 229.506923 
L 122.041077 230.49378 
L 122.559927 231.216493 
L 123.078777 231.673252 
L 123.597627 231.862915 
L 124.116478 231.785006 
L 124.635328 231.439721 
L 125.154178 230.827923 
L 125.673028 229.951142 
L 126.710728 227.412059 
L 127.748429 223.847859 
L 128.786129 219.294182 
L 129.82383 213.796561 
L 131.38038 203.902936 
L 132.936931 192.233578 
L 135.012331 174.370526 
L 137.606582 149.357321 
L 145.389335 71.782316 
L 147.464736 54.387727 
L 149.021286 43.154097 
L 150.577837 33.757808 
L 151.615537 28.62051 
L 152.653238 24.446002 
L 153.690938 21.276034 
L 154.728638 19.142307 
L 155.247488 18.471115 
L 155.766339 18.066163 
L 156.285189 17.928465 
L 156.804039 18.058366 
L 157.322889 18.455542 
L 157.841739 19.118998 
L 158.36059 20.047076 
L 159.39829 22.687157 
L 160.43599 26.349387 
L 161.473691 30.997147 
L 162.511391 36.583962 
L 164.067942 46.600276 
L 165.624492 58.376573 
L 167.699893 76.353612 
L 170.294144 101.457191 
L 177.558046 174.238342 
L 179.633447 192.119666 
L 181.189998 203.805896 
L 182.746548 213.718675 
L 183.784249 219.230114 
L 184.821949 223.798281 
L 185.859649 227.377492 
L 186.89735 229.931951 
L 187.4162 230.816508 
L 187.93505 231.436111 
L 188.4539 231.789213 
L 188.97275 231.874927 
L 189.491601 231.693041 
L 190.010451 231.244007 
L 190.529301 230.52895 
L 191.048151 229.549658 
L 192.085851 226.808818 
L 193.123552 223.048894 
L 194.161252 218.307482 
L 195.198953 212.631992 
L 196.755503 202.493923 
L 198.312054 190.611789 
L 200.387454 172.522449 
L 202.981705 147.330858 
L 210.245608 74.641456 
L 212.321009 56.873803 
L 213.877559 45.294307 
L 215.43411 35.504047 
L 216.47181 30.081709 
L 217.50951 25.60755 
L 218.547211 22.126313 
L 219.584911 19.672814 
L 220.103761 18.839544 
L 220.622611 18.271592 
L 221.141462 17.97038 
L 221.660312 17.936661 
L 222.179162 18.170522 
L 222.698012 18.671376 
L 223.216862 19.437971 
L 223.735713 20.46839 
L 224.773413 23.309739 
L 225.811113 27.167012 
L 226.848814 32.001638 
L 227.886514 37.765276 
L 229.443065 48.024154 
L 230.999615 60.011012 
L 233.075016 78.210955 
L 235.669267 103.488187 
L 242.414319 171.317316 
L 244.48972 189.5498 
L 246.04627 201.567619 
L 247.602821 211.862296 
L 248.640521 217.652086 
L 249.678222 222.514386 
L 250.715922 226.40057 
L 251.753622 229.271772 
L 252.272473 230.317376 
L 252.791323 231.099277 
L 253.310173 231.615518 
L 253.829023 231.864807 
L 254.347873 231.846521 
L 254.866723 231.560704 
L 255.385574 231.008072 
L 255.904424 230.190006 
L 256.423274 229.108552 
L 257.460974 226.166952 
L 258.498675 222.212686 
L 259.536375 217.285293 
L 260.574075 211.434044 
L 262.130626 201.055313 
L 263.687177 188.964852 
L 265.762577 170.656014 
L 268.356828 145.295521 
L 275.101881 77.548164 
L 277.177281 59.423994 
L 278.733832 47.509396 
L 280.290382 37.334245 
L 281.328083 31.631884 
L 282.365783 26.862199 
L 283.403484 23.072889 
L 284.441184 20.301851 
L 284.960034 19.30725 
L 285.478884 18.576797 
L 285.997734 18.112321 
L 286.516585 17.914982 
L 287.035435 17.985277 
L 287.554285 18.323028 
L 288.073135 18.927392 
L 288.591985 19.796857 
L 289.629686 22.321734 
L 290.667386 25.872414 
L 291.705086 30.413393 
L 292.742787 35.899264 
L 294.299337 45.777297 
L 295.855888 57.43381 
L 297.931289 75.284497 
L 300.52554 100.290553 
L 308.308292 177.900616 
L 310.383693 195.317161 
L 311.940244 206.569868 
L 313.496794 215.986996 
L 314.534494 221.138938 
L 315.572195 225.328519 
L 316.609895 228.513839 
L 317.647596 230.663044 
L 318.166446 231.341974 
L 318.685296 231.754637 
L 319.204146 231.9 
L 319.722996 231.777699 
L 320.241846 231.38804 
L 320.760697 230.731997 
L 321.279547 229.81121 
L 322.317247 227.185275 
L 323.354948 223.536492 
L 324.392648 218.901344 
L 325.430348 213.326181 
L 326.986899 203.325292 
L 328.543449 191.561652 
L 330.61885 173.596702 
L 333.213101 148.499903 
L 340.477004 75.687479 
L 342.552404 57.785094 
L 344.108955 46.080335 
L 345.665505 36.147145 
L 346.703206 30.621277 
L 347.740906 26.038191 
L 348.778606 22.443721 
L 349.816307 19.873815 
L 350.335157 18.981513 
L 350.854007 18.354174 
L 351.372857 17.993369 
L 351.891708 17.9 
L 352.410558 18.074301 
L 352.929408 18.515836 
L 353.448258 19.223502 
L 353.967108 20.195528 
L 355.004809 22.922283 
L 356.042509 26.668835 
L 357.080209 31.397722 
L 358.11791 37.06166 
L 359.67446 47.184473 
L 361.231011 59.054139 
L 363.306412 77.131666 
L 365.900662 102.316846 
L 373.164565 175.038509 
L 375.239966 192.827444 
L 376.796516 204.425604 
L 378.353067 214.236383 
L 379.390767 219.673205 
L 380.428468 224.162323 
L 381.466168 227.658845 
L 382.503868 230.127801 
L 383.022719 230.968817 
L 383.541569 231.544499 
L 384.060419 231.853408 
L 384.579269 231.894769 
L 385.098119 231.668479 
L 385.616969 231.175104 
L 386.13582 230.415878 
L 386.65467 229.392699 
L 387.69237 226.565372 
L 388.730071 222.721396 
L 389.767771 217.899206 
L 390.805471 212.147021 
L 392.362022 201.903228 
L 393.918572 189.928647 
L 395.993973 171.740239 
L 398.588224 146.469048 
L 400.663625 125.206527 
L 400.663625 125.206527 
" clip-path="url(#p7bbd694fa7)" style="fill: none; stroke: #1f77b4; stroke-width: 1.5; stroke-linecap: square"/>
   </g>
   <g id="line2d_18">
    <path d="M 74.82571 124.901219 
L 78.976512 83.248506 
L 81.155682 63.626614 
L 82.919773 49.677695 
L 84.372554 39.802936 
L 85.721564 32.120982 
L 86.863034 26.83943 
L 87.900735 23.065256 
L 88.730895 20.777079 
L 89.457285 19.320906 
L 90.079906 18.484165 
L 90.598756 18.079363 
L 91.117606 17.941569 
L 91.636456 18.071127 
L 92.155306 18.467714 
L 92.777927 19.294653 
L 93.400547 20.501675 
L 94.126937 22.384377 
L 94.957097 25.150257 
L 95.891028 29.023545 
L 97.032498 34.807874 
L 98.277738 42.357355 
L 99.730519 52.65704 
L 101.39084 66.146142 
L 103.36247 84.083406 
L 106.060491 110.872015 
L 112.079153 171.277323 
L 114.154554 189.501473 
L 115.814875 202.258077 
L 117.267655 211.80896 
L 118.512896 218.648042 
L 119.654366 223.734747 
L 120.588296 227.010279 
L 121.418457 229.228642 
L 122.144847 230.622645 
L 122.767467 231.405536 
L 123.286317 231.765215 
L 123.805167 231.857781 
L 124.324018 231.683002 
L 124.842868 231.241315 
L 125.465488 230.360574 
L 126.191878 228.853629 
L 127.022039 226.50847 
L 127.955969 223.09417 
L 128.993669 218.369688 
L 130.13514 212.096159 
L 131.48415 203.3298 
L 133.040701 191.580608 
L 134.804791 176.470154 
L 136.983962 155.80269 
L 140.615913 118.816319 
L 144.247865 82.567791 
L 146.427035 63.021412 
L 148.191126 49.153293 
L 149.643907 39.356545 
L 150.992917 31.754886 
L 152.134387 26.54616 
L 153.172088 22.841292 
L 154.002248 20.610205 
L 154.728638 19.204874 
L 155.351259 18.412173 
L 155.870109 18.044277 
L 156.388959 17.943475 
L 156.907809 18.110022 
L 157.426659 18.5435 
L 158.049279 19.41445 
L 158.77567 20.910099 
L 159.60583 23.242583 
L 160.53976 26.643022 
L 161.577461 31.352727 
L 162.718931 37.61093 
L 164.067942 46.360676 
L 165.624492 58.093064 
L 167.388583 73.187986 
L 169.567754 93.842046 
L 173.199705 130.821628 
L 176.831656 167.083314 
L 179.010827 186.646596 
L 180.774917 200.532766 
L 182.227698 210.346926 
L 183.576708 217.966495 
L 184.718179 223.191457 
L 185.755879 226.911771 
L 186.586039 229.155577 
L 187.31243 230.572233 
L 187.93505 231.374741 
L 188.4539 231.750854 
L 188.97275 231.859891 
L 189.491601 231.701577 
L 190.010451 231.27631 
L 190.633071 230.415153 
L 191.359461 228.930803 
L 192.189621 226.610998 
L 193.123552 223.224428 
L 194.161252 218.529512 
L 195.302723 212.28665 
L 196.651733 203.553538 
L 198.208284 191.837982 
L 199.972374 176.758628 
L 202.151545 156.118021 
L 205.679726 120.213651 
L 209.415448 82.870557 
L 211.594618 63.29042 
L 213.358709 49.38623 
L 214.811489 39.554682 
L 216.1605 31.917221 
L 217.30197 26.676035 
L 218.339671 22.940285 
L 219.169831 20.683764 
L 219.896221 19.255788 
L 220.518841 18.443474 
L 221.037692 18.059144 
L 221.556542 17.941873 
L 222.075392 18.091953 
L 222.594242 18.509009 
L 223.216862 19.360371 
L 223.943253 20.833419 
L 224.773413 23.140538 
L 225.707343 26.51323 
L 226.745044 31.193347 
L 227.886514 37.420854 
L 229.235524 46.137311 
L 230.792075 57.836006 
L 232.556166 72.899758 
L 234.735336 93.526862 
L 238.263518 129.42419 
L 241.999239 166.780349 
L 244.17841 186.377294 
L 245.9425 200.29947 
L 247.395281 210.148384 
L 248.744291 217.803719 
L 249.885762 223.061117 
L 250.923462 226.812294 
L 251.753622 229.081523 
L 252.480013 230.520817 
L 253.102633 231.342934 
L 253.621483 231.73548 
L 254.140333 231.860986 
L 254.659183 231.71914 
L 255.178034 231.310296 
L 255.800654 230.468731 
L 256.423274 229.247224 
L 257.149664 227.347869 
L 257.979825 224.563384 
L 258.913755 220.66985 
L 260.055225 214.86199 
L 261.300466 207.288677 
L 262.753246 196.964052 
L 264.413567 183.450818 
L 266.385198 165.491757 
L 269.083218 138.686685 
L 274.998111 79.268696 
L 277.073511 60.959295 
L 278.733832 48.115392 
L 280.186612 38.47607 
L 281.431853 31.553597 
L 282.573323 26.385375 
L 283.611024 22.71903 
L 284.441184 20.519659 
L 285.167574 19.142563 
L 285.790194 18.374311 
L 286.309045 18.026896 
L 286.827895 17.94662 
L 287.346745 18.133684 
L 287.865595 18.587621 
L 288.488215 19.482971 
L 289.214606 21.006769 
L 290.044766 23.370836 
L 290.978696 26.805814 
L 292.016397 31.552339 
L 293.157867 37.848727 
L 294.506877 46.639861 
L 296.063428 58.414108 
L 297.827519 73.547711 
L 300.006689 94.235138 
L 303.638641 131.23157 
L 307.270592 167.460396 
L 309.449763 186.981517 
L 311.213853 200.822671 
L 312.666634 210.593418 
L 313.911874 217.640062 
L 315.053345 222.929844 
L 316.091045 226.71185 
L 316.921205 229.00648 
L 317.647596 230.468399 
L 318.270216 231.310118 
L 318.789066 231.719091 
L 319.307916 231.861066 
L 319.826766 231.735688 
L 320.345616 231.343271 
L 320.968237 230.521307 
L 321.590857 229.319211 
L 322.317247 227.44217 
L 323.147407 224.682615 
L 324.081338 220.816208 
L 325.222808 215.039872 
L 326.468049 207.498484 
L 327.920829 197.207262 
L 329.58115 183.72634 
L 331.55278 165.796453 
L 334.250801 139.013387 
L 340.269463 78.600382 
L 342.344864 60.367479 
L 344.005185 47.601943 
L 345.457965 38.042028 
L 346.703206 31.194442 
L 347.844676 26.099433 
L 348.778606 22.816816 
L 349.608767 20.591985 
L 350.335157 19.192227 
L 350.957777 18.404353 
L 351.476627 18.0405 
L 351.995478 17.943753 
L 352.514328 18.114352 
L 353.033178 18.551872 
L 353.655798 19.427645 
L 354.382188 20.928859 
L 355.212349 23.267588 
L 356.146279 26.674861 
L 357.183979 31.391853 
L 358.32545 37.657619 
L 359.67446 46.415567 
L 361.231011 58.15626 
L 362.995101 73.258871 
L 365.174272 93.919588 
L 368.806224 130.902617 
L 372.438175 167.157929 
L 374.617346 186.712946 
L 376.381436 200.59027 
L 377.834217 210.395886 
L 379.183227 218.006661 
L 380.324698 223.223646 
L 381.362398 226.936366 
L 382.192558 229.173918 
L 382.918948 230.585003 
L 383.541569 231.382686 
L 384.060419 231.754756 
L 384.579269 231.859738 
L 385.098119 231.697372 
L 385.616969 231.268061 
L 386.23959 230.402081 
L 386.96598 228.912165 
L 387.79614 226.586112 
L 388.730071 223.192705 
L 389.767771 218.490496 
L 390.909241 212.240064 
L 392.258252 203.498739 
L 393.814802 191.774864 
L 395.578893 176.687804 
L 397.758064 156.040516 
L 400.871165 124.409513 
L 400.871165 124.409513 
" clip-path="url(#p7bbd694fa7)" style="fill: none; stroke: #ff7f0e; stroke-width: 1.5; stroke-linecap: square"/>
   </g>
   <g id="line2d_19">
    <path d="M 74.82571 124.901219 
L 78.976512 83.249001 
L 81.155682 63.627286 
L 82.919773 49.678443 
L 84.424439 39.480764 
L 85.721564 32.121691 
L 86.863034 26.840061 
L 87.84885 23.230606 
L 88.730895 20.777504 
L 89.50917 19.236923 
L 90.183676 18.382079 
L 90.754411 18.010052 
L 91.221376 17.946092 
L 91.688341 18.098682 
L 92.207191 18.521813 
L 92.777927 19.294307 
L 93.452432 20.618777 
L 94.230707 22.693856 
L 95.112752 25.73954 
L 96.098568 29.989659 
L 97.240038 35.977258 
L 98.537164 44.08155 
L 99.989944 54.648874 
L 101.70215 68.850595 
L 103.77755 88.066176 
L 106.734996 117.785122 
L 111.664073 167.381507 
L 113.791359 186.474664 
L 115.55545 200.383645 
L 117.060115 210.541359 
L 118.357241 217.862244 
L 119.498711 223.107905 
L 120.484526 226.684864 
L 121.366572 229.108017 
L 122.144847 230.621667 
L 122.767467 231.404913 
L 123.338202 231.786213 
L 123.805167 231.857774 
L 124.272133 231.712782 
L 124.790983 231.298072 
L 125.361718 230.53479 
L 126.036223 229.2211 
L 126.814498 227.15826 
L 127.696544 224.126107 
L 128.682359 219.890565 
L 129.82383 213.91896 
L 131.06907 206.180113 
L 132.52185 195.68271 
L 134.182171 182.002935 
L 136.205687 163.396 
L 139.007478 135.383479 
L 144.455405 80.620042 
L 146.58269 61.727268 
L 148.294896 48.408597 
L 149.747677 38.724541 
L 151.044802 31.498031 
L 152.186272 26.341179 
L 153.172088 22.844397 
L 154.054133 20.495091 
L 154.780523 19.125855 
L 155.403144 18.364397 
L 155.973879 18.003177 
L 156.440844 17.948076 
L 156.907809 18.109521 
L 157.426659 18.542465 
L 157.997394 19.325692 
L 158.6719 20.662722 
L 159.450175 22.752059 
L 160.33222 25.813502 
L 161.318036 30.080597 
L 162.459506 36.086818 
L 163.756631 44.210653 
L 165.209412 54.797459 
L 166.921618 69.018383 
L 168.997018 88.25109 
L 171.954464 117.981597 
L 176.883541 167.562143 
L 179.010827 186.635567 
L 180.774917 200.523029 
L 182.279583 210.659184 
L 183.576708 217.959482 
L 184.718179 223.185759 
L 185.703994 226.745212 
L 186.586039 229.152236 
L 187.364315 230.651384 
L 187.986935 231.422905 
L 188.55767 231.793399 
L 189.024635 231.856101 
L 189.491601 231.702254 
L 190.010451 231.277729 
L 190.581186 230.503712 
L 191.255691 229.177459 
L 192.033966 227.100355 
L 192.916012 224.052433 
L 193.901827 219.799903 
L 195.043297 213.809658 
L 196.340423 205.70259 
L 197.793203 195.132497 
L 199.505409 180.928045 
L 201.58081 161.710026 
L 204.538256 131.98943 
L 209.467333 82.395276 
L 211.594618 63.304914 
L 213.358709 49.398982 
L 214.863374 39.244325 
L 216.1605 31.92636 
L 217.30197 26.683449 
L 218.287786 23.108973 
L 219.169831 20.688109 
L 219.948106 19.176517 
L 220.570726 18.394935 
L 221.141462 18.015169 
L 221.608427 17.944865 
L 222.075392 18.091114 
L 222.594242 18.507218 
L 223.164977 19.272024 
L 223.839483 20.587497 
L 224.617758 22.652363 
L 225.499803 25.686755 
L 226.485619 29.92471 
L 227.627089 35.898963 
L 228.872329 43.640484 
L 230.32511 54.140674 
L 231.98543 67.82313 
L 234.008946 86.432511 
L 236.862622 114.979142 
L 242.206779 168.720532 
L 244.334065 187.665473 
L 246.04627 201.038722 
L 247.550936 211.094462 
L 248.848061 218.318037 
L 249.989532 223.472127 
L 250.975347 226.966418 
L 251.857392 229.31343 
L 252.583783 230.680743 
L 253.206403 231.440536 
L 253.777138 231.800222 
L 254.244103 231.854065 
L 254.711068 231.691363 
L 255.229919 231.257026 
L 255.800654 230.472277 
L 256.475159 229.133464 
L 257.253434 227.042103 
L 258.13548 223.978424 
L 259.121295 219.708919 
L 260.262765 213.700055 
L 261.559891 205.573448 
L 263.012671 194.983878 
L 264.724877 180.76023 
L 266.800278 161.525094 
L 269.757724 131.792951 
L 274.6868 82.21466 
L 276.814086 63.14404 
L 278.578177 49.259635 
L 280.082842 39.126541 
L 281.379968 31.829167 
L 282.521438 26.605642 
L 283.507254 23.048675 
L 284.389299 20.643941 
L 285.167574 19.146851 
L 285.790194 18.376994 
L 286.36093 18.008035 
L 286.827895 17.94659 
L 287.29486 18.101694 
L 287.81371 18.527611 
L 288.384445 19.303152 
L 289.05895 20.631189 
L 289.837226 22.710317 
L 290.719271 25.760477 
L 291.705086 30.015418 
L 292.846557 36.008308 
L 294.143682 44.118152 
L 295.596463 54.691014 
L 297.308668 68.898195 
L 299.384069 88.11865 
L 302.341515 117.840896 
L 307.270592 167.432815 
L 309.397878 186.520381 
L 311.161968 200.423262 
L 312.666634 210.574861 
L 313.963759 217.889906 
L 315.10523 223.130067 
L 316.091045 226.702059 
L 316.97309 229.120634 
L 317.751366 230.630169 
L 318.373986 231.410086 
L 318.944721 231.788318 
L 319.411686 231.857364 
L 319.878651 231.709859 
L 320.397502 231.292362 
L 320.968237 230.526032 
L 321.642742 229.208774 
L 322.421017 227.141884 
L 323.303063 224.105252 
L 324.288878 219.864884 
L 325.430348 213.887984 
L 326.727474 205.794922 
L 328.180254 195.238796 
L 329.89246 181.048117 
L 331.967861 161.84239 
L 334.925307 132.130116 
L 339.906268 82.034188 
L 342.033554 62.983376 
L 343.797645 49.120544 
L 345.30231 39.009048 
L 346.599436 31.732289 
L 347.740906 26.528168 
L 348.726721 22.988721 
L 349.608767 20.600126 
L 350.335157 19.197953 
L 350.957777 18.407976 
L 351.528512 18.020472 
L 351.995478 17.943825 
L 352.462443 18.083731 
L 352.981293 18.492807 
L 353.552028 19.249924 
L 354.226533 20.556399 
L 355.004809 22.611047 
L 355.886854 25.634143 
L 356.872669 29.859927 
L 358.01414 35.820822 
L 359.25938 43.548855 
L 360.712161 54.034987 
L 362.372481 67.703923 
L 364.395997 86.300971 
L 367.197788 114.306455 
L 372.645715 169.079478 
L 374.773001 187.983931 
L 376.485206 201.314805 
L 377.937987 211.010915 
L 379.235112 218.249302 
L 380.376583 223.417323 
L 381.362398 226.924184 
L 382.244443 229.28277 
L 382.970833 230.659784 
L 383.593454 231.427975 
L 384.164189 231.795401 
L 384.631154 231.855588 
L 385.098119 231.699227 
L 385.616969 231.271917 
L 386.187705 230.494852 
L 386.86221 229.165033 
L 387.640485 227.08388 
L 388.52253 224.031483 
L 389.508346 219.774131 
L 390.649816 213.778597 
L 391.946942 205.665976 
L 393.399722 195.090347 
L 395.111928 180.880437 
L 397.187328 161.657547 
L 400.144775 131.933654 
L 400.81928 124.986321 
L 400.81928 124.986321 
" clip-path="url(#p7bbd694fa7)" style="fill: none; stroke: #2ca02c; stroke-width: 1.5; stroke-linecap: square"/>
   </g>
   <g id="line2d_20">
    <path d="M 74.82571 124.901219 
L 78.976512 83.249165 
L 81.051912 64.507252 
L 82.608463 51.993368 
L 84.165014 41.116838 
L 85.721564 32.121925 
L 86.759264 27.272298 
L 87.796965 23.398146 
L 88.834665 20.53818 
L 89.353515 19.49785 
L 89.872366 18.720974 
L 90.391216 18.209494 
L 90.910066 17.964687 
L 91.428916 17.987165 
L 91.947766 18.276874 
L 92.466616 18.833087 
L 92.985467 19.654416 
L 93.504317 20.738807 
L 94.542017 23.685283 
L 95.579718 27.643075 
L 96.617418 32.572638 
L 97.655118 38.424718 
L 99.211669 48.802271 
L 100.768219 60.888842 
L 102.84362 79.188812 
L 105.437871 104.533677 
L 112.182923 172.233056 
L 114.258324 190.345332 
L 115.814875 202.253176 
L 117.371425 212.423861 
L 118.409126 218.124668 
L 119.446826 222.894017 
L 120.484526 226.684254 
L 121.522227 229.457509 
L 122.041077 230.453703 
L 122.559927 231.186072 
L 123.078777 231.652783 
L 123.597627 231.852672 
L 124.116478 231.785237 
L 124.635328 231.450648 
L 125.154178 230.849741 
L 125.673028 229.984017 
L 126.710728 227.467434 
L 127.748429 223.926044 
L 128.786129 219.395229 
L 129.82383 213.920262 
L 131.38038 204.059637 
L 132.936931 192.421285 
L 135.012331 174.594911 
L 137.606582 149.617221 
L 145.389335 72.051023 
L 147.464736 54.630155 
L 149.021286 43.368962 
L 150.577837 33.938807 
L 151.615537 28.775706 
L 152.653238 24.57306 
L 153.690938 21.372859 
L 154.728638 19.20708 
L 155.247488 18.519271 
L 155.766339 18.097362 
L 156.285189 17.942406 
L 156.804039 18.054792 
L 157.322889 18.434238 
L 157.841739 19.079797 
L 158.36059 19.989853 
L 159.39829 22.593708 
L 160.43599 26.219786 
L 161.473691 30.831855 
L 162.511391 36.383835 
L 164.067942 46.350355 
L 165.624492 58.080957 
L 167.699893 76.005575 
L 170.294144 101.060989 
L 177.558046 173.839103 
L 179.633447 191.758564 
L 181.189998 203.484314 
L 182.746548 213.445257 
L 183.784249 218.993179 
L 184.821949 223.600965 
L 185.859649 227.222576 
L 186.89735 229.821826 
L 187.4162 230.729542 
L 187.93505 231.372743 
L 188.4539 231.749821 
L 188.97275 231.859832 
L 189.491601 231.702503 
L 190.010451 231.278227 
L 190.529301 230.588063 
L 191.048151 229.633737 
L 192.085851 226.942794 
L 193.123552 223.232286 
L 194.161252 218.539287 
L 195.198953 212.910687 
L 196.755503 202.838978 
L 198.312054 191.016955 
L 200.387454 172.995359 
L 202.981705 147.863991 
L 210.245608 75.165472 
L 212.321009 57.344322 
L 213.877559 45.710865 
L 215.43411 35.855853 
L 216.47181 30.384964 
L 217.50951 25.858451 
L 218.547211 22.32154 
L 219.584911 19.809572 
L 220.103761 18.946192 
L 220.622611 18.347645 
L 221.141462 18.015426 
L 221.660312 17.950366 
L 222.179162 18.152627 
L 222.698012 18.621704 
L 223.216862 19.356424 
L 223.735713 20.354952 
L 224.773413 23.132792 
L 225.811113 26.927468 
L 226.848814 31.701066 
L 227.886514 37.405889 
L 229.443065 47.582075 
L 230.999615 59.494683 
L 233.075016 77.611982 
L 235.669267 102.817527 
L 242.933169 175.431315 
L 245.00857 193.152893 
L 246.565121 204.693235 
L 248.121671 214.44162 
L 249.159371 219.835088 
L 250.197072 224.280008 
L 251.234772 227.731969 
L 252.272473 230.156478 
L 252.791323 230.97546 
L 253.310173 231.529312 
L 253.829023 231.816649 
L 254.347873 231.836753 
L 254.866723 231.589574 
L 255.385574 231.07573 
L 255.904424 230.296504 
L 256.423274 229.253846 
L 257.460974 226.389305 
L 258.498675 222.510728 
L 259.536375 217.65687 
L 260.574075 211.876228 
L 262.130626 201.596283 
L 263.687177 189.593933 
L 265.762577 171.382211 
L 268.356828 146.10427 
L 275.101881 78.334688 
L 277.177281 60.13288 
L 278.733832 48.13997 
L 280.290382 37.870952 
L 281.328083 32.0983 
L 282.365783 27.252905 
L 283.403484 23.383179 
L 284.441184 20.527787 
L 284.960034 19.489787 
L 285.478884 18.715261 
L 285.997734 18.206144 
L 286.516585 17.96371 
L 287.035435 17.988563 
L 287.554285 18.280642 
L 288.073135 18.839218 
L 288.591985 19.662893 
L 289.110836 20.749609 
L 290.148536 23.700648 
L 291.186236 27.662851 
L 292.223937 32.596626 
L 293.261637 38.452679 
L 294.818188 48.835656 
L 296.374738 60.926901 
L 298.450139 79.231759 
L 301.04439 104.580309 
L 307.789442 172.275646 
L 309.864843 190.382895 
L 311.421393 202.285973 
L 312.977944 212.451156 
L 314.015644 218.147946 
L 315.053345 222.913045 
L 316.091045 226.698842 
L 317.128745 229.467511 
L 317.647596 230.461372 
L 318.166446 231.191388 
L 318.685296 231.655734 
L 319.204146 231.853249 
L 319.722996 231.78344 
L 320.241846 231.446481 
L 320.760697 230.843214 
L 321.279547 229.975148 
L 322.317247 227.453951 
L 323.354948 223.90808 
L 324.392648 219.372966 
L 325.430348 213.893922 
L 326.986899 204.027686 
L 328.543449 192.38444 
L 330.61885 174.552845 
L 333.213101 149.571006 
L 340.995854 72.009733 
L 343.071254 54.594353 
L 344.627805 43.338226 
L 346.184356 33.913828 
L 347.222056 28.754885 
L 348.259756 24.556605 
L 349.297457 21.360935 
L 350.335157 19.199805 
L 350.854007 18.514351 
L 351.372857 18.094809 
L 351.891708 17.942227 
L 352.410558 18.056988 
L 352.929408 18.438802 
L 353.448258 19.086718 
L 353.967108 19.999115 
L 355.004809 22.607574 
L 356.042509 26.238118 
L 357.080209 30.854471 
L 358.11791 36.410507 
L 359.67446 46.3826 
L 361.231011 58.118052 
L 363.306412 76.047825 
L 365.900662 101.107295 
L 373.164565 173.881334 
L 375.239966 191.795633 
L 376.796516 203.516529 
L 378.353067 213.471895 
L 379.390767 219.015757 
L 380.428468 223.619258 
L 381.466168 227.236402 
L 382.503868 229.831046 
L 383.022719 230.736422 
L 383.541569 231.377265 
L 384.060419 231.751974 
L 384.579269 231.859612 
L 385.098119 231.699909 
L 385.616969 231.273265 
L 386.13582 230.580747 
L 386.65467 229.624084 
L 387.69237 226.928547 
L 388.730071 223.213586 
L 389.767771 218.516321 
L 390.805471 212.883685 
L 392.362022 202.80644 
L 393.918572 190.979611 
L 395.993973 172.952929 
L 398.588224 147.817598 
L 400.663625 126.604644 
L 400.663625 126.604644 
" clip-path="url(#p7bbd694fa7)" style="fill: none; stroke-dasharray: 5.55,2.4; stroke-dashoffset: 0; stroke: #000000; stroke-width: 1.5"/>
   </g>
   <g id="patch_3">
    <path d="M 58.523438 242.6 
L 58.523438 7.2 
" style="fill: none; stroke: #000000; stroke-width: 0.8; stroke-linejoin: miter; stroke-linecap: square"/>
   </g>
   <g id="patch_4">
    <path d="M 417.173437 242.6 
L 417.173437 7.2 
" style="fill: none; stroke: #000000; stroke-width: 0.8; stroke-linejoin: miter; stroke-linecap: square"/>
   </g>
   <g id="patch_5">
    <path d="M 58.523438 242.6 
L 417.173437 242.6 
" style="fill: none; stroke: #000000; stroke-width: 0.8; stroke-linejoin: miter; stroke-linecap: square"/>
   </g>
   <g id="patch_6">
    <path d="M 58.523438 7.2 
L 417.173437 7.2 
" style="fill: none; stroke: #000000; stroke-width: 0.8; stroke-linejoin: miter; stroke-linecap: square"/>
   </g>
   <g id="legend_1">
    <g id="patch_7">
     <path d="M 328.471875 155.75625 
L 410.173437 155.75625 
Q 412.173437 155.75625 412.173437 153.75625 
L 412.173437 96.04375 
Q 412.173437 94.04375 410.173437 94.04375 
L 328.471875 94.04375 
Q 326.471875 94.04375 326.471875 96.04375 
L 326.471875 153.75625 
Q 326.471875 155.75625 328.471875 155.75625 
z
" style="fill: #ffffff; opacity: 0.8; stroke: #cccccc; stroke-linejoin: miter"/>
    </g>
    <g id="line2d_21">
     <path d="M 330.471875 102.142187 
L 340.471875 102.142187 
L 350.471875 102.142187 
" style="fill: none; stroke: #1f77b4; stroke-width: 1.5; stroke-linecap: square"/>
    </g>
    <g id="text_19">
     <!-- h = 0.05 -->
     <g transform="translate(358.471875 105.642187)scale(0.1 -0.1)">
      <defs>
       <path id="DejaVuSans-68" d="M 3513 2113 
L 3513 0 
L 2938 0 
L 2938 2094 
Q 2938 2591 2744 2837 
Q 2550 3084 2163 3084 
Q 1697 3084 1428 2787 
Q 1159 2491 1159 1978 
L 1159 0 
L 581 0 
L 581 4863 
L 1159 4863 
L 1159 2956 
Q 1366 3272 1645 3428 
Q 1925 3584 2291 3584 
Q 2894 3584 3203 3211 
Q 3513 2838 3513 2113 
z
" transform="scale(0.015625)"/>
       <path id="DejaVuSans-20" transform="scale(0.015625)"/>
       <path id="DejaVuSans-3d" d="M 678 2906 
L 4684 2906 
L 4684 2381 
L 678 2381 
L 678 2906 
z
M 678 1631 
L 4684 1631 
L 4684 1100 
L 678 1100 
L 678 1631 
z
" transform="scale(0.015625)"/>
      </defs>
      <use xlink:href="#DejaVuSans-68"/>
      <use xlink:href="#DejaVuSans-20" x="63.378906"/>
      <use xlink:href="#DejaVuSans-3d" x="95.166016"/>
      <use xlink:href="#DejaVuSans-20" x="178.955078"/>
      <use xlink:href="#DejaVuSans-30" x="210.742188"/>
      <use xlink:href="#DejaVuSans-2e" x="274.365234"/>
      <use xlink:href="#DejaVuSans-30" x="306.152344"/>
      <use xlink:href="#DejaVuSans-35" x="369.775391"/>
     </g>
    </g>
    <g id="line2d_22">
     <path d="M 330.471875 116.820312 
L 340.471875 116.820312 
L 350.471875 116.820312 
" style="fill: none; stroke: #ff7f0e; stroke-width: 1.5; stroke-linecap: square"/>
    </g>
    <g id="text_20">
     <!-- h = 0.01 -->
     <g transform="translate(358.471875 120.320312)scale(0.1 -0.1)">
      <use xlink:href="#DejaVuSans-68"/>
      <use xlink:href="#DejaVuSans-20" x="63.378906"/>
      <use xlink:href="#DejaVuSans-3d" x="95.166016"/>
      <use xlink:href="#DejaVuSans-20" x="178.955078"/>
      <use xlink:href="#DejaVuSans-30" x="210.742188"/>
      <use xlink:href="#DejaVuSans-2e" x="274.365234"/>
      <use xlink:href="#DejaVuSans-30" x="306.152344"/>
      <use xlink:href="#DejaVuSans-31" x="369.775391"/>
     </g>
    </g>
    <g id="line2d_23">
     <path d="M 330.471875 131.498437 
L 340.471875 131.498437 
L 350.471875 131.498437 
" style="fill: none; stroke: #2ca02c; stroke-width: 1.5; stroke-linecap: square"/>
    </g>
    <g id="text_21">
     <!-- h = 0.005 -->
     <g transform="translate(358.471875 134.998437)scale(0.1 -0.1)">
      <use xlink:href="#DejaVuSans-68"/>
      <use xlink:href="#DejaVuSans-20" x="63.378906"/>
      <use xlink:href="#DejaVuSans-3d" x="95.166016"/>
      <use xlink:href="#DejaVuSans-20" x="178.955078"/>
      <use xlink:href="#DejaVuSans-30" x="210.742188"/>
      <use xlink:href="#DejaVuSans-2e" x="274.365234"/>
      <use xlink:href="#DejaVuSans-30" x="306.152344"/>
      <use xlink:href="#DejaVuSans-30" x="369.775391"/>
      <use xlink:href="#DejaVuSans-35" x="433.398438"/>
     </g>
    </g>
    <g id="line2d_24">
     <path d="M 330.471875 146.176562 
L 340.471875 146.176562 
L 350.471875 146.176562 
" style="fill: none; stroke-dasharray: 5.55,2.4; stroke-dashoffset: 0; stroke: #000000; stroke-width: 1.5"/>
    </g>
    <g id="text_22">
     <!-- a -->
     <g transform="translate(358.471875 149.676562)scale(0.1 -0.1)">
      <defs>
       <path id="DejaVuSans-61" d="M 2194 1759 
Q 1497 1759 1228 1600 
Q 959 1441 959 1056 
Q 959 750 1161 570 
Q 1363 391 1709 391 
Q 2188 391 2477 730 
Q 2766 1069 2766 1631 
L 2766 1759 
L 2194 1759 
z
M 3341 1997 
L 3341 0 
L 2766 0 
L 2766 531 
Q 2569 213 2275 61 
Q 1981 -91 1556 -91 
Q 1019 -91 701 211 
Q 384 513 384 1019 
Q 384 1609 779 1909 
Q 1175 2209 1959 2209 
L 2766 2209 
L 2766 2266 
Q 2766 2663 2505 2880 
Q 2244 3097 1772 3097 
Q 1472 3097 1187 3025 
Q 903 2953 641 2809 
L 641 3341 
Q 956 3463 1253 3523 
Q 1550 3584 1831 3584 
Q 2591 3584 2966 3190 
Q 3341 2797 3341 1997 
z
" transform="scale(0.015625)"/>
      </defs>
      <use xlink:href="#DejaVuSans-61"/>
     </g>
    </g>
   </g>
  </g>
 </g>
 <defs>
  <clipPath id="p7bbd694fa7">
   <rect x="58.523438" y="7.2" width="358.65" height="235.4"/>
  </clipPath>
 </defs>
</svg>
