<?xml version="1.0" encoding="utf-8" standalone="no"?>
<!DOCTYPE svg PUBLIC "-//W3C//DTD SVG 1.1//EN"
  "http://www.w3.org/Graphics/SVG/1.1/DTD/svg11.dtd">
<svg xmlns:xlink="http://www.w3.org/1999/xlink" width="856.373437pt" height="424.15625pt" viewBox="0 0 856.373437 424.15625" xmlns="http://www.w3.org/2000/svg" version="1.1">
 <metadata>
  <rdf:RDF xmlns:dc="http://purl.org/dc/elements/1.1/" xmlns:cc="http://creativecommons.org/ns#" xmlns:rdf="http://www.w3.org/1999/02/22-rdf-syntax-ns#">
   <cc:Work>
    <dc:type rdf:resource="http://purl.org/dc/dcmitype/StillImage"/>
    <dc:date>2024-09-25T12:41:37.308257</dc:date>
    <dc:format>image/svg+xml</dc:format>
    <dc:creator>
     <cc:Agent>
      <dc:title>Matplotlib v3.5.2, https://matplotlib.org/</dc:title>
     </cc:Agent>
    </dc:creator>
   </cc:Work>
  </rdf:RDF>
 </metadata>
 <defs>
  <style type="text/css">*{stroke-linejoin: round; stroke-linecap: butt}</style>
 </defs>
 <g id="figure_1">
  <g id="patch_1">
   <path d="M 0 424.15625 
L 856.373437 424.15625 
L 856.373437 0 
L 0 0 
z
" style="fill: #ffffff"/>
  </g>
  <g id="axes_1">
   <g id="patch_2">
    <path d="M 58.523438 386.6 
L 422.573437 386.6 
L 422.573437 7.2 
L 58.523438 7.2 
z
" style="fill: #ffffff"/>
   </g>
   <g id="matplotlib.axis_1">
    <g id="xtick_1">
     <g id="line2d_1">
      <defs>
       <path id="m84596a7ba3" d="M 0 0 
L 0 3.5 
" style="stroke: #000000; stroke-width: 0.8"/>
      </defs>
      <g>
       <use xlink:href="#m84596a7ba3" x="75.071165" y="386.6" style="stroke: #000000; stroke-width: 0.8"/>
      </g>
     </g>
     <g id="text_1">
      <!-- 0 -->
      <g transform="translate(71.889915 401.198438)scale(0.1 -0.1)">
       <defs>
        <path id="DejaVuSans-30" d="M 2034 4250 
Q 1547 4250 1301 3770 
Q 1056 3291 1056 2328 
Q 1056 1369 1301 889 
Q 1547 409 2034 409 
Q 2525 409 2770 889 
Q 3016 1369 3016 2328 
Q 3016 3291 2770 3770 
Q 2525 4250 2034 4250 
z
M 2034 4750 
Q 2819 4750 3233 4129 
Q 3647 3509 3647 2328 
Q 3647 1150 3233 529 
Q 2819 -91 2034 -91 
Q 1250 -91 836 529 
Q 422 1150 422 2328 
Q 422 3509 836 4129 
Q 1250 4750 2034 4750 
z
" transform="scale(0.015625)"/>
       </defs>
       <use xlink:href="#DejaVuSans-30"/>
      </g>
     </g>
    </g>
    <g id="xtick_2">
     <g id="line2d_2">
      <g>
       <use xlink:href="#m84596a7ba3" x="127.737388" y="386.6" style="stroke: #000000; stroke-width: 0.8"/>
      </g>
     </g>
     <g id="text_2">
      <!-- 5 -->
      <g transform="translate(124.556138 401.198438)scale(0.1 -0.1)">
       <defs>
        <path id="DejaVuSans-35" d="M 691 4666 
L 3169 4666 
L 3169 4134 
L 1269 4134 
L 1269 2991 
Q 1406 3038 1543 3061 
Q 1681 3084 1819 3084 
Q 2600 3084 3056 2656 
Q 3513 2228 3513 1497 
Q 3513 744 3044 326 
Q 2575 -91 1722 -91 
Q 1428 -91 1123 -41 
Q 819 9 494 109 
L 494 744 
Q 775 591 1075 516 
Q 1375 441 1709 441 
Q 2250 441 2565 725 
Q 2881 1009 2881 1497 
Q 2881 1984 2565 2268 
Q 2250 2553 1709 2553 
Q 1456 2553 1204 2497 
Q 953 2441 691 2322 
L 691 4666 
z
" transform="scale(0.015625)"/>
       </defs>
       <use xlink:href="#DejaVuSans-35"/>
      </g>
     </g>
    </g>
    <g id="xtick_3">
     <g id="line2d_3">
      <g>
       <use xlink:href="#m84596a7ba3" x="180.403611" y="386.6" style="stroke: #000000; stroke-width: 0.8"/>
      </g>
     </g>
     <g id="text_3">
      <!-- 10 -->
      <g transform="translate(174.041111 401.198438)scale(0.1 -0.1)">
       <defs>
        <path id="DejaVuSans-31" d="M 794 531 
L 1825 531 
L 1825 4091 
L 703 3866 
L 703 4441 
L 1819 4666 
L 2450 4666 
L 2450 531 
L 3481 531 
L 3481 0 
L 794 0 
L 794 531 
z
" transform="scale(0.015625)"/>
       </defs>
       <use xlink:href="#DejaVuSans-31"/>
       <use xlink:href="#DejaVuSans-30" x="63.623047"/>
      </g>
     </g>
    </g>
    <g id="xtick_4">
     <g id="line2d_4">
      <g>
       <use xlink:href="#m84596a7ba3" x="233.069834" y="386.6" style="stroke: #000000; stroke-width: 0.8"/>
      </g>
     </g>
     <g id="text_4">
      <!-- 15 -->
      <g transform="translate(226.707334 401.198438)scale(0.1 -0.1)">
       <use xlink:href="#DejaVuSans-31"/>
       <use xlink:href="#DejaVuSans-35" x="63.623047"/>
      </g>
     </g>
    </g>
    <g id="xtick_5">
     <g id="line2d_5">
      <g>
       <use xlink:href="#m84596a7ba3" x="285.736057" y="386.6" style="stroke: #000000; stroke-width: 0.8"/>
      </g>
     </g>
     <g id="text_5">
      <!-- 20 -->
      <g transform="translate(279.373557 401.198438)scale(0.1 -0.1)">
       <defs>
        <path id="DejaVuSans-32" d="M 1228 531 
L 3431 531 
L 3431 0 
L 469 0 
L 469 531 
Q 828 903 1448 1529 
Q 2069 2156 2228 2338 
Q 2531 2678 2651 2914 
Q 2772 3150 2772 3378 
Q 2772 3750 2511 3984 
Q 2250 4219 1831 4219 
Q 1534 4219 1204 4116 
Q 875 4013 500 3803 
L 500 4441 
Q 881 4594 1212 4672 
Q 1544 4750 1819 4750 
Q 2544 4750 2975 4387 
Q 3406 4025 3406 3419 
Q 3406 3131 3298 2873 
Q 3191 2616 2906 2266 
Q 2828 2175 2409 1742 
Q 1991 1309 1228 531 
z
" transform="scale(0.015625)"/>
       </defs>
       <use xlink:href="#DejaVuSans-32"/>
       <use xlink:href="#DejaVuSans-30" x="63.623047"/>
      </g>
     </g>
    </g>
    <g id="xtick_6">
     <g id="line2d_6">
      <g>
       <use xlink:href="#m84596a7ba3" x="338.40228" y="386.6" style="stroke: #000000; stroke-width: 0.8"/>
      </g>
     </g>
     <g id="text_6">
      <!-- 25 -->
      <g transform="translate(332.03978 401.198438)scale(0.1 -0.1)">
       <use xlink:href="#DejaVuSans-32"/>
       <use xlink:href="#DejaVuSans-35" x="63.623047"/>
      </g>
     </g>
    </g>
    <g id="xtick_7">
     <g id="line2d_7">
      <g>
       <use xlink:href="#m84596a7ba3" x="391.068503" y="386.6" style="stroke: #000000; stroke-width: 0.8"/>
      </g>
     </g>
     <g id="text_7">
      <!-- 30 -->
      <g transform="translate(384.706003 401.198438)scale(0.1 -0.1)">
       <defs>
        <path id="DejaVuSans-33" d="M 2597 2516 
Q 3050 2419 3304 2112 
Q 3559 1806 3559 1356 
Q 3559 666 3084 287 
Q 2609 -91 1734 -91 
Q 1441 -91 1130 -33 
Q 819 25 488 141 
L 488 750 
Q 750 597 1062 519 
Q 1375 441 1716 441 
Q 2309 441 2620 675 
Q 2931 909 2931 1356 
Q 2931 1769 2642 2001 
Q 2353 2234 1838 2234 
L 1294 2234 
L 1294 2753 
L 1863 2753 
Q 2328 2753 2575 2939 
Q 2822 3125 2822 3475 
Q 2822 3834 2567 4026 
Q 2313 4219 1838 4219 
Q 1578 4219 1281 4162 
Q 984 4106 628 3988 
L 628 4550 
Q 988 4650 1302 4700 
Q 1616 4750 1894 4750 
Q 2613 4750 3031 4423 
Q 3450 4097 3450 3541 
Q 3450 3153 3228 2886 
Q 3006 2619 2597 2516 
z
" transform="scale(0.015625)"/>
       </defs>
       <use xlink:href="#DejaVuSans-33"/>
       <use xlink:href="#DejaVuSans-30" x="63.623047"/>
      </g>
     </g>
    </g>
    <g id="text_8">
     <!-- t -->
     <g transform="translate(238.588281 414.876562)scale(0.1 -0.1)">
      <defs>
       <path id="DejaVuSans-74" d="M 1172 4494 
L 1172 3500 
L 2356 3500 
L 2356 3053 
L 1172 3053 
L 1172 1153 
Q 1172 725 1289 603 
Q 1406 481 1766 481 
L 2356 481 
L 2356 0 
L 1766 0 
Q 1100 0 847 248 
Q 594 497 594 1153 
L 594 3053 
L 172 3053 
L 172 3500 
L 594 3500 
L 594 4494 
L 1172 4494 
z
" transform="scale(0.015625)"/>
      </defs>
      <use xlink:href="#DejaVuSans-74"/>
     </g>
    </g>
   </g>
   <g id="matplotlib.axis_2">
    <g id="ytick_1">
     <g id="line2d_8">
      <defs>
       <path id="m0cc8b22a54" d="M 0 0 
L -3.5 0 
" style="stroke: #000000; stroke-width: 0.8"/>
      </defs>
      <g>
       <use xlink:href="#m0cc8b22a54" x="58.523438" y="369.291495" style="stroke: #000000; stroke-width: 0.8"/>
      </g>
     </g>
     <g id="text_9">
      <!-- −1.00 -->
      <g transform="translate(20.878125 373.090713)scale(0.1 -0.1)">
       <defs>
        <path id="DejaVuSans-2212" d="M 678 2272 
L 4684 2272 
L 4684 1741 
L 678 1741 
L 678 2272 
z
" transform="scale(0.015625)"/>
        <path id="DejaVuSans-2e" d="M 684 794 
L 1344 794 
L 1344 0 
L 684 0 
L 684 794 
z
" transform="scale(0.015625)"/>
       </defs>
       <use xlink:href="#DejaVuSans-2212"/>
       <use xlink:href="#DejaVuSans-31" x="83.789062"/>
       <use xlink:href="#DejaVuSans-2e" x="147.412109"/>
       <use xlink:href="#DejaVuSans-30" x="179.199219"/>
       <use xlink:href="#DejaVuSans-30" x="242.822266"/>
      </g>
     </g>
    </g>
    <g id="ytick_2">
     <g id="line2d_9">
      <g>
       <use xlink:href="#m0cc8b22a54" x="58.523438" y="326.194112" style="stroke: #000000; stroke-width: 0.8"/>
      </g>
     </g>
     <g id="text_10">
      <!-- −0.75 -->
      <g transform="translate(20.878125 329.993331)scale(0.1 -0.1)">
       <defs>
        <path id="DejaVuSans-37" d="M 525 4666 
L 3525 4666 
L 3525 4397 
L 1831 0 
L 1172 0 
L 2766 4134 
L 525 4134 
L 525 4666 
z
" transform="scale(0.015625)"/>
       </defs>
       <use xlink:href="#DejaVuSans-2212"/>
       <use xlink:href="#DejaVuSans-30" x="83.789062"/>
       <use xlink:href="#DejaVuSans-2e" x="147.412109"/>
       <use xlink:href="#DejaVuSans-37" x="179.199219"/>
       <use xlink:href="#DejaVuSans-35" x="242.822266"/>
      </g>
     </g>
    </g>
    <g id="ytick_3">
     <g id="line2d_10">
      <g>
       <use xlink:href="#m0cc8b22a54" x="58.523438" y="283.09673" style="stroke: #000000; stroke-width: 0.8"/>
      </g>
     </g>
     <g id="text_11">
      <!-- −0.50 -->
      <g transform="translate(20.878125 286.895948)scale(0.1 -0.1)">
       <use xlink:href="#DejaVuSans-2212"/>
       <use xlink:href="#DejaVuSans-30" x="83.789062"/>
       <use xlink:href="#DejaVuSans-2e" x="147.412109"/>
       <use xlink:href="#DejaVuSans-35" x="179.199219"/>
       <use xlink:href="#DejaVuSans-30" x="242.822266"/>
      </g>
     </g>
    </g>
    <g id="ytick_4">
     <g id="line2d_11">
      <g>
       <use xlink:href="#m0cc8b22a54" x="58.523438" y="239.999347" style="stroke: #000000; stroke-width: 0.8"/>
      </g>
     </g>
     <g id="text_12">
      <!-- −0.25 -->
      <g transform="translate(20.878125 243.798566)scale(0.1 -0.1)">
       <use xlink:href="#DejaVuSans-2212"/>
       <use xlink:href="#DejaVuSans-30" x="83.789062"/>
       <use xlink:href="#DejaVuSans-2e" x="147.412109"/>
       <use xlink:href="#DejaVuSans-32" x="179.199219"/>
       <use xlink:href="#DejaVuSans-35" x="242.822266"/>
      </g>
     </g>
    </g>
    <g id="ytick_5">
     <g id="line2d_12">
      <g>
       <use xlink:href="#m0cc8b22a54" x="58.523438" y="196.901965" style="stroke: #000000; stroke-width: 0.8"/>
      </g>
     </g>
     <g id="text_13">
      <!-- 0.00 -->
      <g transform="translate(29.257813 200.701184)scale(0.1 -0.1)">
       <use xlink:href="#DejaVuSans-30"/>
       <use xlink:href="#DejaVuSans-2e" x="63.623047"/>
       <use xlink:href="#DejaVuSans-30" x="95.410156"/>
       <use xlink:href="#DejaVuSans-30" x="159.033203"/>
      </g>
     </g>
    </g>
    <g id="ytick_6">
     <g id="line2d_13">
      <g>
       <use xlink:href="#m0cc8b22a54" x="58.523438" y="153.804582" style="stroke: #000000; stroke-width: 0.8"/>
      </g>
     </g>
     <g id="text_14">
      <!-- 0.25 -->
      <g transform="translate(29.257813 157.603801)scale(0.1 -0.1)">
       <use xlink:href="#DejaVuSans-30"/>
       <use xlink:href="#DejaVuSans-2e" x="63.623047"/>
       <use xlink:href="#DejaVuSans-32" x="95.410156"/>
       <use xlink:href="#DejaVuSans-35" x="159.033203"/>
      </g>
     </g>
    </g>
    <g id="ytick_7">
     <g id="line2d_14">
      <g>
       <use xlink:href="#m0cc8b22a54" x="58.523438" y="110.7072" style="stroke: #000000; stroke-width: 0.8"/>
      </g>
     </g>
     <g id="text_15">
      <!-- 0.50 -->
      <g transform="translate(29.257813 114.506419)scale(0.1 -0.1)">
       <use xlink:href="#DejaVuSans-30"/>
       <use xlink:href="#DejaVuSans-2e" x="63.623047"/>
       <use xlink:href="#DejaVuSans-35" x="95.410156"/>
       <use xlink:href="#DejaVuSans-30" x="159.033203"/>
      </g>
     </g>
    </g>
    <g id="ytick_8">
     <g id="line2d_15">
      <g>
       <use xlink:href="#m0cc8b22a54" x="58.523438" y="67.609817" style="stroke: #000000; stroke-width: 0.8"/>
      </g>
     </g>
     <g id="text_16">
      <!-- 0.75 -->
      <g transform="translate(29.257813 71.409036)scale(0.1 -0.1)">
       <use xlink:href="#DejaVuSans-30"/>
       <use xlink:href="#DejaVuSans-2e" x="63.623047"/>
       <use xlink:href="#DejaVuSans-37" x="95.410156"/>
       <use xlink:href="#DejaVuSans-35" x="159.033203"/>
      </g>
     </g>
    </g>
    <g id="ytick_9">
     <g id="line2d_16">
      <g>
       <use xlink:href="#m0cc8b22a54" x="58.523438" y="24.512435" style="stroke: #000000; stroke-width: 0.8"/>
      </g>
     </g>
     <g id="text_17">
      <!-- 1.00 -->
      <g transform="translate(29.257813 28.311654)scale(0.1 -0.1)">
       <use xlink:href="#DejaVuSans-31"/>
       <use xlink:href="#DejaVuSans-2e" x="63.623047"/>
       <use xlink:href="#DejaVuSans-30" x="95.410156"/>
       <use xlink:href="#DejaVuSans-30" x="159.033203"/>
      </g>
     </g>
    </g>
    <g id="text_18">
     <!-- x(t) -->
     <g transform="translate(14.798438 205.721094)rotate(-90)scale(0.1 -0.1)">
      <defs>
       <path id="DejaVuSans-78" d="M 3513 3500 
L 2247 1797 
L 3578 0 
L 2900 0 
L 1881 1375 
L 863 0 
L 184 0 
L 1544 1831 
L 300 3500 
L 978 3500 
L 1906 2253 
L 2834 3500 
L 3513 3500 
z
" transform="scale(0.015625)"/>
       <path id="DejaVuSans-28" d="M 1984 4856 
Q 1566 4138 1362 3434 
Q 1159 2731 1159 2009 
Q 1159 1288 1364 580 
Q 1569 -128 1984 -844 
L 1484 -844 
Q 1016 -109 783 600 
Q 550 1309 550 2009 
Q 550 2706 781 3412 
Q 1013 4119 1484 4856 
L 1984 4856 
z
" transform="scale(0.015625)"/>
       <path id="DejaVuSans-29" d="M 513 4856 
L 1013 4856 
Q 1481 4119 1714 3412 
Q 1947 2706 1947 2009 
Q 1947 1309 1714 600 
Q 1481 -109 1013 -844 
L 513 -844 
Q 928 -128 1133 580 
Q 1338 1288 1338 2009 
Q 1338 2731 1133 3434 
Q 928 4138 513 4856 
z
" transform="scale(0.015625)"/>
      </defs>
      <use xlink:href="#DejaVuSans-78"/>
      <use xlink:href="#DejaVuSans-28" x="59.179688"/>
      <use xlink:href="#DejaVuSans-74" x="98.193359"/>
      <use xlink:href="#DejaVuSans-29" x="137.402344"/>
     </g>
    </g>
   </g>
   <g id="line2d_17">
    <path d="M 75.071165 196.901965 
L 79.284463 129.743457 
L 81.391112 99.527061 
L 82.971098 79.35382 
L 84.551085 61.822563 
L 86.131072 47.327344 
L 87.184396 39.514491 
L 88.237721 33.275488 
L 89.291045 28.672731 
L 89.817707 26.999982 
L 90.344369 25.752251 
L 90.871032 24.93266 
L 91.397694 24.54326 
L 91.924356 24.585025 
L 92.451018 25.057852 
L 92.977681 25.960558 
L 93.504343 27.290886 
L 94.031005 29.045509 
L 95.08433 33.809035 
L 96.137654 40.203504 
L 97.190978 48.164979 
L 98.244303 57.613848 
L 99.82429 74.365495 
L 101.404276 93.87142 
L 103.510925 123.398296 
L 106.144236 164.281477 
L 112.990845 273.423788 
L 115.097494 302.601735 
L 116.677481 321.775371 
L 118.257468 338.142371 
L 119.310792 347.309935 
L 120.364117 354.973447 
L 121.417441 361.056268 
L 122.470765 365.497565 
L 122.997428 367.088107 
L 123.52409 368.25292 
L 124.050752 368.98909 
L 124.577414 369.294774 
L 125.104077 369.169207 
L 125.630739 368.612703 
L 126.157401 367.626653 
L 126.684063 366.213523 
L 127.210726 364.376847 
L 128.26405 359.452282 
L 129.317374 352.902199 
L 130.370699 344.792092 
L 131.424023 335.203059 
L 133.00401 318.260083 
L 134.583997 298.589314 
L 136.690646 268.890151 
L 139.323957 227.877222 
L 146.170566 118.878512 
L 148.277215 89.878274 
L 149.857201 70.873057 
L 151.437188 54.700448 
L 152.490513 45.674772 
L 153.543837 38.161339 
L 154.597162 32.23529 
L 155.650486 27.955889 
L 156.177148 26.447712 
L 156.70381 25.365935 
L 157.230473 24.713264 
L 157.757135 24.491333 
L 158.283797 24.700698 
L 158.810459 25.340835 
L 159.337122 26.410144 
L 159.863784 27.905951 
L 160.917108 32.161034 
L 161.970433 38.063541 
L 163.023757 45.55445 
L 164.077082 54.558858 
L 165.657068 70.702399 
L 167.237055 89.682548 
L 169.343704 118.656586 
L 171.977015 159.116645 
L 179.350286 276.419825 
L 181.456935 305.239597 
L 183.036922 324.074583 
L 184.616909 340.051254 
L 185.670233 348.934176 
L 186.723558 356.296805 
L 187.776882 362.065507 
L 188.830206 366.182593 
L 189.356869 367.608254 
L 189.883531 368.606885 
L 190.410193 369.175987 
L 190.936855 369.314135 
L 191.463518 369.020984 
L 191.99018 368.297266 
L 192.516842 367.144791 
L 193.043504 365.566441 
L 194.096829 361.148962 
L 195.150153 355.088999 
L 196.203478 347.447148 
L 197.256802 338.29982 
L 198.836789 321.960044 
L 200.416776 302.809315 
L 202.523424 273.654279 
L 205.156736 233.052369 
L 212.530007 115.897061 
L 214.636656 87.260496 
L 216.216642 68.597536 
L 217.796629 52.818332 
L 218.849954 44.079017 
L 219.903278 36.867903 
L 220.956603 31.257107 
L 222.009927 27.302743 
L 222.536589 25.95974 
L 223.063251 25.044358 
L 223.589914 24.558887 
L 224.116576 24.504543 
L 224.643238 24.881461 
L 225.1699 25.6887 
L 225.696563 26.92424 
L 226.223225 28.584993 
L 227.276549 33.164465 
L 228.329874 39.381326 
L 229.383198 47.173413 
L 230.436523 56.46281 
L 232.016509 72.997298 
L 233.596496 92.316814 
L 235.703145 121.650112 
L 238.336456 162.390051 
L 245.183065 271.711936 
L 247.289714 301.097681 
L 248.869701 320.467096 
L 250.449687 337.059283 
L 251.503012 346.390831 
L 252.556336 354.22752 
L 253.609661 360.490977 
L 254.662985 365.118565 
L 255.189647 366.803791 
L 255.71631 368.064 
L 256.242972 368.896039 
L 256.769634 369.297825 
L 257.296296 369.268352 
L 257.822959 368.807694 
L 258.349621 367.917003 
L 258.876283 366.598505 
L 259.402945 364.855499 
L 260.45627 360.11445 
L 261.509594 353.741262 
L 262.562919 345.799661 
L 263.616243 336.369058 
L 265.19623 319.641401 
L 266.776217 300.154906 
L 268.882865 270.646099 
L 271.516177 229.771966 
L 278.362786 120.581875 
L 280.469435 91.370702 
L 282.049421 72.16765 
L 283.629408 55.768108 
L 284.682732 46.577472 
L 285.736057 38.890052 
L 286.789381 32.782728 
L 287.842706 28.316576 
L 288.369368 26.713554 
L 288.89603 25.536265 
L 289.422692 24.787657 
L 289.949355 24.469602 
L 290.476017 24.582897 
L 291.002679 25.127259 
L 291.529341 26.101328 
L 292.056004 27.502666 
L 292.582666 29.327769 
L 293.63599 34.229963 
L 294.689315 40.758892 
L 295.742639 48.849272 
L 296.795964 58.420204 
L 298.37595 75.339468 
L 299.955937 94.991118 
L 302.062586 124.672663 
L 304.695897 165.677143 
L 311.542506 274.725112 
L 313.649155 303.758938 
L 315.229142 322.793795 
L 316.809128 338.999125 
L 317.862453 348.047967 
L 318.915777 355.585376 
L 319.969102 361.535975 
L 321.022426 365.840253 
L 321.549089 367.360913 
L 322.075751 368.455161 
L 322.602413 369.12026 
L 323.129075 369.354545 
L 323.655737 369.15743 
L 324.1824 368.529407 
L 324.709062 367.472046 
L 325.235724 365.987991 
L 325.762386 364.080955 
L 326.815711 359.018064 
L 327.869035 352.333996 
L 328.92236 344.095587 
L 329.975684 334.385216 
L 331.555671 317.275924 
L 333.135658 297.460958 
L 335.242306 267.609463 
L 337.875618 226.478496 
L 344.195564 125.338991 
L 346.302213 95.580419 
L 347.8822 75.855132 
L 349.462187 58.850469 
L 350.515511 49.217022 
L 351.568836 41.060393 
L 352.62216 34.462155 
L 353.675485 29.488295 
L 354.202147 27.6267 
L 354.728809 26.188556 
L 355.255471 25.177459 
L 355.782133 24.59594 
L 356.308796 24.445455 
L 356.835458 24.72638 
L 357.36212 25.438013 
L 357.888782 26.578576 
L 358.415445 28.145214 
L 359.468769 32.539992 
L 360.522094 38.578402 
L 361.575418 46.200067 
L 362.628742 55.328775 
L 364.208729 71.643963 
L 365.788716 90.774597 
L 367.895365 119.910595 
L 370.528676 160.502173 
L 377.901947 277.709474 
L 380.008596 306.380341 
L 381.588583 325.073382 
L 383.168569 340.885657 
L 384.221894 349.648317 
L 385.275218 356.88354 
L 386.328543 362.518971 
L 387.381867 366.498248 
L 387.90853 367.853734 
L 388.435192 368.781576 
L 388.961854 369.279451 
L 389.488516 369.346114 
L 390.015178 368.981398 
L 390.541841 368.186213 
L 391.068503 366.962549 
L 391.595165 365.313466 
L 392.64849 360.756594 
L 393.701814 354.561163 
L 394.755139 346.789119 
L 395.808463 337.51818 
L 397.38845 321.008007 
L 398.968436 301.708278 
L 401.075085 272.393571 
L 403.708396 231.663367 
L 405.815045 197.394037 
L 405.815045 197.394037 
" clip-path="url(#pf1f2f8545e)" style="fill: none; stroke: #1f77b4; stroke-width: 1.5; stroke-linecap: square"/>
   </g>
   <g id="line2d_18">
    <path d="M 75.071165 196.901965 
L 79.17913 131.360423 
L 81.391112 99.562084 
L 83.181763 76.893939 
L 84.656417 60.798166 
L 86.025739 48.230974 
L 87.184396 39.549646 
L 88.237721 33.305794 
L 89.08038 29.485213 
L 89.817707 27.020036 
L 90.449702 25.56897 
L 90.976364 24.830633 
L 91.397694 24.549586 
L 91.819024 24.544274 
L 92.240353 24.814708 
L 92.661683 25.360453 
L 93.188345 26.428421 
L 93.82034 28.272136 
L 94.557667 31.189611 
L 95.400327 35.516753 
L 96.348319 41.617131 
L 97.401643 49.867097 
L 98.665633 61.698066 
L 100.034954 76.703429 
L 101.614941 96.520112 
L 103.510925 123.233137 
L 105.933571 160.705398 
L 113.728172 283.822766 
L 115.624156 309.07138 
L 117.204143 327.374368 
L 118.573465 340.879861 
L 119.837454 351.194288 
L 120.890779 358.099757 
L 121.838771 362.939177 
L 122.68143 366.11353 
L 123.313425 367.784812 
L 123.840087 368.707934 
L 124.36675 369.201616 
L 124.788079 369.2865 
L 125.209409 369.095596 
L 125.630739 368.629209 
L 126.157401 367.660008 
L 126.789396 365.933852 
L 127.526723 363.151671 
L 128.369382 358.97589 
L 129.317374 353.04048 
L 130.370699 344.965651 
L 131.529356 334.378123 
L 132.898678 319.734318 
L 134.478664 300.279231 
L 136.374648 273.910712 
L 138.797295 236.720474 
L 147.118558 105.779968 
L 149.014542 81.052843 
L 150.594529 63.276094 
L 151.96385 50.284429 
L 153.122507 41.21656 
L 154.175832 34.603694 
L 155.123824 30.037104 
L 155.861151 27.417649 
L 156.493146 25.832766 
L 157.019808 24.98217 
L 157.441138 24.611029 
L 157.862467 24.515525 
L 158.283797 24.695812 
L 158.705127 25.151601 
L 159.231789 26.107611 
L 159.863784 27.818059 
L 160.601111 30.582154 
L 161.443771 34.737692 
L 162.391763 40.651025 
L 163.445087 48.7024 
L 164.603744 59.265704 
L 165.973066 73.883397 
L 167.553052 93.312287 
L 169.449036 119.65571 
L 171.76635 155.15047 
L 180.403611 290.709731 
L 182.194262 313.826962 
L 183.774249 331.444494 
L 185.143571 344.281378 
L 186.302228 353.208124 
L 187.355552 359.686139 
L 188.303544 364.127172 
L 189.040871 366.646902 
L 189.672866 368.145271 
L 190.199528 368.923281 
L 190.620858 369.236162 
L 191.042188 369.273336 
L 191.463518 369.034743 
L 191.884847 368.520765 
L 192.41151 367.492328 
L 193.043504 365.695654 
L 193.780831 362.832304 
L 194.623491 358.565697 
L 195.571483 352.531272 
L 196.624808 344.351294 
L 197.888797 332.598785 
L 199.258119 317.670388 
L 200.838105 297.930484 
L 202.734089 271.290296 
L 205.156736 233.877034 
L 213.056669 109.181508 
L 214.952653 84.029877 
L 216.53264 65.825209 
L 217.901962 52.415992 
L 219.165951 42.198087 
L 220.219275 35.377636 
L 221.167267 30.617547 
L 222.009927 27.515411 
L 222.641922 25.899051 
L 223.168584 25.022036 
L 223.589914 24.629685 
L 224.011243 24.512942 
L 224.432573 24.671994 
L 224.853903 25.106586 
L 225.380565 26.036204 
L 226.01256 27.715224 
L 226.749887 30.443129 
L 227.592547 34.558151 
L 228.540539 40.427288 
L 229.593863 48.431696 
L 230.75252 58.946478 
L 232.121842 73.511845 
L 233.701829 92.888201 
L 235.597813 119.181245 
L 237.915126 154.635376 
L 246.552387 290.263802 
L 248.343039 313.436256 
L 249.923025 331.11193 
L 251.292347 344.005296 
L 252.451004 352.983515 
L 253.504328 359.510696 
L 254.45232 363.997492 
L 255.189647 366.55356 
L 255.821642 368.083447 
L 256.348304 368.887897 
L 256.769634 369.221996 
L 257.190964 369.280411 
L 257.612294 369.063049 
L 258.033624 368.570256 
L 258.560286 367.568184 
L 259.19228 365.802893 
L 259.929608 362.97566 
L 260.772267 358.74946 
L 261.720259 352.759075 
L 262.773584 344.625854 
L 264.037573 332.925792 
L 265.406895 318.048882 
L 266.986881 298.360399 
L 268.882865 271.769085 
L 271.305512 234.395599 
L 279.205445 109.639031 
L 281.101429 84.431732 
L 282.681416 66.170665 
L 284.050738 52.706244 
L 285.314727 42.43301 
L 286.368052 35.563835 
L 287.316044 30.75829 
L 288.158703 27.61478 
L 288.790698 25.966958 
L 289.31736 25.063533 
L 289.844022 24.58963 
L 290.265352 24.520594 
L 290.686682 24.727341 
L 291.108012 25.20954 
L 291.634674 26.198425 
L 292.266669 27.948018 
L 293.003996 30.757182 
L 293.846655 34.963164 
L 294.794647 40.931507 
L 295.847972 49.041322 
L 297.006629 59.664978 
L 298.37595 74.34772 
L 299.955937 93.841865 
L 301.851921 120.247784 
L 304.274567 157.469015 
L 312.490498 286.894404 
L 314.386482 311.764696 
L 315.966469 329.685326 
L 317.335791 342.817121 
L 318.494448 352.012921 
L 319.547772 358.748157 
L 320.495764 363.428777 
L 321.338424 366.458608 
L 321.970418 368.019998 
L 322.497081 368.85088 
L 322.91841 369.206195 
L 323.33974 369.285851 
L 323.76107 369.08972 
L 324.1824 368.618117 
L 324.709062 367.64242 
L 325.341057 365.908529 
L 326.078384 363.117441 
L 326.921043 358.931687 
L 327.869035 352.9854 
L 328.92236 344.899011 
L 330.081017 334.299542 
L 331.450338 319.642859 
L 333.030325 300.174843 
L 334.926309 273.793926 
L 337.348955 236.593379 
L 345.670219 105.66882 
L 347.566203 80.955806 
L 349.146189 63.193234 
L 350.515511 50.215375 
L 351.674168 41.160107 
L 352.727493 34.559293 
L 353.675485 30.003932 
L 354.412812 27.393402 
L 355.044806 25.816265 
L 355.571469 24.97217 
L 355.992798 24.606248 
L 356.414128 24.515972 
L 356.835458 24.701486 
L 357.256788 25.162493 
L 357.78345 26.124999 
L 358.415445 27.843184 
L 359.152772 30.61619 
L 359.995431 34.781705 
L 360.943423 40.705923 
L 361.996748 48.768866 
L 363.155405 59.344124 
L 364.524726 73.974713 
L 366.104713 93.416554 
L 368.000697 119.772406 
L 370.423343 156.95218 
L 378.744607 287.909734 
L 380.640591 312.651528 
L 382.220577 330.442982 
L 383.589899 343.448945 
L 384.748556 352.529853 
L 385.801881 359.15518 
L 386.749873 363.733374 
L 387.4872 366.362046 
L 388.119194 367.954925 
L 388.645857 368.812231 
L 389.067186 369.188759 
L 389.488516 369.289655 
L 389.909846 369.114758 
L 390.331176 368.664349 
L 390.857838 367.715036 
L 391.489833 366.012561 
L 392.22716 363.257644 
L 393.069819 359.112377 
L 394.017811 353.210244 
L 395.071136 345.170765 
L 396.229793 334.619743 
L 397.599115 320.015283 
L 399.179101 300.599663 
L 401.075085 274.268939 
L 403.392399 238.784371 
L 406.02571 196.10947 
L 406.02571 196.10947 
" clip-path="url(#pf1f2f8545e)" style="fill: none; stroke: #ff7f0e; stroke-width: 1.5; stroke-linecap: square"/>
   </g>
   <g id="line2d_19">
    <path d="M 75.071165 196.901965 
L 79.231796 130.5648 
L 81.443778 98.85298 
L 83.234429 76.27784 
L 84.76175 59.748173 
L 86.078405 47.797651 
L 87.237062 39.200554 
L 88.237721 33.306666 
L 89.133046 29.282465 
L 89.870373 26.8762 
L 90.502368 25.476187 
L 91.02903 24.780645 
L 91.45036 24.53392 
L 91.819024 24.544239 
L 92.187687 24.765675 
L 92.609017 25.276898 
L 93.135679 26.301898 
L 93.767674 28.094464 
L 94.505001 30.953067 
L 95.347661 35.214337 
L 96.295653 41.24291 
L 97.348977 49.416634 
L 98.5603 60.632427 
L 99.929622 75.470123 
L 101.509609 95.119308 
L 103.405593 121.673068 
L 105.828239 159.015616 
L 113.886171 286.039192 
L 115.782155 311.016009 
L 117.362142 329.044131 
L 118.731464 342.280888 
L 119.942787 351.951388 
L 120.996111 358.699398 
L 121.944103 363.391969 
L 122.734097 366.274261 
L 123.418758 368.002403 
L 123.998086 368.900446 
L 124.472082 369.248378 
L 124.840746 369.277757 
L 125.209409 369.095995 
L 125.630739 368.630025 
L 126.157401 367.661351 
L 126.73673 366.102967 
L 127.42139 363.601982 
L 128.211384 359.842178 
L 129.10671 354.474937 
L 130.160034 346.707264 
L 131.318691 336.437439 
L 132.635347 322.727549 
L 134.162667 304.380169 
L 135.953319 280.027751 
L 138.1653 246.718954 
L 141.746603 188.830007 
L 145.485905 129.477865 
L 147.64522 98.592117 
L 149.435872 76.051313 
L 150.963192 59.556137 
L 152.279848 47.638613 
L 153.438505 39.072624 
L 154.439163 33.206862 
L 155.334489 29.208596 
L 156.071816 26.824099 
L 156.70381 25.44295 
L 157.230473 24.763224 
L 157.651802 24.529185 
L 158.020466 24.55061 
L 158.38913 24.783145 
L 158.810459 25.307026 
L 159.337122 26.347777 
L 159.969116 28.15909 
L 160.706443 31.039266 
L 161.549103 35.324667 
L 162.497095 41.379538 
L 163.550419 49.581175 
L 164.761743 60.827019 
L 166.131064 75.69557 
L 167.711051 95.3756 
L 169.607035 121.958724 
L 172.029681 159.325266 
L 180.034947 285.572607 
L 181.930931 310.607248 
L 183.510918 328.693738 
L 184.88024 341.987498 
L 186.091563 351.712585 
L 187.144887 358.510651 
L 188.092879 363.249901 
L 188.882873 366.171987 
L 189.567534 367.93509 
L 190.146862 368.862943 
L 190.620858 369.235353 
L 190.989522 369.283792 
L 191.358185 369.121082 
L 191.779515 368.676847 
L 192.306177 367.735234 
L 192.885506 366.206399 
L 193.570167 363.739926 
L 194.36016 360.019211 
L 195.255486 354.695055 
L 196.30881 346.976014 
L 197.467467 336.756564 
L 198.784123 323.099203 
L 200.311443 304.805443 
L 202.102095 280.50445 
L 204.314076 247.240077 
L 207.842713 190.235271 
L 211.687347 129.185904 
L 213.846662 98.331587 
L 215.584648 76.440276 
L 217.111968 59.88594 
L 218.428624 47.91181 
L 219.587281 39.292451 
L 220.587939 33.378433 
L 221.483265 29.335667 
L 222.220592 26.913819 
L 222.852587 25.500298 
L 223.379249 24.793432 
L 223.800579 24.537624 
L 224.169242 24.539989 
L 224.537906 24.753478 
L 224.959235 25.255636 
L 225.485898 26.269353 
L 226.117892 28.048492 
L 226.85522 30.891641 
L 227.697879 35.135622 
L 228.645871 41.145353 
L 229.699196 49.299074 
L 230.910519 60.493327 
L 232.27984 75.308899 
L 233.859827 94.93596 
L 235.755811 121.468644 
L 238.178457 158.793943 
L 246.289056 286.581869 
L 248.18504 311.490991 
L 249.765027 329.450866 
L 251.134348 342.621027 
L 252.345671 352.227793 
L 253.398996 358.917381 
L 254.346988 363.555495 
L 255.136981 366.391375 
L 255.821642 368.078751 
L 256.400971 368.942041 
L 256.874967 369.26144 
L 257.24363 369.268606 
L 257.612294 369.064642 
L 258.033624 368.573347 
L 258.560286 367.573149 
L 259.19228 365.810105 
L 259.929608 362.98548 
L 260.772267 358.762225 
L 261.720259 352.775086 
L 262.773584 344.645355 
L 263.984907 333.476939 
L 265.354229 318.687911 
L 266.934215 299.087408 
L 268.830199 272.580043 
L 271.252846 235.275506 
L 279.41611 106.719 
L 281.259428 82.516513 
L 282.839415 64.527326 
L 284.208736 51.32857 
L 285.42006 41.694443 
L 286.473384 34.979778 
L 287.421376 30.318293 
L 288.211369 27.462496 
L 288.89603 25.757627 
L 289.475359 24.879426 
L 289.949355 24.547784 
L 290.318018 24.531089 
L 290.686682 24.725528 
L 291.108012 25.205959 
L 291.634674 26.192633 
L 292.214002 27.770673 
L 292.898663 30.294611 
L 293.688657 34.080406 
L 294.583982 39.476289 
L 295.637307 47.276282 
L 296.795964 57.579574 
L 298.112619 71.324348 
L 299.63994 89.707312 
L 301.430591 114.093823 
L 303.642573 147.432007 
L 307.223876 205.335905 
L 310.963178 264.65946 
L 313.122493 295.50931 
L 314.860478 317.395891 
L 316.387799 333.945343 
L 317.704454 345.914797 
L 318.863111 354.529746 
L 319.863769 360.439775 
L 320.759095 364.478863 
L 321.496422 366.897623 
L 322.128417 368.308466 
L 322.655079 369.013088 
L 323.076409 369.267095 
L 323.445073 369.263154 
L 323.813736 369.04809 
L 324.235066 368.544135 
L 324.761728 367.52818 
L 325.393723 365.74638 
L 326.13105 362.900167 
L 326.973709 358.652757 
L 327.921701 352.639289 
L 328.975026 344.481601 
L 330.186349 333.283074 
L 331.555671 318.463111 
L 333.135658 298.831659 
L 335.031642 272.294788 
L 337.454288 234.966058 
L 345.564886 107.183578 
L 347.46087 82.279271 
L 349.040857 64.324246 
L 350.410179 51.158817 
L 351.621502 41.556578 
L 352.674826 34.871139 
L 353.622818 30.236892 
L 354.412812 27.404307 
L 355.097473 25.719825 
L 355.676801 24.859002 
L 356.150797 24.541628 
L 356.519461 24.536039 
L 356.888124 24.741579 
L 357.309454 25.234671 
L 357.836116 26.237106 
L 358.468111 28.002813 
L 359.205438 30.830503 
L 360.048098 35.057189 
L 360.99609 41.048067 
L 362.049414 49.181769 
L 363.260737 60.354463 
L 364.630059 75.147887 
L 366.210046 94.75279 
L 368.10603 121.264352 
L 370.528676 158.572336 
L 378.639274 286.387726 
L 380.535258 311.321131 
L 382.115245 329.305476 
L 383.484567 342.499505 
L 384.69589 352.129109 
L 385.749214 358.839627 
L 386.697206 363.497248 
L 387.4872 366.349751 
L 388.171861 368.051727 
L 388.751189 368.927461 
L 389.225185 369.257078 
L 389.593849 369.272197 
L 389.962512 369.076182 
L 390.383842 368.593953 
L 390.910504 367.605042 
L 391.542499 365.855433 
L 392.22716 363.2741 
L 393.017153 359.42333 
L 393.965145 353.598509 
L 395.01847 345.641259 
L 396.229793 334.658792 
L 397.599115 320.061047 
L 399.179101 300.652273 
L 401.022419 275.09742 
L 403.339733 239.684895 
L 405.973044 197.039125 
L 405.973044 197.039125 
" clip-path="url(#pf1f2f8545e)" style="fill: none; stroke: #2ca02c; stroke-width: 1.5; stroke-linecap: square"/>
   </g>
   <g id="line2d_20">
    <path d="M 75.071165 196.901965 
L 79.284463 129.77032 
L 81.391112 99.563514 
L 82.971098 79.394579 
L 84.551085 61.864607 
L 86.131072 47.367283 
L 87.184396 39.551018 
L 88.237721 33.306952 
L 89.291045 28.697474 
L 89.817707 27.020749 
L 90.344369 25.768639 
L 90.871032 24.944273 
L 91.397694 24.549712 
L 91.924356 24.585941 
L 92.451018 25.052871 
L 92.977681 25.949334 
L 93.504343 27.27309 
L 94.031005 29.02083 
L 95.08433 33.769738 
L 96.137654 40.148609 
L 97.190978 48.093708 
L 98.244303 57.52565 
L 99.82429 74.251408 
L 101.404276 93.731633 
L 103.510925 123.226148 
L 106.144236 164.075094 
L 112.990845 273.187856 
L 115.097494 302.379859 
L 116.677481 321.572026 
L 118.257468 337.964371 
L 119.310792 347.152502 
L 120.364117 354.83938 
L 121.417441 360.948199 
L 122.470765 365.417922 
L 122.997428 367.023514 
L 123.52409 368.20389 
L 124.050752 368.9561 
L 124.577414 369.278265 
L 125.104077 369.169579 
L 125.630739 368.630313 
L 126.157401 367.661816 
L 126.684063 366.266509 
L 127.210726 364.447878 
L 128.26405 359.559876 
L 129.317374 353.04665 
L 130.370699 344.973278 
L 131.424023 335.420427 
L 133.00401 318.52973 
L 134.583997 298.907536 
L 136.690646 269.264886 
L 139.323957 228.304873 
L 146.170566 119.319079 
L 148.277215 90.281432 
L 149.857201 71.235335 
L 151.437188 55.011439 
L 152.490513 45.946192 
L 153.543837 38.389245 
L 154.597162 32.416104 
L 155.650486 28.086452 
L 156.177148 26.552108 
L 156.70381 25.443549 
L 157.230473 24.763547 
L 157.757135 24.513801 
L 158.283797 24.694937 
L 158.810459 25.3065 
L 159.337122 26.346962 
L 159.863784 27.813723 
L 160.390446 29.703116 
L 161.443771 34.729866 
L 162.497095 41.376987 
L 163.550419 49.578061 
L 164.603744 59.251147 
L 166.183731 76.305589 
L 167.763717 96.068365 
L 169.870366 125.857053 
L 172.503677 166.925238 
L 178.823624 268.016621 
L 180.930273 297.797648 
L 182.51026 317.553033 
L 184.090246 334.598856 
L 185.143571 344.265608 
L 186.196895 352.459952 
L 187.25022 359.100011 
L 188.303544 364.119441 
L 188.830206 366.0051 
L 189.356869 367.46809 
L 189.883531 368.504753 
L 190.410193 369.112498 
L 190.936855 369.289806 
L 191.463518 369.036235 
L 191.99018 368.352418 
L 192.516842 367.240064 
L 193.043504 365.701953 
L 194.096829 361.364895 
L 195.150153 355.384577 
L 196.203478 347.820754 
L 197.256802 338.748999 
L 198.836789 322.516177 
L 200.416776 303.462331 
L 202.523424 274.41648 
L 205.156736 233.911633 
L 212.530007 116.741631 
L 214.636656 88.018844 
L 216.216642 69.268913 
L 217.796629 53.385346 
L 218.849954 44.56778 
L 219.903278 37.272287 
L 220.956603 31.571761 
L 222.009927 27.523159 
L 222.536589 26.131628 
L 223.063251 25.166935 
L 223.589914 24.631489 
L 224.116576 24.52663 
L 224.643238 24.852619 
L 225.1699 25.608643 
L 225.696563 26.79281 
L 226.223225 28.402161 
L 227.276549 32.879275 
L 228.329874 38.995248 
L 229.383198 46.688974 
L 230.436523 55.883578 
L 232.016509 72.284789 
L 233.596496 91.484633 
L 235.703145 120.684732 
L 238.336456 161.309133 
L 245.709727 278.342569 
L 247.816376 306.904876 
L 249.396363 325.504729 
L 250.97635 341.216442 
L 252.029674 349.909228 
L 253.082999 357.073217 
L 254.136323 362.636826 
L 255.189647 366.544468 
L 255.71631 367.864442 
L 256.242972 368.757099 
L 256.769634 369.220207 
L 257.296296 369.252609 
L 257.822959 368.854224 
L 258.349621 368.026049 
L 258.876283 366.770152 
L 259.402945 365.089673 
L 260.45627 360.472822 
L 261.509594 354.221624 
L 262.562919 346.398541 
L 263.616243 337.081737 
L 265.19623 320.513296 
L 266.776217 301.168811 
L 268.882865 271.816528 
L 271.516177 231.075445 
L 278.362786 121.849535 
L 280.469435 92.513231 
L 282.049421 73.183962 
L 283.629408 56.633132 
L 284.682732 47.329206 
L 285.736057 39.519762 
L 286.789381 33.282829 
L 287.842706 28.680725 
L 288.369368 27.007754 
L 288.89603 25.759431 
L 289.422692 24.938875 
L 289.949355 24.548137 
L 290.476017 24.588194 
L 291.002679 25.058945 
L 291.529341 25.959215 
L 292.056004 27.286752 
L 292.582666 29.038239 
L 293.63599 33.794503 
L 294.689315 40.180482 
L 295.742639 48.132371 
L 296.795964 57.570716 
L 298.37595 74.305216 
L 299.955937 93.792975 
L 302.062586 123.295366 
L 304.695897 164.150251 
L 311.542506 273.256499 
L 313.649155 302.440401 
L 315.229142 321.624886 
L 316.809128 338.008363 
L 317.862453 347.190019 
L 318.915777 354.870047 
L 319.969102 360.97171 
L 321.022426 365.434043 
L 321.549089 367.035874 
L 322.075751 368.212459 
L 322.602413 368.960856 
L 323.129075 369.279196 
L 323.655737 369.166683 
L 324.1824 368.623598 
L 324.709062 367.651298 
L 325.235724 366.252214 
L 325.762386 364.429842 
L 326.815711 359.534503 
L 327.869035 353.014193 
L 328.92236 344.934061 
L 329.975684 335.374842 
L 331.555671 318.475466 
L 333.135658 298.845811 
L 335.242306 269.195396 
L 337.875618 228.229597 
L 344.722227 119.250723 
L 346.828876 90.221286 
L 348.408862 71.182942 
L 349.988849 54.967976 
L 351.042173 45.909237 
L 352.095498 38.359168 
L 353.148822 32.393206 
L 354.202147 28.070961 
L 354.728809 26.540383 
L 355.255471 25.43562 
L 355.782133 24.759433 
L 356.308796 24.513514 
L 356.835458 24.698475 
L 357.36212 25.313856 
L 357.888782 26.358117 
L 358.415445 27.82865 
L 358.942107 29.721777 
L 359.995431 34.755846 
L 361.048756 41.410026 
L 362.10208 49.617829 
L 363.155405 59.297247 
L 364.735391 76.360304 
L 366.315378 96.130468 
L 368.422027 125.926811 
L 371.055338 167.000629 
L 377.375285 268.086351 
L 379.481934 297.859711 
L 381.061921 317.607701 
L 382.641907 334.644902 
L 383.695232 344.305318 
L 384.748556 352.492929 
L 385.801881 359.125927 
L 386.855205 364.138036 
L 387.381867 366.01996 
L 387.90853 367.479178 
L 388.435192 368.512041 
L 388.961854 369.115969 
L 389.488516 369.289451 
L 390.015178 369.032054 
L 390.541841 368.344421 
L 391.068503 367.228272 
L 391.595165 365.686396 
L 392.64849 361.341932 
L 393.701814 355.354438 
L 394.755139 347.78374 
L 395.808463 338.70548 
L 397.38845 322.463735 
L 398.968436 303.402143 
L 401.075085 274.348093 
L 403.708396 233.83686 
L 405.815045 199.647417 
L 405.815045 199.647417 
" clip-path="url(#pf1f2f8545e)" style="fill: none; stroke-dasharray: 5.55,2.4; stroke-dashoffset: 0; stroke: #000000; stroke-width: 1.5"/>
   </g>
   <g id="patch_3">
    <path d="M 58.523438 386.6 
L 58.523438 7.2 
" style="fill: none; stroke: #000000; stroke-width: 0.8; stroke-linejoin: miter; stroke-linecap: square"/>
   </g>
   <g id="patch_4">
    <path d="M 422.573437 386.6 
L 422.573437 7.2 
" style="fill: none; stroke: #000000; stroke-width: 0.8; stroke-linejoin: miter; stroke-linecap: square"/>
   </g>
   <g id="patch_5">
    <path d="M 58.523438 386.6 
L 422.573437 386.6 
" style="fill: none; stroke: #000000; stroke-width: 0.8; stroke-linejoin: miter; stroke-linecap: square"/>
   </g>
   <g id="patch_6">
    <path d="M 58.523438 7.2 
L 422.573437 7.2 
" style="fill: none; stroke: #000000; stroke-width: 0.8; stroke-linejoin: miter; stroke-linecap: square"/>
   </g>
   <g id="legend_1">
    <g id="patch_7">
     <path d="M 65.523438 227.75625 
L 147.225 227.75625 
Q 149.225 227.75625 149.225 225.75625 
L 149.225 168.04375 
Q 149.225 166.04375 147.225 166.04375 
L 65.523438 166.04375 
Q 63.523438 166.04375 63.523438 168.04375 
L 63.523438 225.75625 
Q 63.523438 227.75625 65.523438 227.75625 
z
" style="fill: #ffffff; opacity: 0.8; stroke: #cccccc; stroke-linejoin: miter"/>
    </g>
    <g id="line2d_21">
     <path d="M 67.523438 174.142187 
L 77.523438 174.142187 
L 87.523438 174.142187 
" style="fill: none; stroke: #1f77b4; stroke-width: 1.5; stroke-linecap: square"/>
    </g>
    <g id="text_19">
     <!-- h = 0.05 -->
     <g transform="translate(95.523438 177.642187)scale(0.1 -0.1)">
      <defs>
       <path id="DejaVuSans-68" d="M 3513 2113 
L 3513 0 
L 2938 0 
L 2938 2094 
Q 2938 2591 2744 2837 
Q 2550 3084 2163 3084 
Q 1697 3084 1428 2787 
Q 1159 2491 1159 1978 
L 1159 0 
L 581 0 
L 581 4863 
L 1159 4863 
L 1159 2956 
Q 1366 3272 1645 3428 
Q 1925 3584 2291 3584 
Q 2894 3584 3203 3211 
Q 3513 2838 3513 2113 
z
" transform="scale(0.015625)"/>
       <path id="DejaVuSans-20" transform="scale(0.015625)"/>
       <path id="DejaVuSans-3d" d="M 678 2906 
L 4684 2906 
L 4684 2381 
L 678 2381 
L 678 2906 
z
M 678 1631 
L 4684 1631 
L 4684 1100 
L 678 1100 
L 678 1631 
z
" transform="scale(0.015625)"/>
      </defs>
      <use xlink:href="#DejaVuSans-68"/>
      <use xlink:href="#DejaVuSans-20" x="63.378906"/>
      <use xlink:href="#DejaVuSans-3d" x="95.166016"/>
      <use xlink:href="#DejaVuSans-20" x="178.955078"/>
      <use xlink:href="#DejaVuSans-30" x="210.742188"/>
      <use xlink:href="#DejaVuSans-2e" x="274.365234"/>
      <use xlink:href="#DejaVuSans-30" x="306.152344"/>
      <use xlink:href="#DejaVuSans-35" x="369.775391"/>
     </g>
    </g>
    <g id="line2d_22">
     <path d="M 67.523438 188.820312 
L 77.523438 188.820312 
L 87.523438 188.820312 
" style="fill: none; stroke: #ff7f0e; stroke-width: 1.5; stroke-linecap: square"/>
    </g>
    <g id="text_20">
     <!-- h = 0.01 -->
     <g transform="translate(95.523438 192.320312)scale(0.1 -0.1)">
      <use xlink:href="#DejaVuSans-68"/>
      <use xlink:href="#DejaVuSans-20" x="63.378906"/>
      <use xlink:href="#DejaVuSans-3d" x="95.166016"/>
      <use xlink:href="#DejaVuSans-20" x="178.955078"/>
      <use xlink:href="#DejaVuSans-30" x="210.742188"/>
      <use xlink:href="#DejaVuSans-2e" x="274.365234"/>
      <use xlink:href="#DejaVuSans-30" x="306.152344"/>
      <use xlink:href="#DejaVuSans-31" x="369.775391"/>
     </g>
    </g>
    <g id="line2d_23">
     <path d="M 67.523438 203.498437 
L 77.523438 203.498437 
L 87.523438 203.498437 
" style="fill: none; stroke: #2ca02c; stroke-width: 1.5; stroke-linecap: square"/>
    </g>
    <g id="text_21">
     <!-- h = 0.005 -->
     <g transform="translate(95.523438 206.998437)scale(0.1 -0.1)">
      <use xlink:href="#DejaVuSans-68"/>
      <use xlink:href="#DejaVuSans-20" x="63.378906"/>
      <use xlink:href="#DejaVuSans-3d" x="95.166016"/>
      <use xlink:href="#DejaVuSans-20" x="178.955078"/>
      <use xlink:href="#DejaVuSans-30" x="210.742188"/>
      <use xlink:href="#DejaVuSans-2e" x="274.365234"/>
      <use xlink:href="#DejaVuSans-30" x="306.152344"/>
      <use xlink:href="#DejaVuSans-30" x="369.775391"/>
      <use xlink:href="#DejaVuSans-35" x="433.398438"/>
     </g>
    </g>
    <g id="line2d_24">
     <path d="M 67.523438 218.176562 
L 77.523438 218.176562 
L 87.523438 218.176562 
" style="fill: none; stroke-dasharray: 5.55,2.4; stroke-dashoffset: 0; stroke: #000000; stroke-width: 1.5"/>
    </g>
    <g id="text_22">
     <!-- a -->
     <g transform="translate(95.523438 221.676562)scale(0.1 -0.1)">
      <defs>
       <path id="DejaVuSans-61" d="M 2194 1759 
Q 1497 1759 1228 1600 
Q 959 1441 959 1056 
Q 959 750 1161 570 
Q 1363 391 1709 391 
Q 2188 391 2477 730 
Q 2766 1069 2766 1631 
L 2766 1759 
L 2194 1759 
z
M 3341 1997 
L 3341 0 
L 2766 0 
L 2766 531 
Q 2569 213 2275 61 
Q 1981 -91 1556 -91 
Q 1019 -91 701 211 
Q 384 513 384 1019 
Q 384 1609 779 1909 
Q 1175 2209 1959 2209 
L 2766 2209 
L 2766 2266 
Q 2766 2663 2505 2880 
Q 2244 3097 1772 3097 
Q 1472 3097 1187 3025 
Q 903 2953 641 2809 
L 641 3341 
Q 956 3463 1253 3523 
Q 1550 3584 1831 3584 
Q 2591 3584 2966 3190 
Q 3341 2797 3341 1997 
z
" transform="scale(0.015625)"/>
      </defs>
      <use xlink:href="#DejaVuSans-61"/>
     </g>
    </g>
   </g>
  </g>
  <g id="axes_2">
   <g id="patch_8">
    <path d="M 485.123438 386.6 
L 849.173437 386.6 
L 849.173437 7.2 
L 485.123438 7.2 
z
" style="fill: #ffffff"/>
   </g>
   <g id="matplotlib.axis_3">
    <g id="xtick_8">
     <g id="line2d_25">
      <g>
       <use xlink:href="#m84596a7ba3" x="501.671165" y="386.6" style="stroke: #000000; stroke-width: 0.8"/>
      </g>
     </g>
     <g id="text_23">
      <!-- 0 -->
      <g transform="translate(498.489915 401.198438)scale(0.1 -0.1)">
       <use xlink:href="#DejaVuSans-30"/>
      </g>
     </g>
    </g>
    <g id="xtick_9">
     <g id="line2d_26">
      <g>
       <use xlink:href="#m84596a7ba3" x="554.337388" y="386.6" style="stroke: #000000; stroke-width: 0.8"/>
      </g>
     </g>
     <g id="text_24">
      <!-- 5 -->
      <g transform="translate(551.156138 401.198438)scale(0.1 -0.1)">
       <use xlink:href="#DejaVuSans-35"/>
      </g>
     </g>
    </g>
    <g id="xtick_10">
     <g id="line2d_27">
      <g>
       <use xlink:href="#m84596a7ba3" x="607.003611" y="386.6" style="stroke: #000000; stroke-width: 0.8"/>
      </g>
     </g>
     <g id="text_25">
      <!-- 10 -->
      <g transform="translate(600.641111 401.198438)scale(0.1 -0.1)">
       <use xlink:href="#DejaVuSans-31"/>
       <use xlink:href="#DejaVuSans-30" x="63.623047"/>
      </g>
     </g>
    </g>
    <g id="xtick_11">
     <g id="line2d_28">
      <g>
       <use xlink:href="#m84596a7ba3" x="659.669834" y="386.6" style="stroke: #000000; stroke-width: 0.8"/>
      </g>
     </g>
     <g id="text_26">
      <!-- 15 -->
      <g transform="translate(653.307334 401.198438)scale(0.1 -0.1)">
       <use xlink:href="#DejaVuSans-31"/>
       <use xlink:href="#DejaVuSans-35" x="63.623047"/>
      </g>
     </g>
    </g>
    <g id="xtick_12">
     <g id="line2d_29">
      <g>
       <use xlink:href="#m84596a7ba3" x="712.336057" y="386.6" style="stroke: #000000; stroke-width: 0.8"/>
      </g>
     </g>
     <g id="text_27">
      <!-- 20 -->
      <g transform="translate(705.973557 401.198438)scale(0.1 -0.1)">
       <use xlink:href="#DejaVuSans-32"/>
       <use xlink:href="#DejaVuSans-30" x="63.623047"/>
      </g>
     </g>
    </g>
    <g id="xtick_13">
     <g id="line2d_30">
      <g>
       <use xlink:href="#m84596a7ba3" x="765.00228" y="386.6" style="stroke: #000000; stroke-width: 0.8"/>
      </g>
     </g>
     <g id="text_28">
      <!-- 25 -->
      <g transform="translate(758.63978 401.198438)scale(0.1 -0.1)">
       <use xlink:href="#DejaVuSans-32"/>
       <use xlink:href="#DejaVuSans-35" x="63.623047"/>
      </g>
     </g>
    </g>
    <g id="xtick_14">
     <g id="line2d_31">
      <g>
       <use xlink:href="#m84596a7ba3" x="817.668503" y="386.6" style="stroke: #000000; stroke-width: 0.8"/>
      </g>
     </g>
     <g id="text_29">
      <!-- 30 -->
      <g transform="translate(811.306003 401.198438)scale(0.1 -0.1)">
       <use xlink:href="#DejaVuSans-33"/>
       <use xlink:href="#DejaVuSans-30" x="63.623047"/>
      </g>
     </g>
    </g>
    <g id="text_30">
     <!-- t -->
     <g transform="translate(665.188281 414.876562)scale(0.1 -0.1)">
      <use xlink:href="#DejaVuSans-74"/>
     </g>
    </g>
   </g>
   <g id="matplotlib.axis_4">
    <g id="ytick_10">
     <g id="line2d_32">
      <g>
       <use xlink:href="#m0cc8b22a54" x="485.123438" y="369.292067" style="stroke: #000000; stroke-width: 0.8"/>
      </g>
     </g>
     <g id="text_31">
      <!-- −1.00 -->
      <g transform="translate(447.478125 373.091286)scale(0.1 -0.1)">
       <use xlink:href="#DejaVuSans-2212"/>
       <use xlink:href="#DejaVuSans-31" x="83.789062"/>
       <use xlink:href="#DejaVuSans-2e" x="147.412109"/>
       <use xlink:href="#DejaVuSans-30" x="179.199219"/>
       <use xlink:href="#DejaVuSans-30" x="242.822266"/>
      </g>
     </g>
    </g>
    <g id="ytick_11">
     <g id="line2d_33">
      <g>
       <use xlink:href="#m0cc8b22a54" x="485.123438" y="326.196727" style="stroke: #000000; stroke-width: 0.8"/>
      </g>
     </g>
     <g id="text_32">
      <!-- −0.75 -->
      <g transform="translate(447.478125 329.995946)scale(0.1 -0.1)">
       <use xlink:href="#DejaVuSans-2212"/>
       <use xlink:href="#DejaVuSans-30" x="83.789062"/>
       <use xlink:href="#DejaVuSans-2e" x="147.412109"/>
       <use xlink:href="#DejaVuSans-37" x="179.199219"/>
       <use xlink:href="#DejaVuSans-35" x="242.822266"/>
      </g>
     </g>
    </g>
    <g id="ytick_12">
     <g id="line2d_34">
      <g>
       <use xlink:href="#m0cc8b22a54" x="485.123438" y="283.101387" style="stroke: #000000; stroke-width: 0.8"/>
      </g>
     </g>
     <g id="text_33">
      <!-- −0.50 -->
      <g transform="translate(447.478125 286.900606)scale(0.1 -0.1)">
       <use xlink:href="#DejaVuSans-2212"/>
       <use xlink:href="#DejaVuSans-30" x="83.789062"/>
       <use xlink:href="#DejaVuSans-2e" x="147.412109"/>
       <use xlink:href="#DejaVuSans-35" x="179.199219"/>
       <use xlink:href="#DejaVuSans-30" x="242.822266"/>
      </g>
     </g>
    </g>
    <g id="ytick_13">
     <g id="line2d_35">
      <g>
       <use xlink:href="#m0cc8b22a54" x="485.123438" y="240.006047" style="stroke: #000000; stroke-width: 0.8"/>
      </g>
     </g>
     <g id="text_34">
      <!-- −0.25 -->
      <g transform="translate(447.478125 243.805266)scale(0.1 -0.1)">
       <use xlink:href="#DejaVuSans-2212"/>
       <use xlink:href="#DejaVuSans-30" x="83.789062"/>
       <use xlink:href="#DejaVuSans-2e" x="147.412109"/>
       <use xlink:href="#DejaVuSans-32" x="179.199219"/>
       <use xlink:href="#DejaVuSans-35" x="242.822266"/>
      </g>
     </g>
    </g>
    <g id="ytick_14">
     <g id="line2d_36">
      <g>
       <use xlink:href="#m0cc8b22a54" x="485.123438" y="196.910707" style="stroke: #000000; stroke-width: 0.8"/>
      </g>
     </g>
     <g id="text_35">
      <!-- 0.00 -->
      <g transform="translate(455.857813 200.709926)scale(0.1 -0.1)">
       <use xlink:href="#DejaVuSans-30"/>
       <use xlink:href="#DejaVuSans-2e" x="63.623047"/>
       <use xlink:href="#DejaVuSans-30" x="95.410156"/>
       <use xlink:href="#DejaVuSans-30" x="159.033203"/>
      </g>
     </g>
    </g>
    <g id="ytick_15">
     <g id="line2d_37">
      <g>
       <use xlink:href="#m0cc8b22a54" x="485.123438" y="153.815368" style="stroke: #000000; stroke-width: 0.8"/>
      </g>
     </g>
     <g id="text_36">
      <!-- 0.25 -->
      <g transform="translate(455.857813 157.614586)scale(0.1 -0.1)">
       <use xlink:href="#DejaVuSans-30"/>
       <use xlink:href="#DejaVuSans-2e" x="63.623047"/>
       <use xlink:href="#DejaVuSans-32" x="95.410156"/>
       <use xlink:href="#DejaVuSans-35" x="159.033203"/>
      </g>
     </g>
    </g>
    <g id="ytick_16">
     <g id="line2d_38">
      <g>
       <use xlink:href="#m0cc8b22a54" x="485.123438" y="110.720028" style="stroke: #000000; stroke-width: 0.8"/>
      </g>
     </g>
     <g id="text_37">
      <!-- 0.50 -->
      <g transform="translate(455.857813 114.519246)scale(0.1 -0.1)">
       <use xlink:href="#DejaVuSans-30"/>
       <use xlink:href="#DejaVuSans-2e" x="63.623047"/>
       <use xlink:href="#DejaVuSans-35" x="95.410156"/>
       <use xlink:href="#DejaVuSans-30" x="159.033203"/>
      </g>
     </g>
    </g>
    <g id="ytick_17">
     <g id="line2d_39">
      <g>
       <use xlink:href="#m0cc8b22a54" x="485.123438" y="67.624688" style="stroke: #000000; stroke-width: 0.8"/>
      </g>
     </g>
     <g id="text_38">
      <!-- 0.75 -->
      <g transform="translate(455.857813 71.423907)scale(0.1 -0.1)">
       <use xlink:href="#DejaVuSans-30"/>
       <use xlink:href="#DejaVuSans-2e" x="63.623047"/>
       <use xlink:href="#DejaVuSans-37" x="95.410156"/>
       <use xlink:href="#DejaVuSans-35" x="159.033203"/>
      </g>
     </g>
    </g>
    <g id="ytick_18">
     <g id="line2d_40">
      <g>
       <use xlink:href="#m0cc8b22a54" x="485.123438" y="24.529348" style="stroke: #000000; stroke-width: 0.8"/>
      </g>
     </g>
     <g id="text_39">
      <!-- 1.00 -->
      <g transform="translate(455.857813 28.328567)scale(0.1 -0.1)">
       <use xlink:href="#DejaVuSans-31"/>
       <use xlink:href="#DejaVuSans-2e" x="63.623047"/>
       <use xlink:href="#DejaVuSans-30" x="95.410156"/>
       <use xlink:href="#DejaVuSans-30" x="159.033203"/>
      </g>
     </g>
    </g>
    <g id="text_40">
     <!-- v(t) -->
     <g transform="translate(441.398438 205.721094)rotate(-90)scale(0.1 -0.1)">
      <defs>
       <path id="DejaVuSans-76" d="M 191 3500 
L 800 3500 
L 1894 563 
L 2988 3500 
L 3597 3500 
L 2284 0 
L 1503 0 
L 191 3500 
z
" transform="scale(0.015625)"/>
      </defs>
      <use xlink:href="#DejaVuSans-76"/>
      <use xlink:href="#DejaVuSans-28" x="59.179688"/>
      <use xlink:href="#DejaVuSans-74" x="98.193359"/>
      <use xlink:href="#DejaVuSans-29" x="137.402344"/>
     </g>
    </g>
   </g>
   <g id="line2d_41">
    <path d="M 501.671165 24.529348 
L 502.197827 24.744825 
L 502.724489 25.390985 
L 503.251151 26.466214 
L 503.777814 27.967823 
L 504.831138 32.234097 
L 505.884463 38.147151 
L 506.937787 45.647858 
L 507.991112 54.661218 
L 509.571098 70.816406 
L 511.151085 89.805836 
L 513.257734 118.788217 
L 515.891045 159.251788 
L 523.264316 276.524125 
L 525.370965 305.325543 
L 526.950952 324.144696 
L 528.530939 340.104155 
L 529.584263 348.975026 
L 530.637587 356.325283 
L 531.690912 362.081416 
L 532.744236 366.18586 
L 533.270899 367.605213 
L 533.797561 368.597566 
L 534.324223 369.160434 
L 534.850885 369.29241 
L 535.377548 368.993163 
L 535.90421 368.26344 
L 536.430872 367.105066 
L 536.957534 365.520939 
L 538.010859 361.092327 
L 539.064183 355.021885 
L 540.117508 347.370312 
L 541.170832 338.21412 
L 542.750819 321.862842 
L 544.330805 302.702992 
L 546.437454 273.539845 
L 549.070765 232.934728 
L 556.444037 115.811051 
L 558.550686 87.193008 
L 560.130672 68.545983 
L 561.710659 52.784068 
L 562.763983 44.05684 
L 563.817308 36.858124 
L 564.870632 31.259911 
L 565.923957 27.318188 
L 566.450619 25.98149 
L 566.977281 25.072379 
L 567.503944 24.593131 
L 568.030606 24.544945 
L 568.557268 24.927944 
L 569.08393 25.741168 
L 569.610592 26.982585 
L 570.137255 28.64909 
L 571.190579 33.239637 
L 572.243904 39.466909 
L 573.297228 47.268638 
L 574.350553 56.566813 
L 575.930539 73.112656 
L 577.510526 92.441132 
L 579.617175 121.782308 
L 582.250486 162.52515 
L 589.097095 271.818731 
L 591.203744 301.186659 
L 592.783731 320.540566 
L 594.363717 337.11579 
L 595.417042 346.435408 
L 596.470366 354.259809 
L 597.523691 360.510743 
L 598.577015 365.125696 
L 599.103677 366.804604 
L 599.63034 368.058514 
L 600.157002 368.884289 
L 600.683664 369.279863 
L 601.210326 369.244245 
L 601.736989 368.777524 
L 602.263651 367.880867 
L 602.790313 366.556516 
L 603.316975 364.807783 
L 604.3703 360.055718 
L 605.423624 353.672189 
L 606.476949 345.721024 
L 607.530273 336.281732 
L 609.11026 319.542868 
L 610.690246 300.047575 
L 612.796895 270.531124 
L 615.430206 229.654393 
L 622.276815 120.493341 
L 624.383464 91.300158 
L 625.963451 72.112721 
L 627.543438 55.730224 
L 628.596762 46.551558 
L 629.650087 38.876456 
L 630.703411 32.781672 
L 631.756736 28.328159 
L 632.283398 26.731452 
L 632.81006 25.560458 
L 633.336722 24.818104 
L 633.863385 24.50625 
L 634.390047 24.625676 
L 634.916709 25.176084 
L 635.443371 26.156098 
L 635.970033 27.563266 
L 636.496696 29.39407 
L 637.55002 34.307219 
L 638.603345 40.846419 
L 639.656669 48.946281 
L 640.709994 58.525813 
L 642.28998 75.456137 
L 643.869967 95.116421 
L 645.976616 124.805377 
L 648.609927 165.812149 
L 655.456536 274.830347 
L 657.563185 303.846009 
L 659.143172 322.865148 
L 660.723158 339.053353 
L 661.776483 348.090184 
L 662.829807 355.615249 
L 663.883132 361.553292 
L 664.936456 365.844927 
L 665.463118 367.359274 
L 665.989781 368.447234 
L 666.516443 369.106087 
L 667.043105 369.334184 
L 667.569767 369.130953 
L 668.09643 368.496902 
L 668.623092 367.433616 
L 669.149754 365.943755 
L 670.203078 361.70027 
L 671.256403 355.808875 
L 672.309727 348.328481 
L 673.363052 339.333886 
L 674.943039 323.203534 
L 676.523025 304.234478 
L 678.629674 275.271546 
L 681.262985 234.818856 
L 688.636256 117.496008 
L 690.742905 88.660624 
L 692.322892 69.811597 
L 693.902879 53.819233 
L 694.956203 44.925104 
L 696.009528 37.550802 
L 697.062852 31.770077 
L 698.116177 27.640739 
L 698.642839 26.208905 
L 699.169501 25.204089 
L 699.696163 24.628807 
L 700.222826 24.484497 
L 700.749488 24.771523 
L 701.27615 25.489165 
L 701.802812 26.635631 
L 702.329474 28.208052 
L 703.382799 32.613973 
L 704.436123 38.662876 
L 705.489448 46.294276 
L 706.542772 55.431864 
L 708.122759 71.758578 
L 709.702746 90.898359 
L 711.809395 120.042503 
L 714.442706 160.637334 
L 721.815977 277.813113 
L 723.922626 306.465476 
L 725.502613 325.142594 
L 727.082599 340.937587 
L 728.135924 349.688161 
L 729.189248 356.910988 
L 730.242573 362.533834 
L 731.295897 366.500467 
L 731.822559 367.849647 
L 732.349222 368.771214 
L 732.875884 369.262863 
L 733.402546 369.323364 
L 733.929208 368.952563 
L 734.455871 368.151388 
L 734.982533 366.921843 
L 735.509195 365.267003 
L 736.562519 360.699045 
L 737.615844 354.493189 
L 738.669168 346.71149 
L 739.722493 337.431758 
L 741.30248 320.910205 
L 742.882466 301.601491 
L 744.989115 272.27887 
L 747.622426 231.545718 
L 754.469035 122.205944 
L 756.575684 92.805179 
L 758.155671 73.422098 
L 759.735658 56.814526 
L 760.788982 47.471935 
L 761.842306 39.623702 
L 762.895631 33.348315 
L 763.948955 28.708531 
L 764.475618 27.017145 
L 765.00228 25.750756 
L 765.528942 24.912531 
L 766.055604 24.50457 
L 766.582267 24.527893 
L 767.108929 24.982442 
L 767.635591 25.867081 
L 768.162253 27.179598 
L 768.688915 28.91671 
L 769.74224 33.646288 
L 770.795564 40.008526 
L 771.848889 47.939805 
L 772.902213 57.360818 
L 774.4822 74.075669 
L 776.062187 93.551508 
L 778.168836 123.049854 
L 780.802147 163.917493 
L 787.648756 273.12622 
L 789.755405 302.352606 
L 791.335391 321.569444 
L 792.915378 337.984473 
L 793.968703 347.186206 
L 795.022027 354.885213 
L 796.075351 361.004499 
L 797.128676 365.482866 
L 797.655338 367.092054 
L 798.182 368.275525 
L 798.708663 369.030319 
L 799.235325 369.354545 
L 799.761987 369.247394 
L 800.288649 368.709131 
L 800.815312 367.741102 
L 801.341974 366.345729 
L 801.868636 364.526502 
L 802.92196 359.635734 
L 803.975285 353.1177 
L 805.028609 345.037577 
L 806.081934 335.476159 
L 807.661921 318.56957 
L 809.241907 298.928428 
L 811.348556 269.257126 
L 813.981867 228.258847 
L 820.828476 119.191495 
L 822.935125 90.142269 
L 824.515112 71.093504 
L 826.095099 54.872588 
L 827.148423 45.812596 
L 828.201747 38.263557 
L 829.255072 32.300966 
L 830.308396 27.984454 
L 830.835059 26.457624 
L 831.361721 25.357191 
L 831.888383 24.685908 
L 832.415045 24.445455 
L 832.415045 24.445455 
" clip-path="url(#p9759ebb4bd)" style="fill: none; stroke: #1f77b4; stroke-width: 1.5; stroke-linecap: square"/>
   </g>
   <g id="line2d_42">
    <path d="M 501.671165 24.529348 
L 502.092495 24.667238 
L 502.513824 25.080691 
L 503.040487 25.983966 
L 503.672481 27.631581 
L 504.409808 30.323276 
L 505.252468 34.397695 
L 506.20046 40.222462 
L 507.253784 48.179612 
L 508.412441 58.645437 
L 509.781763 73.157818 
L 511.36175 92.480696 
L 513.152401 117.189617 
L 515.469715 152.465797 
L 519.893678 224.243582 
L 522.948319 271.772274 
L 525.054968 301.129359 
L 526.740287 321.674382 
L 528.214941 337.052745 
L 529.478931 348.061464 
L 530.637587 356.246278 
L 531.585579 361.51405 
L 532.428239 365.079015 
L 533.165566 367.316527 
L 533.797561 368.570367 
L 534.324223 369.14342 
L 534.745553 369.29193 
L 535.166883 369.164658 
L 535.588212 368.761807 
L 536.114875 367.871735 
L 536.746869 366.239846 
L 537.484196 363.566269 
L 538.326856 359.51214 
L 539.274848 353.709519 
L 540.328172 345.775918 
L 541.486829 335.334439 
L 542.856151 320.848341 
L 544.436138 301.551889 
L 546.226789 276.867157 
L 548.544103 241.612128 
L 552.968066 169.840018 
L 556.022707 122.288377 
L 558.129356 92.903639 
L 559.814675 72.330355 
L 561.289329 56.923394 
L 562.553319 45.88773 
L 563.711975 37.676592 
L 564.659968 32.386355 
L 565.502627 28.800879 
L 566.239954 26.545107 
L 566.871949 25.275457 
L 567.398611 24.689159 
L 567.819941 24.530031 
L 568.241271 24.646684 
L 568.6626 25.038932 
L 569.189263 25.9158 
L 569.821257 27.531958 
L 570.558584 30.187412 
L 571.401244 34.221239 
L 572.349236 40.001702 
L 573.402561 47.911735 
L 574.561217 58.328842 
L 575.930539 72.788624 
L 577.510526 92.058604 
L 579.301178 116.719089 
L 581.618491 151.952882 
L 585.937122 222.014965 
L 588.991763 269.734829 
L 591.098411 299.324459 
L 592.783731 320.107872 
L 594.258385 335.727888 
L 595.522374 346.964567 
L 596.681031 355.372288 
L 597.629023 360.830422 
L 598.471683 364.569292 
L 599.20901 366.961686 
L 599.841004 368.349693 
L 600.367667 369.035179 
L 600.788996 369.273844 
L 601.210326 369.236756 
L 601.631656 368.923974 
L 602.052986 368.335998 
L 602.579648 367.215512 
L 603.211643 365.309342 
L 603.94897 362.320072 
L 604.791629 357.912714 
L 605.739621 351.72505 
L 606.792946 343.382595 
L 608.056935 331.448142 
L 609.426257 316.341533 
L 611.006244 296.424224 
L 612.902228 269.61636 
L 615.430206 230.379169 
L 622.803478 113.568934 
L 624.699462 87.900201 
L 626.384781 68.017379 
L 627.754103 54.266383 
L 629.018092 43.705262 
L 630.071416 36.582115 
L 631.019409 31.539295 
L 631.862068 28.179566 
L 632.599395 26.124632 
L 633.23139 25.028806 
L 633.65272 24.641775 
L 634.074049 24.530347 
L 634.495379 24.6947 
L 634.916709 25.134571 
L 635.443371 26.070744 
L 636.075366 27.757542 
L 636.812693 30.494368 
L 637.655353 34.619326 
L 638.603345 40.49924 
L 639.656669 48.515016 
L 640.815326 59.041439 
L 642.184648 73.61921 
L 643.764634 93.007798 
L 645.660619 119.312213 
L 647.977932 154.774852 
L 656.615193 290.37968 
L 658.405844 313.537251 
L 659.985831 331.197569 
L 661.355153 344.076215 
L 662.51381 353.041149 
L 663.567134 359.555735 
L 664.515126 364.030882 
L 665.252453 366.577747 
L 665.884448 368.099684 
L 666.41111 368.897487 
L 666.83244 369.226266 
L 667.25377 369.279369 
L 667.6751 369.056709 
L 668.09643 368.558643 
L 668.623092 367.550026 
L 669.255086 365.776972 
L 669.992414 362.940842 
L 670.835073 358.704737 
L 671.783065 352.703621 
L 672.83639 344.55909 
L 674.100379 332.846461 
L 675.469701 317.957371 
L 677.049687 298.25695 
L 678.945671 271.654654 
L 681.368318 234.272963 
L 689.268251 109.537456 
L 691.164235 84.345246 
L 692.744222 66.099127 
L 694.113544 52.649133 
L 695.377533 42.390208 
L 696.430857 35.533533 
L 697.37885 30.739575 
L 698.221509 27.606554 
L 698.853504 25.966673 
L 699.380166 25.069893 
L 699.906828 24.60264 
L 700.328158 24.538917 
L 700.749488 24.750962 
L 701.170818 25.238435 
L 701.69748 26.233867 
L 702.329474 27.991226 
L 703.066802 30.809292 
L 703.909461 35.025184 
L 704.857453 41.004267 
L 705.910778 49.125402 
L 707.174767 60.811781 
L 708.544089 75.675093 
L 710.124075 95.349758 
L 712.02006 121.927555 
L 714.442706 159.28927 
L 722.447972 285.537968 
L 724.343956 310.576644 
L 725.923942 328.667406 
L 727.293264 341.96545 
L 728.451921 351.313384 
L 729.505246 358.194403 
L 730.453238 363.011078 
L 731.295897 366.164777 
L 731.927892 367.820384 
L 732.454554 368.730366 
L 732.981216 369.210875 
L 733.402546 369.285217 
L 733.823876 369.083788 
L 734.245206 368.606909 
L 734.771868 367.624664 
L 735.403863 365.883004 
L 736.14119 363.08301 
L 736.983849 358.88734 
L 737.931841 352.930305 
L 738.985166 344.832585 
L 740.143823 334.221522 
L 741.513144 319.552501 
L 743.093131 300.072338 
L 744.989115 273.680163 
L 747.411761 236.471026 
L 755.627692 107.035779 
L 757.523676 82.152431 
L 759.103663 64.21832 
L 760.472985 51.073178 
L 761.631642 41.865051 
L 762.684966 35.11792 
L 763.632958 30.426134 
L 764.475618 27.386089 
L 765.107612 25.816899 
L 765.634275 24.97945 
L 766.055604 24.618849 
L 766.476934 24.533887 
L 766.898264 24.7247 
L 767.319594 25.190984 
L 767.846256 26.160039 
L 768.478251 27.885996 
L 769.215578 30.667912 
L 770.058237 34.84335 
L 771.006229 40.778323 
L 772.059554 48.852608 
L 773.218211 59.439474 
L 774.587532 74.08242 
L 776.167519 93.536432 
L 778.063503 119.903574 
L 780.486149 157.091983 
L 788.807413 288.026873 
L 790.703397 312.753112 
L 792.283383 330.529288 
L 793.652705 343.520587 
L 794.811362 352.588248 
L 795.864687 359.201007 
L 796.812679 363.767569 
L 797.550006 366.387047 
L 798.182 367.971981 
L 798.708663 368.822641 
L 799.129992 369.193848 
L 799.551322 369.28943 
L 799.972652 369.109233 
L 800.393982 368.653546 
L 800.920644 367.697682 
L 801.552639 365.987432 
L 802.289966 363.223601 
L 803.132625 359.068406 
L 804.080617 353.155509 
L 805.133942 345.104677 
L 806.292599 334.542034 
L 807.661921 319.925199 
L 809.241907 300.497383 
L 811.137891 274.155336 
L 813.455205 238.662324 
L 822.092466 103.108872 
L 823.883117 79.992464 
L 825.463104 62.375496 
L 826.832426 49.53897 
L 827.991083 40.612424 
L 829.044407 34.13451 
L 829.992399 29.693498 
L 830.729726 27.173741 
L 831.361721 25.675317 
L 831.888383 24.897239 
L 832.309713 24.58429 
L 832.62571 24.530492 
L 832.62571 24.530492 
" clip-path="url(#p9759ebb4bd)" style="fill: none; stroke: #ff7f0e; stroke-width: 1.5; stroke-linecap: square"/>
   </g>
   <g id="line2d_43">
    <path d="M 501.671165 24.529348 
L 502.039828 24.634922 
L 502.461158 25.013947 
L 502.935154 25.769015 
L 503.514483 27.162229 
L 504.199143 29.470187 
L 504.989137 33.011204 
L 505.884463 38.137072 
L 506.885121 45.220673 
L 508.043778 55.126923 
L 509.360433 68.456879 
L 510.835088 85.755107 
L 512.573073 108.906191 
L 514.679722 140.108244 
L 517.787029 189.88123 
L 522.421657 263.914019 
L 524.580972 294.843039 
L 526.371623 317.431816 
L 527.898944 333.975481 
L 529.215599 345.939581 
L 530.374256 354.549608 
L 531.374915 360.455277 
L 532.27024 364.49041 
L 533.007567 366.905897 
L 533.639562 368.313936 
L 534.166224 369.016229 
L 534.587554 369.268383 
L 534.956218 369.26283 
L 535.324881 369.046166 
L 535.746211 368.540398 
L 536.272873 367.522205 
L 536.904868 365.737769 
L 537.642195 362.888559 
L 538.484855 358.637848 
L 539.432847 352.620847 
L 540.486171 344.459494 
L 541.697494 333.257135 
L 543.066816 318.433394 
L 544.646803 298.798393 
L 546.542787 272.258515 
L 548.965433 234.928066 
L 557.076031 107.157279 
L 558.972015 82.259088 
L 560.552002 64.309882 
L 561.921324 51.149921 
L 563.132647 41.552772 
L 564.185971 34.871894 
L 565.081297 30.463953 
L 565.871291 27.571847 
L 566.555952 25.835046 
L 567.13528 24.929593 
L 567.609276 24.575557 
L 567.97794 24.541415 
L 568.346603 24.718406 
L 568.767933 25.178921 
L 569.294595 26.140784 
L 569.873924 27.691709 
L 570.558584 30.183951 
L 571.348578 33.933808 
L 572.243904 39.290029 
L 573.297228 47.045184 
L 574.455885 57.301938 
L 575.772541 70.99806 
L 577.299861 89.331183 
L 579.090513 113.669614 
L 581.302494 146.965758 
L 584.883797 204.846286 
L 588.623099 264.206293 
L 590.782414 295.104032 
L 592.573066 317.658508 
L 594.100386 334.167707 
L 595.417042 346.098829 
L 596.575699 354.677761 
L 597.576357 360.555314 
L 598.471683 364.564519 
L 599.20901 366.958243 
L 599.841004 368.34742 
L 600.367667 369.033899 
L 600.788996 369.273369 
L 601.15766 369.25671 
L 601.526324 369.028947 
L 601.947653 368.510521 
L 602.474316 367.476577 
L 603.10631 365.673391 
L 603.843637 362.802605 
L 604.686297 358.527757 
L 605.634289 352.484452 
L 606.687613 344.295175 
L 607.898937 333.062751 
L 609.268258 318.208134 
L 610.848245 298.54226 
L 612.744229 271.972981 
L 615.166875 234.618485 
L 623.224808 107.622655 
L 625.120792 82.666311 
L 626.700778 64.6585 
L 628.0701 51.441363 
L 629.281423 41.789501 
L 630.334748 35.05848 
L 631.28274 30.38167 
L 632.072733 27.51276 
L 632.757394 25.796335 
L 633.336722 24.908255 
L 633.810718 24.568484 
L 634.179382 24.545448 
L 634.548045 24.73354 
L 634.969375 25.206718 
L 635.496037 26.184346 
L 636.075366 27.752484 
L 636.760027 30.264828 
L 637.55002 34.037451 
L 638.445346 39.418761 
L 639.49867 47.202229 
L 640.657327 57.488306 
L 641.973983 71.214995 
L 643.501303 89.579306 
L 645.291955 113.94763 
L 647.503936 147.26956 
L 651.085239 205.16327 
L 654.824541 264.498339 
L 656.983856 295.364692 
L 658.774508 317.884791 
L 660.301829 334.359469 
L 661.618484 346.257571 
L 662.777141 354.80538 
L 663.777799 360.654797 
L 664.673125 364.63806 
L 665.410452 367.010012 
L 666.042447 368.380323 
L 666.569109 369.050986 
L 666.990439 369.277771 
L 667.359102 369.250006 
L 667.727766 369.011145 
L 668.201762 368.394357 
L 668.728424 367.301906 
L 669.360419 365.429103 
L 670.097746 362.478225 
L 670.940406 358.11381 
L 671.888398 351.972936 
L 672.994388 343.226251 
L 674.205711 331.801356 
L 675.627699 316.1283 
L 677.260352 295.477247 
L 679.209003 267.781252 
L 681.736981 228.397399 
L 688.899588 114.824762 
L 690.848238 88.342281 
L 692.480891 68.972836 
L 693.902879 54.587586 
L 695.166868 43.967851 
L 696.272859 36.475615 
L 697.220851 31.45763 
L 698.06351 28.120508 
L 698.748171 26.203344 
L 699.3275 25.144031 
L 699.801496 24.663606 
L 700.222826 24.529321 
L 700.591489 24.638047 
L 701.012819 25.02067 
L 701.486815 25.779773 
L 702.066143 27.177888 
L 702.750804 29.491575 
L 703.540798 33.03909 
L 704.436123 38.17213 
L 705.436782 45.263444 
L 706.595439 55.178141 
L 707.912094 68.516937 
L 709.386748 85.823948 
L 711.124734 108.983642 
L 713.231383 140.193294 
L 716.33869 189.971243 
L 720.973317 263.997036 
L 723.132633 294.917194 
L 724.923284 317.496247 
L 726.450605 334.030137 
L 727.76726 345.984882 
L 728.925917 354.586087 
L 729.926575 360.483777 
L 730.821901 364.511552 
L 731.559228 366.920861 
L 732.191223 368.323547 
L 732.717885 369.021351 
L 733.139215 369.269904 
L 733.507879 369.261198 
L 733.876542 369.041383 
L 734.297872 368.532021 
L 734.824534 367.509356 
L 735.456529 365.719595 
L 736.193856 362.864259 
L 737.036515 358.606692 
L 737.984507 352.58222 
L 739.037832 344.412934 
L 740.249155 333.202033 
L 741.618477 318.369518 
L 743.198464 298.72574 
L 745.094448 272.177498 
L 747.517094 234.8402 
L 755.575026 107.817099 
L 757.47101 82.836559 
L 759.050997 64.804343 
L 760.420318 51.563384 
L 761.631642 41.888719 
L 762.684966 35.136792 
L 763.632958 30.440492 
L 764.422951 27.554969 
L 765.107612 25.823951 
L 765.686941 24.92343 
L 766.160937 24.573444 
L 766.5296 24.542455 
L 766.898264 24.722597 
L 767.319594 25.186707 
L 767.846256 26.153047 
L 768.425584 27.70886 
L 769.110245 30.20681 
L 769.900239 33.963133 
L 770.795564 39.326479 
L 771.848889 47.089677 
L 773.007546 57.354762 
L 774.324201 71.05957 
L 775.851522 89.401558 
L 777.642173 113.748491 
L 779.854155 147.051976 
L 783.435458 204.936281 
L 787.17476 264.289245 
L 789.334075 295.178092 
L 791.124726 317.722823 
L 792.652047 334.222232 
L 793.968703 346.143986 
L 795.127359 354.714088 
L 796.128018 360.583657 
L 797.023343 364.5855 
L 797.760671 366.973044 
L 798.392665 368.356865 
L 798.919327 369.038855 
L 799.340657 369.274724 
L 799.709321 369.254912 
L 800.077984 369.023998 
L 800.499314 368.501979 
L 801.025976 367.463563 
L 801.657971 365.655055 
L 802.395298 362.778145 
L 803.237958 358.496446 
L 804.18595 352.445675 
L 805.239274 344.248474 
L 806.450597 333.007518 
L 807.819919 318.144141 
L 809.399906 298.469509 
L 811.29589 271.891892 
L 813.718536 234.530583 
L 821.723802 108.283737 
L 823.619786 83.245397 
L 825.199773 65.154831 
L 826.569095 51.856883 
L 827.780418 42.127642 
L 828.833742 35.325666 
L 829.781734 30.582694 
L 830.571728 27.657382 
L 831.256388 25.891406 
L 831.835717 24.961077 
L 832.309713 24.586613 
L 832.573044 24.529318 
L 832.573044 24.529318 
" clip-path="url(#p9759ebb4bd)" style="fill: none; stroke: #2ca02c; stroke-width: 1.5; stroke-linecap: square"/>
   </g>
   <g id="line2d_44">
    <path d="M 501.671165 24.529348 
L 502.197827 24.74478 
L 502.724489 25.390537 
L 503.251151 26.465005 
L 503.777814 27.965498 
L 504.831138 32.228505 
L 505.884463 38.136961 
L 506.937787 45.631832 
L 507.991112 54.638232 
L 509.571098 70.781185 
L 511.151085 89.756736 
L 513.257734 118.719191 
L 515.891045 159.158037 
L 523.264316 276.391045 
L 525.370965 305.196131 
L 526.950952 324.023639 
L 528.530939 339.996464 
L 529.584263 348.879045 
L 530.637587 356.243208 
L 531.690912 362.015374 
L 532.744236 366.137868 
L 533.270899 367.56696 
L 533.797561 368.5695 
L 534.324223 369.142983 
L 534.850885 369.285975 
L 535.377548 368.998118 
L 535.90421 368.280133 
L 536.430872 367.133813 
L 536.957534 365.562024 
L 538.010859 361.158807 
L 539.064183 355.114477 
L 540.117508 347.489427 
L 541.170832 338.359845 
L 542.750819 322.047905 
L 544.330805 302.925653 
L 546.437454 273.807875 
L 549.070765 233.247974 
L 556.444037 116.147167 
L 558.550686 87.501487 
L 560.130672 68.823352 
L 561.710659 53.021783 
L 562.763983 44.263649 
L 563.817308 37.030715 
L 564.870632 31.395248 
L 565.923957 27.413557 
L 566.450619 26.055968 
L 566.977281 25.125426 
L 567.503944 24.624258 
L 568.030606 24.553716 
L 568.557268 24.913978 
L 569.08393 25.704141 
L 569.610592 26.922232 
L 570.137255 28.565205 
L 571.190579 33.108321 
L 572.243904 39.288097 
L 573.297228 47.042786 
L 574.350553 56.294906 
L 575.930539 72.774679 
L 577.510526 92.042281 
L 579.617175 121.313323 
L 582.250486 161.991413 
L 589.623757 278.951743 
L 591.730406 307.435993 
L 593.310393 325.963434 
L 594.89038 341.592629 
L 595.943704 350.225697 
L 596.997028 357.326892 
L 598.050353 362.825261 
L 599.103677 366.665867 
L 599.63034 367.951858 
L 600.157002 368.810335 
L 600.683664 369.239153 
L 601.210326 369.23724 
L 601.736989 368.804599 
L 602.263651 367.942314 
L 602.790313 366.652539 
L 603.316975 364.938497 
L 604.3703 360.255802 
L 605.423624 353.941017 
L 606.476949 346.057237 
L 607.530273 336.683234 
L 609.11026 320.036792 
L 610.690246 300.625203 
L 612.796895 271.202965 
L 615.430206 230.409561 
L 622.276815 121.244533 
L 624.383464 91.981535 
L 625.963451 72.721577 
L 627.543438 56.250639 
L 628.596762 47.004976 
L 629.650087 39.257121 
L 630.703411 33.084489 
L 631.756736 28.548754 
L 632.283398 26.909538 
L 632.81006 25.695236 
L 633.336722 24.908884 
L 633.863385 24.552446 
L 634.390047 24.626815 
L 634.916709 25.131803 
L 635.443371 26.06615 
L 635.970033 27.427519 
L 636.496696 29.212507 
L 637.55002 34.03445 
L 638.603345 40.483798 
L 639.656669 48.496112 
L 640.709994 57.991335 
L 642.28998 74.80327 
L 643.869967 94.357475 
L 645.976616 123.928828 
L 648.609927 164.834662 
L 655.456536 273.87638 
L 657.563185 302.986005 
L 659.143172 322.100542 
L 660.723158 338.403585 
L 661.776483 347.526676 
L 662.829807 355.144863 
L 663.883132 361.182027 
L 664.936456 365.577846 
L 665.463118 367.145871 
L 665.989781 368.288398 
L 666.516443 369.00257 
L 667.043105 369.286601 
L 667.569767 369.139783 
L 668.09643 368.562482 
L 668.623092 367.55614 
L 669.149754 366.123274 
L 669.676416 364.267465 
L 670.729741 359.306616 
L 671.783065 352.723161 
L 672.83639 344.582879 
L 673.889714 334.967106 
L 675.469701 317.990867 
L 677.049687 298.295429 
L 679.156336 268.57705 
L 681.789647 227.561677 
L 688.109594 126.425221 
L 690.216243 96.577128 
L 691.79623 76.756555 
L 693.376217 59.634386 
L 694.429541 49.911374 
L 695.482865 41.65713 
L 696.53619 34.954129 
L 697.589514 29.869344 
L 698.116177 27.950307 
L 698.642839 26.453582 
L 699.169501 25.382911 
L 699.696163 24.740971 
L 700.222826 24.529365 
L 700.749488 24.748623 
L 701.27615 25.398196 
L 701.802812 26.476461 
L 702.329474 27.980723 
L 703.382799 32.251143 
L 704.436123 38.166787 
L 705.489448 45.668548 
L 706.542772 54.68147 
L 708.122759 70.833378 
L 709.702746 89.816711 
L 711.809395 118.787422 
L 714.442706 159.232733 
L 721.815977 276.458965 
L 723.922626 305.255682 
L 725.502613 324.075333 
L 727.082599 340.039141 
L 728.135924 348.915164 
L 729.189248 356.272409 
L 730.242573 362.037364 
L 731.295897 366.152428 
L 731.822559 367.577746 
L 732.349222 368.576485 
L 732.875884 369.146149 
L 733.402546 369.285314 
L 733.929208 368.993633 
L 734.455871 368.271833 
L 734.982533 367.12172 
L 735.509195 365.546169 
L 736.562519 361.135554 
L 737.615844 355.084059 
L 738.669168 347.452149 
L 739.722493 338.316078 
L 741.30248 321.995244 
L 742.882466 302.86528 
L 744.989115 273.739356 
L 747.622426 233.17314 
L 754.995697 116.079545 
L 757.102346 87.442342 
L 758.682333 68.772134 
L 760.26232 52.979642 
L 761.315644 44.228099 
L 762.368969 37.00211 
L 763.422293 31.373875 
L 764.475618 27.399629 
L 765.00228 26.045819 
L 765.528942 25.119082 
L 766.055604 24.621735 
L 766.582267 24.55502 
L 767.108929 24.919105 
L 767.635591 25.71308 
L 768.162253 26.934959 
L 768.688915 28.581689 
L 769.74224 33.132186 
L 770.795564 39.319104 
L 771.848889 47.080626 
L 772.902213 56.3392 
L 774.4822 72.827806 
L 776.062187 92.103047 
L 778.168836 121.382127 
L 780.802147 162.066381 
L 788.175418 279.01906 
L 790.282067 307.494727 
L 791.862054 326.014172 
L 793.44204 341.634232 
L 794.495365 350.260676 
L 795.548689 357.354898 
L 796.602014 362.846015 
L 797.655338 366.679162 
L 798.182 367.961368 
L 798.708663 368.816037 
L 799.235325 369.241033 
L 799.761987 369.235292 
L 800.288649 368.79883 
L 800.815312 367.932736 
L 801.341974 366.639177 
L 801.868636 364.921385 
L 802.92196 360.231327 
L 803.975285 353.909423 
L 805.028609 346.018839 
L 806.081934 336.638417 
L 807.661921 319.983203 
L 809.241907 300.564047 
L 811.348556 271.133881 
L 813.981867 230.334466 
L 820.828476 121.175759 
L 822.935125 91.92081 
L 824.515112 72.6685 
L 826.095099 56.206401 
L 827.148423 46.967196 
L 828.201747 39.226176 
L 829.255072 33.060688 
L 830.308396 28.532336 
L 830.835059 26.896877 
L 831.361721 25.686365 
L 831.888383 24.903824 
L 832.415045 24.55121 
L 832.415045 24.55121 
" clip-path="url(#p9759ebb4bd)" style="fill: none; stroke-dasharray: 5.55,2.4; stroke-dashoffset: 0; stroke: #000000; stroke-width: 1.5"/>
   </g>
   <g id="patch_9">
    <path d="M 485.123438 386.6 
L 485.123438 7.2 
" style="fill: none; stroke: #000000; stroke-width: 0.8; stroke-linejoin: miter; stroke-linecap: square"/>
   </g>
   <g id="patch_10">
    <path d="M 849.173437 386.6 
L 849.173437 7.2 
" style="fill: none; stroke: #000000; stroke-width: 0.8; stroke-linejoin: miter; stroke-linecap: square"/>
   </g>
   <g id="patch_11">
    <path d="M 485.123438 386.6 
L 849.173437 386.6 
" style="fill: none; stroke: #000000; stroke-width: 0.8; stroke-linejoin: miter; stroke-linecap: square"/>
   </g>
   <g id="patch_12">
    <path d="M 485.123438 7.2 
L 849.173437 7.2 
" style="fill: none; stroke: #000000; stroke-width: 0.8; stroke-linejoin: miter; stroke-linecap: square"/>
   </g>
   <g id="legend_2">
    <g id="patch_13">
     <path d="M 760.471875 227.75625 
L 842.173437 227.75625 
Q 844.173437 227.75625 844.173437 225.75625 
L 844.173437 168.04375 
Q 844.173437 166.04375 842.173437 166.04375 
L 760.471875 166.04375 
Q 758.471875 166.04375 758.471875 168.04375 
L 758.471875 225.75625 
Q 758.471875 227.75625 760.471875 227.75625 
z
" style="fill: #ffffff; opacity: 0.8; stroke: #cccccc; stroke-linejoin: miter"/>
    </g>
    <g id="line2d_45">
     <path d="M 762.471875 174.142187 
L 772.471875 174.142187 
L 782.471875 174.142187 
" style="fill: none; stroke: #1f77b4; stroke-width: 1.5; stroke-linecap: square"/>
    </g>
    <g id="text_41">
     <!-- h = 0.05 -->
     <g transform="translate(790.471875 177.642187)scale(0.1 -0.1)">
      <use xlink:href="#DejaVuSans-68"/>
      <use xlink:href="#DejaVuSans-20" x="63.378906"/>
      <use xlink:href="#DejaVuSans-3d" x="95.166016"/>
      <use xlink:href="#DejaVuSans-20" x="178.955078"/>
      <use xlink:href="#DejaVuSans-30" x="210.742188"/>
      <use xlink:href="#DejaVuSans-2e" x="274.365234"/>
      <use xlink:href="#DejaVuSans-30" x="306.152344"/>
      <use xlink:href="#DejaVuSans-35" x="369.775391"/>
     </g>
    </g>
    <g id="line2d_46">
     <path d="M 762.471875 188.820312 
L 772.471875 188.820312 
L 782.471875 188.820312 
" style="fill: none; stroke: #ff7f0e; stroke-width: 1.5; stroke-linecap: square"/>
    </g>
    <g id="text_42">
     <!-- h = 0.01 -->
     <g transform="translate(790.471875 192.320312)scale(0.1 -0.1)">
      <use xlink:href="#DejaVuSans-68"/>
      <use xlink:href="#DejaVuSans-20" x="63.378906"/>
      <use xlink:href="#DejaVuSans-3d" x="95.166016"/>
      <use xlink:href="#DejaVuSans-20" x="178.955078"/>
      <use xlink:href="#DejaVuSans-30" x="210.742188"/>
      <use xlink:href="#DejaVuSans-2e" x="274.365234"/>
      <use xlink:href="#DejaVuSans-30" x="306.152344"/>
      <use xlink:href="#DejaVuSans-31" x="369.775391"/>
     </g>
    </g>
    <g id="line2d_47">
     <path d="M 762.471875 203.498437 
L 772.471875 203.498437 
L 782.471875 203.498437 
" style="fill: none; stroke: #2ca02c; stroke-width: 1.5; stroke-linecap: square"/>
    </g>
    <g id="text_43">
     <!-- h = 0.005 -->
     <g transform="translate(790.471875 206.998437)scale(0.1 -0.1)">
      <use xlink:href="#DejaVuSans-68"/>
      <use xlink:href="#DejaVuSans-20" x="63.378906"/>
      <use xlink:href="#DejaVuSans-3d" x="95.166016"/>
      <use xlink:href="#DejaVuSans-20" x="178.955078"/>
      <use xlink:href="#DejaVuSans-30" x="210.742188"/>
      <use xlink:href="#DejaVuSans-2e" x="274.365234"/>
      <use xlink:href="#DejaVuSans-30" x="306.152344"/>
      <use xlink:href="#DejaVuSans-30" x="369.775391"/>
      <use xlink:href="#DejaVuSans-35" x="433.398438"/>
     </g>
    </g>
    <g id="line2d_48">
     <path d="M 762.471875 218.176562 
L 772.471875 218.176562 
L 782.471875 218.176562 
" style="fill: none; stroke-dasharray: 5.55,2.4; stroke-dashoffset: 0; stroke: #000000; stroke-width: 1.5"/>
    </g>
    <g id="text_44">
     <!-- a -->
     <g transform="translate(790.471875 221.676562)scale(0.1 -0.1)">
      <use xlink:href="#DejaVuSans-61"/>
     </g>
    </g>
   </g>
  </g>
 </g>
 <defs>
  <clipPath id="pf1f2f8545e">
   <rect x="58.523438" y="7.2" width="364.05" height="379.4"/>
  </clipPath>
  <clipPath id="p9759ebb4bd">
   <rect x="485.123438" y="7.2" width="364.05" height="379.4"/>
  </clipPath>
 </defs>
</svg>
