<?xml version="1.0" encoding="utf-8" standalone="no"?>
<!DOCTYPE svg PUBLIC "-//W3C//DTD SVG 1.1//EN"
  "http://www.w3.org/Graphics/SVG/1.1/DTD/svg11.dtd">
<svg xmlns:xlink="http://www.w3.org/1999/xlink" width="392.14375pt" height="262.19625pt" viewBox="0 0 392.14375 262.19625" xmlns="http://www.w3.org/2000/svg" version="1.1">
 <metadata>
  <rdf:RDF xmlns:dc="http://purl.org/dc/elements/1.1/" xmlns:cc="http://creativecommons.org/ns#" xmlns:rdf="http://www.w3.org/1999/02/22-rdf-syntax-ns#">
   <cc:Work>
    <dc:type rdf:resource="http://purl.org/dc/dcmitype/StillImage"/>
    <dc:date>2024-09-17T15:25:38.213029</dc:date>
    <dc:format>image/svg+xml</dc:format>
    <dc:creator>
     <cc:Agent>
      <dc:title>Matplotlib v3.5.2, https://matplotlib.org/</dc:title>
     </cc:Agent>
    </dc:creator>
   </cc:Work>
  </rdf:RDF>
 </metadata>
 <defs>
  <style type="text/css">*{stroke-linejoin: round; stroke-linecap: butt}</style>
 </defs>
 <g id="figure_1">
  <g id="patch_1">
   <path d="M 0 262.19625 
L 392.14375 262.19625 
L 392.14375 0 
L 0 0 
z
" style="fill: #ffffff"/>
  </g>
  <g id="axes_1">
   <g id="patch_2">
    <path d="M 50.14375 224.64 
L 384.94375 224.64 
L 384.94375 7.2 
L 50.14375 7.2 
z
" style="fill: #ffffff"/>
   </g>
   <g id="matplotlib.axis_1">
    <g id="xtick_1">
     <g id="line2d_1">
      <defs>
       <path id="m7aa1343a85" d="M 0 0 
L 0 3.5 
" style="stroke: #000000; stroke-width: 0.8"/>
      </defs>
      <g>
       <use xlink:href="#m7aa1343a85" x="65.361932" y="224.64" style="stroke: #000000; stroke-width: 0.8"/>
      </g>
     </g>
     <g id="text_1">
      <!-- 0 -->
      <g transform="translate(62.180682 239.238437)scale(0.1 -0.1)">
       <defs>
        <path id="DejaVuSans-30" d="M 2034 4250 
Q 1547 4250 1301 3770 
Q 1056 3291 1056 2328 
Q 1056 1369 1301 889 
Q 1547 409 2034 409 
Q 2525 409 2770 889 
Q 3016 1369 3016 2328 
Q 3016 3291 2770 3770 
Q 2525 4250 2034 4250 
z
M 2034 4750 
Q 2819 4750 3233 4129 
Q 3647 3509 3647 2328 
Q 3647 1150 3233 529 
Q 2819 -91 2034 -91 
Q 1250 -91 836 529 
Q 422 1150 422 2328 
Q 422 3509 836 4129 
Q 1250 4750 2034 4750 
z
" transform="scale(0.015625)"/>
       </defs>
       <use xlink:href="#DejaVuSans-30"/>
      </g>
     </g>
    </g>
    <g id="xtick_2">
     <g id="line2d_2">
      <g>
       <use xlink:href="#m7aa1343a85" x="120.202227" y="224.64" style="stroke: #000000; stroke-width: 0.8"/>
      </g>
     </g>
     <g id="text_2">
      <!-- 2 -->
      <g transform="translate(117.020977 239.238437)scale(0.1 -0.1)">
       <defs>
        <path id="DejaVuSans-32" d="M 1228 531 
L 3431 531 
L 3431 0 
L 469 0 
L 469 531 
Q 828 903 1448 1529 
Q 2069 2156 2228 2338 
Q 2531 2678 2651 2914 
Q 2772 3150 2772 3378 
Q 2772 3750 2511 3984 
Q 2250 4219 1831 4219 
Q 1534 4219 1204 4116 
Q 875 4013 500 3803 
L 500 4441 
Q 881 4594 1212 4672 
Q 1544 4750 1819 4750 
Q 2544 4750 2975 4387 
Q 3406 4025 3406 3419 
Q 3406 3131 3298 2873 
Q 3191 2616 2906 2266 
Q 2828 2175 2409 1742 
Q 1991 1309 1228 531 
z
" transform="scale(0.015625)"/>
       </defs>
       <use xlink:href="#DejaVuSans-32"/>
      </g>
     </g>
    </g>
    <g id="xtick_3">
     <g id="line2d_3">
      <g>
       <use xlink:href="#m7aa1343a85" x="175.042521" y="224.64" style="stroke: #000000; stroke-width: 0.8"/>
      </g>
     </g>
     <g id="text_3">
      <!-- 4 -->
      <g transform="translate(171.861271 239.238437)scale(0.1 -0.1)">
       <defs>
        <path id="DejaVuSans-34" d="M 2419 4116 
L 825 1625 
L 2419 1625 
L 2419 4116 
z
M 2253 4666 
L 3047 4666 
L 3047 1625 
L 3713 1625 
L 3713 1100 
L 3047 1100 
L 3047 0 
L 2419 0 
L 2419 1100 
L 313 1100 
L 313 1709 
L 2253 4666 
z
" transform="scale(0.015625)"/>
       </defs>
       <use xlink:href="#DejaVuSans-34"/>
      </g>
     </g>
    </g>
    <g id="xtick_4">
     <g id="line2d_4">
      <g>
       <use xlink:href="#m7aa1343a85" x="229.882816" y="224.64" style="stroke: #000000; stroke-width: 0.8"/>
      </g>
     </g>
     <g id="text_4">
      <!-- 6 -->
      <g transform="translate(226.701566 239.238437)scale(0.1 -0.1)">
       <defs>
        <path id="DejaVuSans-36" d="M 2113 2584 
Q 1688 2584 1439 2293 
Q 1191 2003 1191 1497 
Q 1191 994 1439 701 
Q 1688 409 2113 409 
Q 2538 409 2786 701 
Q 3034 994 3034 1497 
Q 3034 2003 2786 2293 
Q 2538 2584 2113 2584 
z
M 3366 4563 
L 3366 3988 
Q 3128 4100 2886 4159 
Q 2644 4219 2406 4219 
Q 1781 4219 1451 3797 
Q 1122 3375 1075 2522 
Q 1259 2794 1537 2939 
Q 1816 3084 2150 3084 
Q 2853 3084 3261 2657 
Q 3669 2231 3669 1497 
Q 3669 778 3244 343 
Q 2819 -91 2113 -91 
Q 1303 -91 875 529 
Q 447 1150 447 2328 
Q 447 3434 972 4092 
Q 1497 4750 2381 4750 
Q 2619 4750 2861 4703 
Q 3103 4656 3366 4563 
z
" transform="scale(0.015625)"/>
       </defs>
       <use xlink:href="#DejaVuSans-36"/>
      </g>
     </g>
    </g>
    <g id="xtick_5">
     <g id="line2d_5">
      <g>
       <use xlink:href="#m7aa1343a85" x="284.723111" y="224.64" style="stroke: #000000; stroke-width: 0.8"/>
      </g>
     </g>
     <g id="text_5">
      <!-- 8 -->
      <g transform="translate(281.541861 239.238437)scale(0.1 -0.1)">
       <defs>
        <path id="DejaVuSans-38" d="M 2034 2216 
Q 1584 2216 1326 1975 
Q 1069 1734 1069 1313 
Q 1069 891 1326 650 
Q 1584 409 2034 409 
Q 2484 409 2743 651 
Q 3003 894 3003 1313 
Q 3003 1734 2745 1975 
Q 2488 2216 2034 2216 
z
M 1403 2484 
Q 997 2584 770 2862 
Q 544 3141 544 3541 
Q 544 4100 942 4425 
Q 1341 4750 2034 4750 
Q 2731 4750 3128 4425 
Q 3525 4100 3525 3541 
Q 3525 3141 3298 2862 
Q 3072 2584 2669 2484 
Q 3125 2378 3379 2068 
Q 3634 1759 3634 1313 
Q 3634 634 3220 271 
Q 2806 -91 2034 -91 
Q 1263 -91 848 271 
Q 434 634 434 1313 
Q 434 1759 690 2068 
Q 947 2378 1403 2484 
z
M 1172 3481 
Q 1172 3119 1398 2916 
Q 1625 2713 2034 2713 
Q 2441 2713 2670 2916 
Q 2900 3119 2900 3481 
Q 2900 3844 2670 4047 
Q 2441 4250 2034 4250 
Q 1625 4250 1398 4047 
Q 1172 3844 1172 3481 
z
" transform="scale(0.015625)"/>
       </defs>
       <use xlink:href="#DejaVuSans-38"/>
      </g>
     </g>
    </g>
    <g id="xtick_6">
     <g id="line2d_6">
      <g>
       <use xlink:href="#m7aa1343a85" x="339.563406" y="224.64" style="stroke: #000000; stroke-width: 0.8"/>
      </g>
     </g>
     <g id="text_6">
      <!-- 10 -->
      <g transform="translate(333.200906 239.238437)scale(0.1 -0.1)">
       <defs>
        <path id="DejaVuSans-31" d="M 794 531 
L 1825 531 
L 1825 4091 
L 703 3866 
L 703 4441 
L 1819 4666 
L 2450 4666 
L 2450 531 
L 3481 531 
L 3481 0 
L 794 0 
L 794 531 
z
" transform="scale(0.015625)"/>
       </defs>
       <use xlink:href="#DejaVuSans-31"/>
       <use xlink:href="#DejaVuSans-30" x="63.623047"/>
      </g>
     </g>
    </g>
    <g id="text_7">
     <!-- Time (s) -->
     <g transform="translate(197.214844 252.916562)scale(0.1 -0.1)">
      <defs>
       <path id="DejaVuSans-54" d="M -19 4666 
L 3928 4666 
L 3928 4134 
L 2272 4134 
L 2272 0 
L 1638 0 
L 1638 4134 
L -19 4134 
L -19 4666 
z
" transform="scale(0.015625)"/>
       <path id="DejaVuSans-69" d="M 603 3500 
L 1178 3500 
L 1178 0 
L 603 0 
L 603 3500 
z
M 603 4863 
L 1178 4863 
L 1178 4134 
L 603 4134 
L 603 4863 
z
" transform="scale(0.015625)"/>
       <path id="DejaVuSans-6d" d="M 3328 2828 
Q 3544 3216 3844 3400 
Q 4144 3584 4550 3584 
Q 5097 3584 5394 3201 
Q 5691 2819 5691 2113 
L 5691 0 
L 5113 0 
L 5113 2094 
Q 5113 2597 4934 2840 
Q 4756 3084 4391 3084 
Q 3944 3084 3684 2787 
Q 3425 2491 3425 1978 
L 3425 0 
L 2847 0 
L 2847 2094 
Q 2847 2600 2669 2842 
Q 2491 3084 2119 3084 
Q 1678 3084 1418 2786 
Q 1159 2488 1159 1978 
L 1159 0 
L 581 0 
L 581 3500 
L 1159 3500 
L 1159 2956 
Q 1356 3278 1631 3431 
Q 1906 3584 2284 3584 
Q 2666 3584 2933 3390 
Q 3200 3197 3328 2828 
z
" transform="scale(0.015625)"/>
       <path id="DejaVuSans-65" d="M 3597 1894 
L 3597 1613 
L 953 1613 
Q 991 1019 1311 708 
Q 1631 397 2203 397 
Q 2534 397 2845 478 
Q 3156 559 3463 722 
L 3463 178 
Q 3153 47 2828 -22 
Q 2503 -91 2169 -91 
Q 1331 -91 842 396 
Q 353 884 353 1716 
Q 353 2575 817 3079 
Q 1281 3584 2069 3584 
Q 2775 3584 3186 3129 
Q 3597 2675 3597 1894 
z
M 3022 2063 
Q 3016 2534 2758 2815 
Q 2500 3097 2075 3097 
Q 1594 3097 1305 2825 
Q 1016 2553 972 2059 
L 3022 2063 
z
" transform="scale(0.015625)"/>
       <path id="DejaVuSans-20" transform="scale(0.015625)"/>
       <path id="DejaVuSans-28" d="M 1984 4856 
Q 1566 4138 1362 3434 
Q 1159 2731 1159 2009 
Q 1159 1288 1364 580 
Q 1569 -128 1984 -844 
L 1484 -844 
Q 1016 -109 783 600 
Q 550 1309 550 2009 
Q 550 2706 781 3412 
Q 1013 4119 1484 4856 
L 1984 4856 
z
" transform="scale(0.015625)"/>
       <path id="DejaVuSans-73" d="M 2834 3397 
L 2834 2853 
Q 2591 2978 2328 3040 
Q 2066 3103 1784 3103 
Q 1356 3103 1142 2972 
Q 928 2841 928 2578 
Q 928 2378 1081 2264 
Q 1234 2150 1697 2047 
L 1894 2003 
Q 2506 1872 2764 1633 
Q 3022 1394 3022 966 
Q 3022 478 2636 193 
Q 2250 -91 1575 -91 
Q 1294 -91 989 -36 
Q 684 19 347 128 
L 347 722 
Q 666 556 975 473 
Q 1284 391 1588 391 
Q 1994 391 2212 530 
Q 2431 669 2431 922 
Q 2431 1156 2273 1281 
Q 2116 1406 1581 1522 
L 1381 1569 
Q 847 1681 609 1914 
Q 372 2147 372 2553 
Q 372 3047 722 3315 
Q 1072 3584 1716 3584 
Q 2034 3584 2315 3537 
Q 2597 3491 2834 3397 
z
" transform="scale(0.015625)"/>
       <path id="DejaVuSans-29" d="M 513 4856 
L 1013 4856 
Q 1481 4119 1714 3412 
Q 1947 2706 1947 2009 
Q 1947 1309 1714 600 
Q 1481 -109 1013 -844 
L 513 -844 
Q 928 -128 1133 580 
Q 1338 1288 1338 2009 
Q 1338 2731 1133 3434 
Q 928 4138 513 4856 
z
" transform="scale(0.015625)"/>
      </defs>
      <use xlink:href="#DejaVuSans-54"/>
      <use xlink:href="#DejaVuSans-69" x="57.958984"/>
      <use xlink:href="#DejaVuSans-6d" x="85.742188"/>
      <use xlink:href="#DejaVuSans-65" x="183.154297"/>
      <use xlink:href="#DejaVuSans-20" x="244.677734"/>
      <use xlink:href="#DejaVuSans-28" x="276.464844"/>
      <use xlink:href="#DejaVuSans-73" x="315.478516"/>
      <use xlink:href="#DejaVuSans-29" x="367.578125"/>
     </g>
    </g>
   </g>
   <g id="matplotlib.axis_2">
    <g id="ytick_1">
     <g id="line2d_7">
      <defs>
       <path id="m9eacf369ba" d="M 0 0 
L -3.5 0 
" style="stroke: #000000; stroke-width: 0.8"/>
      </defs>
      <g>
       <use xlink:href="#m9eacf369ba" x="50.14375" y="214.756364" style="stroke: #000000; stroke-width: 0.8"/>
      </g>
     </g>
     <g id="text_8">
      <!-- 0.00 -->
      <g transform="translate(20.878125 218.555582)scale(0.1 -0.1)">
       <defs>
        <path id="DejaVuSans-2e" d="M 684 794 
L 1344 794 
L 1344 0 
L 684 0 
L 684 794 
z
" transform="scale(0.015625)"/>
       </defs>
       <use xlink:href="#DejaVuSans-30"/>
       <use xlink:href="#DejaVuSans-2e" x="63.623047"/>
       <use xlink:href="#DejaVuSans-30" x="95.410156"/>
       <use xlink:href="#DejaVuSans-30" x="159.033203"/>
      </g>
     </g>
    </g>
    <g id="ytick_2">
     <g id="line2d_8">
      <g>
       <use xlink:href="#m9eacf369ba" x="50.14375" y="172.669318" style="stroke: #000000; stroke-width: 0.8"/>
      </g>
     </g>
     <g id="text_9">
      <!-- 0.02 -->
      <g transform="translate(20.878125 176.468537)scale(0.1 -0.1)">
       <use xlink:href="#DejaVuSans-30"/>
       <use xlink:href="#DejaVuSans-2e" x="63.623047"/>
       <use xlink:href="#DejaVuSans-30" x="95.410156"/>
       <use xlink:href="#DejaVuSans-32" x="159.033203"/>
      </g>
     </g>
    </g>
    <g id="ytick_3">
     <g id="line2d_9">
      <g>
       <use xlink:href="#m9eacf369ba" x="50.14375" y="130.582272" style="stroke: #000000; stroke-width: 0.8"/>
      </g>
     </g>
     <g id="text_10">
      <!-- 0.04 -->
      <g transform="translate(20.878125 134.381491)scale(0.1 -0.1)">
       <use xlink:href="#DejaVuSans-30"/>
       <use xlink:href="#DejaVuSans-2e" x="63.623047"/>
       <use xlink:href="#DejaVuSans-30" x="95.410156"/>
       <use xlink:href="#DejaVuSans-34" x="159.033203"/>
      </g>
     </g>
    </g>
    <g id="ytick_4">
     <g id="line2d_10">
      <g>
       <use xlink:href="#m9eacf369ba" x="50.14375" y="88.495226" style="stroke: #000000; stroke-width: 0.8"/>
      </g>
     </g>
     <g id="text_11">
      <!-- 0.06 -->
      <g transform="translate(20.878125 92.294445)scale(0.1 -0.1)">
       <use xlink:href="#DejaVuSans-30"/>
       <use xlink:href="#DejaVuSans-2e" x="63.623047"/>
       <use xlink:href="#DejaVuSans-30" x="95.410156"/>
       <use xlink:href="#DejaVuSans-36" x="159.033203"/>
      </g>
     </g>
    </g>
    <g id="ytick_5">
     <g id="line2d_11">
      <g>
       <use xlink:href="#m9eacf369ba" x="50.14375" y="46.40818" style="stroke: #000000; stroke-width: 0.8"/>
      </g>
     </g>
     <g id="text_12">
      <!-- 0.08 -->
      <g transform="translate(20.878125 50.207399)scale(0.1 -0.1)">
       <use xlink:href="#DejaVuSans-30"/>
       <use xlink:href="#DejaVuSans-2e" x="63.623047"/>
       <use xlink:href="#DejaVuSans-30" x="95.410156"/>
       <use xlink:href="#DejaVuSans-38" x="159.033203"/>
      </g>
     </g>
    </g>
    <g id="text_13">
     <!-- Number of Nuclei -->
     <g transform="translate(14.798438 159.516875)rotate(-90)scale(0.1 -0.1)">
      <defs>
       <path id="DejaVuSans-4e" d="M 628 4666 
L 1478 4666 
L 3547 763 
L 3547 4666 
L 4159 4666 
L 4159 0 
L 3309 0 
L 1241 3903 
L 1241 0 
L 628 0 
L 628 4666 
z
" transform="scale(0.015625)"/>
       <path id="DejaVuSans-75" d="M 544 1381 
L 544 3500 
L 1119 3500 
L 1119 1403 
Q 1119 906 1312 657 
Q 1506 409 1894 409 
Q 2359 409 2629 706 
Q 2900 1003 2900 1516 
L 2900 3500 
L 3475 3500 
L 3475 0 
L 2900 0 
L 2900 538 
Q 2691 219 2414 64 
Q 2138 -91 1772 -91 
Q 1169 -91 856 284 
Q 544 659 544 1381 
z
M 1991 3584 
L 1991 3584 
z
" transform="scale(0.015625)"/>
       <path id="DejaVuSans-62" d="M 3116 1747 
Q 3116 2381 2855 2742 
Q 2594 3103 2138 3103 
Q 1681 3103 1420 2742 
Q 1159 2381 1159 1747 
Q 1159 1113 1420 752 
Q 1681 391 2138 391 
Q 2594 391 2855 752 
Q 3116 1113 3116 1747 
z
M 1159 2969 
Q 1341 3281 1617 3432 
Q 1894 3584 2278 3584 
Q 2916 3584 3314 3078 
Q 3713 2572 3713 1747 
Q 3713 922 3314 415 
Q 2916 -91 2278 -91 
Q 1894 -91 1617 61 
Q 1341 213 1159 525 
L 1159 0 
L 581 0 
L 581 4863 
L 1159 4863 
L 1159 2969 
z
" transform="scale(0.015625)"/>
       <path id="DejaVuSans-72" d="M 2631 2963 
Q 2534 3019 2420 3045 
Q 2306 3072 2169 3072 
Q 1681 3072 1420 2755 
Q 1159 2438 1159 1844 
L 1159 0 
L 581 0 
L 581 3500 
L 1159 3500 
L 1159 2956 
Q 1341 3275 1631 3429 
Q 1922 3584 2338 3584 
Q 2397 3584 2469 3576 
Q 2541 3569 2628 3553 
L 2631 2963 
z
" transform="scale(0.015625)"/>
       <path id="DejaVuSans-6f" d="M 1959 3097 
Q 1497 3097 1228 2736 
Q 959 2375 959 1747 
Q 959 1119 1226 758 
Q 1494 397 1959 397 
Q 2419 397 2687 759 
Q 2956 1122 2956 1747 
Q 2956 2369 2687 2733 
Q 2419 3097 1959 3097 
z
M 1959 3584 
Q 2709 3584 3137 3096 
Q 3566 2609 3566 1747 
Q 3566 888 3137 398 
Q 2709 -91 1959 -91 
Q 1206 -91 779 398 
Q 353 888 353 1747 
Q 353 2609 779 3096 
Q 1206 3584 1959 3584 
z
" transform="scale(0.015625)"/>
       <path id="DejaVuSans-66" d="M 2375 4863 
L 2375 4384 
L 1825 4384 
Q 1516 4384 1395 4259 
Q 1275 4134 1275 3809 
L 1275 3500 
L 2222 3500 
L 2222 3053 
L 1275 3053 
L 1275 0 
L 697 0 
L 697 3053 
L 147 3053 
L 147 3500 
L 697 3500 
L 697 3744 
Q 697 4328 969 4595 
Q 1241 4863 1831 4863 
L 2375 4863 
z
" transform="scale(0.015625)"/>
       <path id="DejaVuSans-63" d="M 3122 3366 
L 3122 2828 
Q 2878 2963 2633 3030 
Q 2388 3097 2138 3097 
Q 1578 3097 1268 2742 
Q 959 2388 959 1747 
Q 959 1106 1268 751 
Q 1578 397 2138 397 
Q 2388 397 2633 464 
Q 2878 531 3122 666 
L 3122 134 
Q 2881 22 2623 -34 
Q 2366 -91 2075 -91 
Q 1284 -91 818 406 
Q 353 903 353 1747 
Q 353 2603 823 3093 
Q 1294 3584 2113 3584 
Q 2378 3584 2631 3529 
Q 2884 3475 3122 3366 
z
" transform="scale(0.015625)"/>
       <path id="DejaVuSans-6c" d="M 603 4863 
L 1178 4863 
L 1178 0 
L 603 0 
L 603 4863 
z
" transform="scale(0.015625)"/>
      </defs>
      <use xlink:href="#DejaVuSans-4e"/>
      <use xlink:href="#DejaVuSans-75" x="74.804688"/>
      <use xlink:href="#DejaVuSans-6d" x="138.183594"/>
      <use xlink:href="#DejaVuSans-62" x="235.595703"/>
      <use xlink:href="#DejaVuSans-65" x="299.072266"/>
      <use xlink:href="#DejaVuSans-72" x="360.595703"/>
      <use xlink:href="#DejaVuSans-20" x="401.708984"/>
      <use xlink:href="#DejaVuSans-6f" x="433.496094"/>
      <use xlink:href="#DejaVuSans-66" x="494.677734"/>
      <use xlink:href="#DejaVuSans-20" x="529.882812"/>
      <use xlink:href="#DejaVuSans-4e" x="561.669922"/>
      <use xlink:href="#DejaVuSans-75" x="636.474609"/>
      <use xlink:href="#DejaVuSans-63" x="699.853516"/>
      <use xlink:href="#DejaVuSans-6c" x="754.833984"/>
      <use xlink:href="#DejaVuSans-65" x="782.617188"/>
      <use xlink:href="#DejaVuSans-69" x="844.140625"/>
     </g>
    </g>
   </g>
   <g id="line2d_12">
    <defs>
     <path id="mc7129ca2e4" d="M 0 1.5 
C 0.397805 1.5 0.77937 1.341951 1.06066 1.06066 
C 1.341951 0.77937 1.5 0.397805 1.5 0 
C 1.5 -0.397805 1.341951 -0.77937 1.06066 -1.06066 
C 0.77937 -1.341951 0.397805 -1.5 0 -1.5 
C -0.397805 -1.5 -0.77937 -1.341951 -1.06066 -1.06066 
C -1.341951 -0.77937 -1.5 -0.397805 -1.5 0 
C -1.5 0.397805 -1.341951 0.77937 -1.06066 1.06066 
C -0.77937 1.341951 -0.397805 1.5 0 1.5 
z
" style="stroke: #000000"/>
    </defs>
    <g clip-path="url(#pa897ca7891)">
     <use xlink:href="#mc7129ca2e4" x="65.361932" y="214.756364" style="stroke: #000000"/>
     <use xlink:href="#mc7129ca2e4" x="68.103947" y="188.884941" style="stroke: #000000"/>
     <use xlink:href="#mc7129ca2e4" x="70.845961" y="165.568854" style="stroke: #000000"/>
     <use xlink:href="#mc7129ca2e4" x="73.587976" y="144.618798" style="stroke: #000000"/>
     <use xlink:href="#mc7129ca2e4" x="76.329991" y="125.857936" style="stroke: #000000"/>
     <use xlink:href="#mc7129ca2e4" x="79.072006" y="109.121128" style="stroke: #000000"/>
     <use xlink:href="#mc7129ca2e4" x="81.81402" y="94.254206" style="stroke: #000000"/>
     <use xlink:href="#mc7129ca2e4" x="84.556035" y="81.113293" style="stroke: #000000"/>
     <use xlink:href="#mc7129ca2e4" x="87.29805" y="69.564163" style="stroke: #000000"/>
     <use xlink:href="#mc7129ca2e4" x="90.040064" y="59.481639" style="stroke: #000000"/>
     <use xlink:href="#mc7129ca2e4" x="92.782079" y="50.749028" style="stroke: #000000"/>
     <use xlink:href="#mc7129ca2e4" x="95.524094" y="43.257584" style="stroke: #000000"/>
     <use xlink:href="#mc7129ca2e4" x="98.266109" y="36.906011" style="stroke: #000000"/>
     <use xlink:href="#mc7129ca2e4" x="101.008123" y="31.59999" style="stroke: #000000"/>
     <use xlink:href="#mc7129ca2e4" x="103.750138" y="27.251742" style="stroke: #000000"/>
     <use xlink:href="#mc7129ca2e4" x="106.492153" y="23.779605" style="stroke: #000000"/>
     <use xlink:href="#mc7129ca2e4" x="109.234168" y="21.107648" style="stroke: #000000"/>
     <use xlink:href="#mc7129ca2e4" x="111.976182" y="19.165304" style="stroke: #000000"/>
     <use xlink:href="#mc7129ca2e4" x="114.718197" y="17.887025" style="stroke: #000000"/>
     <use xlink:href="#mc7129ca2e4" x="117.460212" y="17.211956" style="stroke: #000000"/>
     <use xlink:href="#mc7129ca2e4" x="120.202227" y="17.083636" style="stroke: #000000"/>
     <use xlink:href="#mc7129ca2e4" x="122.944241" y="17.449708" style="stroke: #000000"/>
     <use xlink:href="#mc7129ca2e4" x="125.686256" y="18.261654" style="stroke: #000000"/>
     <use xlink:href="#mc7129ca2e4" x="128.428271" y="19.474541" style="stroke: #000000"/>
     <use xlink:href="#mc7129ca2e4" x="131.170286" y="21.046788" style="stroke: #000000"/>
     <use xlink:href="#mc7129ca2e4" x="133.9123" y="22.939944" style="stroke: #000000"/>
     <use xlink:href="#mc7129ca2e4" x="136.654315" y="25.118478" style="stroke: #000000"/>
     <use xlink:href="#mc7129ca2e4" x="139.39633" y="27.549587" style="stroke: #000000"/>
     <use xlink:href="#mc7129ca2e4" x="142.138345" y="30.203012" style="stroke: #000000"/>
     <use xlink:href="#mc7129ca2e4" x="144.880359" y="33.050865" style="stroke: #000000"/>
     <use xlink:href="#mc7129ca2e4" x="147.622374" y="36.067473" style="stroke: #000000"/>
     <use xlink:href="#mc7129ca2e4" x="150.364389" y="39.229223" style="stroke: #000000"/>
     <use xlink:href="#mc7129ca2e4" x="153.106404" y="42.514423" style="stroke: #000000"/>
     <use xlink:href="#mc7129ca2e4" x="155.848418" y="45.90317" style="stroke: #000000"/>
     <use xlink:href="#mc7129ca2e4" x="158.590433" y="49.377225" style="stroke: #000000"/>
     <use xlink:href="#mc7129ca2e4" x="161.332448" y="52.919899" style="stroke: #000000"/>
     <use xlink:href="#mc7129ca2e4" x="164.074463" y="56.515943" style="stroke: #000000"/>
     <use xlink:href="#mc7129ca2e4" x="166.816477" y="60.151447" style="stroke: #000000"/>
     <use xlink:href="#mc7129ca2e4" x="169.558492" y="63.813744" style="stroke: #000000"/>
     <use xlink:href="#mc7129ca2e4" x="172.300507" y="67.491322" style="stroke: #000000"/>
     <use xlink:href="#mc7129ca2e4" x="175.042521" y="71.173741" style="stroke: #000000"/>
     <use xlink:href="#mc7129ca2e4" x="177.784536" y="74.851556" style="stroke: #000000"/>
     <use xlink:href="#mc7129ca2e4" x="180.526551" y="78.516241" style="stroke: #000000"/>
     <use xlink:href="#mc7129ca2e4" x="183.268566" y="82.160125" style="stroke: #000000"/>
     <use xlink:href="#mc7129ca2e4" x="186.01058" y="85.776326" style="stroke: #000000"/>
     <use xlink:href="#mc7129ca2e4" x="188.752595" y="89.358693" style="stroke: #000000"/>
     <use xlink:href="#mc7129ca2e4" x="191.49461" y="92.901749" style="stroke: #000000"/>
     <use xlink:href="#mc7129ca2e4" x="194.236625" y="96.40064" style="stroke: #000000"/>
     <use xlink:href="#mc7129ca2e4" x="196.978639" y="99.851091" style="stroke: #000000"/>
     <use xlink:href="#mc7129ca2e4" x="199.720654" y="103.249352" style="stroke: #000000"/>
     <use xlink:href="#mc7129ca2e4" x="202.462669" y="106.592165" style="stroke: #000000"/>
     <use xlink:href="#mc7129ca2e4" x="205.204684" y="109.876719" style="stroke: #000000"/>
     <use xlink:href="#mc7129ca2e4" x="207.946698" y="113.100617" style="stroke: #000000"/>
     <use xlink:href="#mc7129ca2e4" x="210.688713" y="116.261841" style="stroke: #000000"/>
     <use xlink:href="#mc7129ca2e4" x="213.430728" y="119.35872" style="stroke: #000000"/>
     <use xlink:href="#mc7129ca2e4" x="216.172743" y="122.3899" style="stroke: #000000"/>
     <use xlink:href="#mc7129ca2e4" x="218.914757" y="125.354319" style="stroke: #000000"/>
     <use xlink:href="#mc7129ca2e4" x="221.656772" y="128.251178" style="stroke: #000000"/>
     <use xlink:href="#mc7129ca2e4" x="224.398787" y="131.079922" style="stroke: #000000"/>
     <use xlink:href="#mc7129ca2e4" x="227.140802" y="133.840216" style="stroke: #000000"/>
     <use xlink:href="#mc7129ca2e4" x="229.882816" y="136.53192" style="stroke: #000000"/>
     <use xlink:href="#mc7129ca2e4" x="232.624831" y="139.15508" style="stroke: #000000"/>
     <use xlink:href="#mc7129ca2e4" x="235.366846" y="141.709902" style="stroke: #000000"/>
     <use xlink:href="#mc7129ca2e4" x="238.108861" y="144.196738" style="stroke: #000000"/>
     <use xlink:href="#mc7129ca2e4" x="240.850875" y="146.616074" style="stroke: #000000"/>
     <use xlink:href="#mc7129ca2e4" x="243.59289" y="148.968512" style="stroke: #000000"/>
     <use xlink:href="#mc7129ca2e4" x="246.334905" y="151.25476" style="stroke: #000000"/>
     <use xlink:href="#mc7129ca2e4" x="249.07692" y="153.475621" style="stroke: #000000"/>
     <use xlink:href="#mc7129ca2e4" x="251.818934" y="155.631976" style="stroke: #000000"/>
     <use xlink:href="#mc7129ca2e4" x="254.560949" y="157.724781" style="stroke: #000000"/>
     <use xlink:href="#mc7129ca2e4" x="257.302964" y="159.755055" style="stroke: #000000"/>
     <use xlink:href="#mc7129ca2e4" x="260.044979" y="161.723872" style="stroke: #000000"/>
     <use xlink:href="#mc7129ca2e4" x="262.786993" y="163.632349" style="stroke: #000000"/>
     <use xlink:href="#mc7129ca2e4" x="265.529008" y="165.481646" style="stroke: #000000"/>
     <use xlink:href="#mc7129ca2e4" x="268.271023" y="167.272954" style="stroke: #000000"/>
     <use xlink:href="#mc7129ca2e4" x="271.013037" y="169.007492" style="stroke: #000000"/>
     <use xlink:href="#mc7129ca2e4" x="273.755052" y="170.686498" style="stroke: #000000"/>
     <use xlink:href="#mc7129ca2e4" x="276.497067" y="172.311228" style="stroke: #000000"/>
     <use xlink:href="#mc7129ca2e4" x="279.239082" y="173.882947" style="stroke: #000000"/>
     <use xlink:href="#mc7129ca2e4" x="281.981096" y="175.402931" style="stroke: #000000"/>
     <use xlink:href="#mc7129ca2e4" x="284.723111" y="176.872456" style="stroke: #000000"/>
     <use xlink:href="#mc7129ca2e4" x="287.465126" y="178.2928" style="stroke: #000000"/>
     <use xlink:href="#mc7129ca2e4" x="290.207141" y="179.665237" style="stroke: #000000"/>
     <use xlink:href="#mc7129ca2e4" x="292.949155" y="180.991034" style="stroke: #000000"/>
     <use xlink:href="#mc7129ca2e4" x="295.69117" y="182.271453" style="stroke: #000000"/>
     <use xlink:href="#mc7129ca2e4" x="298.433185" y="183.507741" style="stroke: #000000"/>
     <use xlink:href="#mc7129ca2e4" x="301.1752" y="184.701137" style="stroke: #000000"/>
     <use xlink:href="#mc7129ca2e4" x="303.917214" y="185.85286" style="stroke: #000000"/>
     <use xlink:href="#mc7129ca2e4" x="306.659229" y="186.964118" style="stroke: #000000"/>
     <use xlink:href="#mc7129ca2e4" x="309.401244" y="188.036098" style="stroke: #000000"/>
     <use xlink:href="#mc7129ca2e4" x="312.143259" y="189.06997" style="stroke: #000000"/>
     <use xlink:href="#mc7129ca2e4" x="314.885273" y="190.066884" style="stroke: #000000"/>
     <use xlink:href="#mc7129ca2e4" x="317.627288" y="191.027969" style="stroke: #000000"/>
     <use xlink:href="#mc7129ca2e4" x="320.369303" y="191.954334" style="stroke: #000000"/>
     <use xlink:href="#mc7129ca2e4" x="323.111318" y="192.847063" style="stroke: #000000"/>
     <use xlink:href="#mc7129ca2e4" x="325.853332" y="193.70722" style="stroke: #000000"/>
     <use xlink:href="#mc7129ca2e4" x="328.595347" y="194.535846" style="stroke: #000000"/>
     <use xlink:href="#mc7129ca2e4" x="331.337362" y="195.333956" style="stroke: #000000"/>
     <use xlink:href="#mc7129ca2e4" x="334.079377" y="196.102545" style="stroke: #000000"/>
     <use xlink:href="#mc7129ca2e4" x="336.821391" y="196.842583" style="stroke: #000000"/>
     <use xlink:href="#mc7129ca2e4" x="339.563406" y="197.555014" style="stroke: #000000"/>
     <use xlink:href="#mc7129ca2e4" x="342.305421" y="198.240761" style="stroke: #000000"/>
     <use xlink:href="#mc7129ca2e4" x="345.047436" y="198.900723" style="stroke: #000000"/>
     <use xlink:href="#mc7129ca2e4" x="347.78945" y="199.535773" style="stroke: #000000"/>
     <use xlink:href="#mc7129ca2e4" x="350.531465" y="200.146764" style="stroke: #000000"/>
     <use xlink:href="#mc7129ca2e4" x="353.27348" y="200.734522" style="stroke: #000000"/>
     <use xlink:href="#mc7129ca2e4" x="356.015494" y="201.299854" style="stroke: #000000"/>
     <use xlink:href="#mc7129ca2e4" x="358.757509" y="201.84354" style="stroke: #000000"/>
     <use xlink:href="#mc7129ca2e4" x="361.499524" y="202.366339" style="stroke: #000000"/>
     <use xlink:href="#mc7129ca2e4" x="364.241539" y="202.86899" style="stroke: #000000"/>
     <use xlink:href="#mc7129ca2e4" x="366.983553" y="203.352207" style="stroke: #000000"/>
     <use xlink:href="#mc7129ca2e4" x="369.725568" y="203.816685" style="stroke: #000000"/>
    </g>
   </g>
   <g id="patch_3">
    <path d="M 50.14375 224.64 
L 50.14375 7.2 
" style="fill: none; stroke: #000000; stroke-width: 0.8; stroke-linejoin: miter; stroke-linecap: square"/>
   </g>
   <g id="patch_4">
    <path d="M 384.94375 224.64 
L 384.94375 7.2 
" style="fill: none; stroke: #000000; stroke-width: 0.8; stroke-linejoin: miter; stroke-linecap: square"/>
   </g>
   <g id="patch_5">
    <path d="M 50.14375 224.64 
L 384.94375 224.64 
" style="fill: none; stroke: #000000; stroke-width: 0.8; stroke-linejoin: miter; stroke-linecap: square"/>
   </g>
   <g id="patch_6">
    <path d="M 50.14375 7.2 
L 384.94375 7.2 
" style="fill: none; stroke: #000000; stroke-width: 0.8; stroke-linejoin: miter; stroke-linecap: square"/>
   </g>
   <g id="legend_1">
    <g id="patch_7">
     <path d="M 294.24375 29.878125 
L 377.94375 29.878125 
Q 379.94375 29.878125 379.94375 27.878125 
L 379.94375 14.2 
Q 379.94375 12.2 377.94375 12.2 
L 294.24375 12.2 
Q 292.24375 12.2 292.24375 14.2 
L 292.24375 27.878125 
Q 292.24375 29.878125 294.24375 29.878125 
z
" style="fill: #ffffff; opacity: 0.8; stroke: #cccccc; stroke-linejoin: miter"/>
    </g>
    <g id="line2d_13">
     <g>
      <use xlink:href="#mc7129ca2e4" x="306.24375" y="20.298437" style="stroke: #000000"/>
     </g>
    </g>
    <g id="text_14">
     <!-- Difference -->
     <g transform="translate(324.24375 23.798437)scale(0.1 -0.1)">
      <defs>
       <path id="DejaVuSans-44" d="M 1259 4147 
L 1259 519 
L 2022 519 
Q 2988 519 3436 956 
Q 3884 1394 3884 2338 
Q 3884 3275 3436 3711 
Q 2988 4147 2022 4147 
L 1259 4147 
z
M 628 4666 
L 1925 4666 
Q 3281 4666 3915 4102 
Q 4550 3538 4550 2338 
Q 4550 1131 3912 565 
Q 3275 0 1925 0 
L 628 0 
L 628 4666 
z
" transform="scale(0.015625)"/>
       <path id="DejaVuSans-6e" d="M 3513 2113 
L 3513 0 
L 2938 0 
L 2938 2094 
Q 2938 2591 2744 2837 
Q 2550 3084 2163 3084 
Q 1697 3084 1428 2787 
Q 1159 2491 1159 1978 
L 1159 0 
L 581 0 
L 581 3500 
L 1159 3500 
L 1159 2956 
Q 1366 3272 1645 3428 
Q 1925 3584 2291 3584 
Q 2894 3584 3203 3211 
Q 3513 2838 3513 2113 
z
" transform="scale(0.015625)"/>
      </defs>
      <use xlink:href="#DejaVuSans-44"/>
      <use xlink:href="#DejaVuSans-69" x="77.001953"/>
      <use xlink:href="#DejaVuSans-66" x="104.785156"/>
      <use xlink:href="#DejaVuSans-66" x="139.990234"/>
      <use xlink:href="#DejaVuSans-65" x="175.195312"/>
      <use xlink:href="#DejaVuSans-72" x="236.71875"/>
      <use xlink:href="#DejaVuSans-65" x="275.582031"/>
      <use xlink:href="#DejaVuSans-6e" x="337.105469"/>
      <use xlink:href="#DejaVuSans-63" x="400.484375"/>
      <use xlink:href="#DejaVuSans-65" x="455.464844"/>
     </g>
    </g>
   </g>
  </g>
 </g>
 <defs>
  <clipPath id="pa897ca7891">
   <rect x="50.14375" y="7.2" width="334.8" height="217.44"/>
  </clipPath>
 </defs>
</svg>
