<?xml version="1.0" encoding="utf-8" standalone="no"?>
<!DOCTYPE svg PUBLIC "-//W3C//DTD SVG 1.1//EN"
  "http://www.w3.org/Graphics/SVG/1.1/DTD/svg11.dtd">
<svg xmlns:xlink="http://www.w3.org/1999/xlink" width="385.78125pt" height="262.19625pt" viewBox="0 0 385.78125 262.19625" xmlns="http://www.w3.org/2000/svg" version="1.1">
 <metadata>
  <rdf:RDF xmlns:dc="http://purl.org/dc/elements/1.1/" xmlns:cc="http://creativecommons.org/ns#" xmlns:rdf="http://www.w3.org/1999/02/22-rdf-syntax-ns#">
   <cc:Work>
    <dc:type rdf:resource="http://purl.org/dc/dcmitype/StillImage"/>
    <dc:date>2024-09-23T11:54:16.295883</dc:date>
    <dc:format>image/svg+xml</dc:format>
    <dc:creator>
     <cc:Agent>
      <dc:title>Matplotlib v3.5.2, https://matplotlib.org/</dc:title>
     </cc:Agent>
    </dc:creator>
   </cc:Work>
  </rdf:RDF>
 </metadata>
 <defs>
  <style type="text/css">*{stroke-linejoin: round; stroke-linecap: butt}</style>
 </defs>
 <g id="figure_1">
  <g id="patch_1">
   <path d="M 0 262.19625 
L 385.78125 262.19625 
L 385.78125 0 
L 0 0 
z
" style="fill: #ffffff"/>
  </g>
  <g id="axes_1">
   <g id="patch_2">
    <path d="M 43.78125 224.64 
L 378.58125 224.64 
L 378.58125 7.2 
L 43.78125 7.2 
z
" style="fill: #ffffff"/>
   </g>
   <g id="matplotlib.axis_1">
    <g id="xtick_1">
     <g id="line2d_1">
      <defs>
       <path id="mb91f00312a" d="M 0 0 
L 0 3.5 
" style="stroke: #000000; stroke-width: 0.8"/>
      </defs>
      <g>
       <use xlink:href="#mb91f00312a" x="58.999432" y="224.64" style="stroke: #000000; stroke-width: 0.8"/>
      </g>
     </g>
     <g id="text_1">
      <!-- 0.0 -->
      <g transform="translate(51.047869 239.238437)scale(0.1 -0.1)">
       <defs>
        <path id="DejaVuSans-30" d="M 2034 4250 
Q 1547 4250 1301 3770 
Q 1056 3291 1056 2328 
Q 1056 1369 1301 889 
Q 1547 409 2034 409 
Q 2525 409 2770 889 
Q 3016 1369 3016 2328 
Q 3016 3291 2770 3770 
Q 2525 4250 2034 4250 
z
M 2034 4750 
Q 2819 4750 3233 4129 
Q 3647 3509 3647 2328 
Q 3647 1150 3233 529 
Q 2819 -91 2034 -91 
Q 1250 -91 836 529 
Q 422 1150 422 2328 
Q 422 3509 836 4129 
Q 1250 4750 2034 4750 
z
" transform="scale(0.015625)"/>
        <path id="DejaVuSans-2e" d="M 684 794 
L 1344 794 
L 1344 0 
L 684 0 
L 684 794 
z
" transform="scale(0.015625)"/>
       </defs>
       <use xlink:href="#DejaVuSans-30"/>
       <use xlink:href="#DejaVuSans-2e" x="63.623047"/>
       <use xlink:href="#DejaVuSans-30" x="95.410156"/>
      </g>
     </g>
    </g>
    <g id="xtick_2">
     <g id="line2d_2">
      <g>
       <use xlink:href="#mb91f00312a" x="109.58638" y="224.64" style="stroke: #000000; stroke-width: 0.8"/>
      </g>
     </g>
     <g id="text_2">
      <!-- 0.5 -->
      <g transform="translate(101.634817 239.238437)scale(0.1 -0.1)">
       <defs>
        <path id="DejaVuSans-35" d="M 691 4666 
L 3169 4666 
L 3169 4134 
L 1269 4134 
L 1269 2991 
Q 1406 3038 1543 3061 
Q 1681 3084 1819 3084 
Q 2600 3084 3056 2656 
Q 3513 2228 3513 1497 
Q 3513 744 3044 326 
Q 2575 -91 1722 -91 
Q 1428 -91 1123 -41 
Q 819 9 494 109 
L 494 744 
Q 775 591 1075 516 
Q 1375 441 1709 441 
Q 2250 441 2565 725 
Q 2881 1009 2881 1497 
Q 2881 1984 2565 2268 
Q 2250 2553 1709 2553 
Q 1456 2553 1204 2497 
Q 953 2441 691 2322 
L 691 4666 
z
" transform="scale(0.015625)"/>
       </defs>
       <use xlink:href="#DejaVuSans-30"/>
       <use xlink:href="#DejaVuSans-2e" x="63.623047"/>
       <use xlink:href="#DejaVuSans-35" x="95.410156"/>
      </g>
     </g>
    </g>
    <g id="xtick_3">
     <g id="line2d_3">
      <g>
       <use xlink:href="#mb91f00312a" x="160.173328" y="224.64" style="stroke: #000000; stroke-width: 0.8"/>
      </g>
     </g>
     <g id="text_3">
      <!-- 1.0 -->
      <g transform="translate(152.221765 239.238437)scale(0.1 -0.1)">
       <defs>
        <path id="DejaVuSans-31" d="M 794 531 
L 1825 531 
L 1825 4091 
L 703 3866 
L 703 4441 
L 1819 4666 
L 2450 4666 
L 2450 531 
L 3481 531 
L 3481 0 
L 794 0 
L 794 531 
z
" transform="scale(0.015625)"/>
       </defs>
       <use xlink:href="#DejaVuSans-31"/>
       <use xlink:href="#DejaVuSans-2e" x="63.623047"/>
       <use xlink:href="#DejaVuSans-30" x="95.410156"/>
      </g>
     </g>
    </g>
    <g id="xtick_4">
     <g id="line2d_4">
      <g>
       <use xlink:href="#mb91f00312a" x="210.760276" y="224.64" style="stroke: #000000; stroke-width: 0.8"/>
      </g>
     </g>
     <g id="text_4">
      <!-- 1.5 -->
      <g transform="translate(202.808713 239.238437)scale(0.1 -0.1)">
       <use xlink:href="#DejaVuSans-31"/>
       <use xlink:href="#DejaVuSans-2e" x="63.623047"/>
       <use xlink:href="#DejaVuSans-35" x="95.410156"/>
      </g>
     </g>
    </g>
    <g id="xtick_5">
     <g id="line2d_5">
      <g>
       <use xlink:href="#mb91f00312a" x="261.347224" y="224.64" style="stroke: #000000; stroke-width: 0.8"/>
      </g>
     </g>
     <g id="text_5">
      <!-- 2.0 -->
      <g transform="translate(253.395662 239.238437)scale(0.1 -0.1)">
       <defs>
        <path id="DejaVuSans-32" d="M 1228 531 
L 3431 531 
L 3431 0 
L 469 0 
L 469 531 
Q 828 903 1448 1529 
Q 2069 2156 2228 2338 
Q 2531 2678 2651 2914 
Q 2772 3150 2772 3378 
Q 2772 3750 2511 3984 
Q 2250 4219 1831 4219 
Q 1534 4219 1204 4116 
Q 875 4013 500 3803 
L 500 4441 
Q 881 4594 1212 4672 
Q 1544 4750 1819 4750 
Q 2544 4750 2975 4387 
Q 3406 4025 3406 3419 
Q 3406 3131 3298 2873 
Q 3191 2616 2906 2266 
Q 2828 2175 2409 1742 
Q 1991 1309 1228 531 
z
" transform="scale(0.015625)"/>
       </defs>
       <use xlink:href="#DejaVuSans-32"/>
       <use xlink:href="#DejaVuSans-2e" x="63.623047"/>
       <use xlink:href="#DejaVuSans-30" x="95.410156"/>
      </g>
     </g>
    </g>
    <g id="xtick_6">
     <g id="line2d_6">
      <g>
       <use xlink:href="#mb91f00312a" x="311.934172" y="224.64" style="stroke: #000000; stroke-width: 0.8"/>
      </g>
     </g>
     <g id="text_6">
      <!-- 2.5 -->
      <g transform="translate(303.98261 239.238437)scale(0.1 -0.1)">
       <use xlink:href="#DejaVuSans-32"/>
       <use xlink:href="#DejaVuSans-2e" x="63.623047"/>
       <use xlink:href="#DejaVuSans-35" x="95.410156"/>
      </g>
     </g>
    </g>
    <g id="xtick_7">
     <g id="line2d_7">
      <g>
       <use xlink:href="#mb91f00312a" x="362.52112" y="224.64" style="stroke: #000000; stroke-width: 0.8"/>
      </g>
     </g>
     <g id="text_7">
      <!-- 3.0 -->
      <g transform="translate(354.569558 239.238437)scale(0.1 -0.1)">
       <defs>
        <path id="DejaVuSans-33" d="M 2597 2516 
Q 3050 2419 3304 2112 
Q 3559 1806 3559 1356 
Q 3559 666 3084 287 
Q 2609 -91 1734 -91 
Q 1441 -91 1130 -33 
Q 819 25 488 141 
L 488 750 
Q 750 597 1062 519 
Q 1375 441 1716 441 
Q 2309 441 2620 675 
Q 2931 909 2931 1356 
Q 2931 1769 2642 2001 
Q 2353 2234 1838 2234 
L 1294 2234 
L 1294 2753 
L 1863 2753 
Q 2328 2753 2575 2939 
Q 2822 3125 2822 3475 
Q 2822 3834 2567 4026 
Q 2313 4219 1838 4219 
Q 1578 4219 1281 4162 
Q 984 4106 628 3988 
L 628 4550 
Q 988 4650 1302 4700 
Q 1616 4750 1894 4750 
Q 2613 4750 3031 4423 
Q 3450 4097 3450 3541 
Q 3450 3153 3228 2886 
Q 3006 2619 2597 2516 
z
" transform="scale(0.015625)"/>
       </defs>
       <use xlink:href="#DejaVuSans-33"/>
       <use xlink:href="#DejaVuSans-2e" x="63.623047"/>
       <use xlink:href="#DejaVuSans-30" x="95.410156"/>
      </g>
     </g>
    </g>
    <g id="text_8">
     <!-- Sqrt T -->
     <g transform="translate(196.174219 252.916562)scale(0.1 -0.1)">
      <defs>
       <path id="DejaVuSans-53" d="M 3425 4513 
L 3425 3897 
Q 3066 4069 2747 4153 
Q 2428 4238 2131 4238 
Q 1616 4238 1336 4038 
Q 1056 3838 1056 3469 
Q 1056 3159 1242 3001 
Q 1428 2844 1947 2747 
L 2328 2669 
Q 3034 2534 3370 2195 
Q 3706 1856 3706 1288 
Q 3706 609 3251 259 
Q 2797 -91 1919 -91 
Q 1588 -91 1214 -16 
Q 841 59 441 206 
L 441 856 
Q 825 641 1194 531 
Q 1563 422 1919 422 
Q 2459 422 2753 634 
Q 3047 847 3047 1241 
Q 3047 1584 2836 1778 
Q 2625 1972 2144 2069 
L 1759 2144 
Q 1053 2284 737 2584 
Q 422 2884 422 3419 
Q 422 4038 858 4394 
Q 1294 4750 2059 4750 
Q 2388 4750 2728 4690 
Q 3069 4631 3425 4513 
z
" transform="scale(0.015625)"/>
       <path id="DejaVuSans-71" d="M 947 1747 
Q 947 1113 1208 752 
Q 1469 391 1925 391 
Q 2381 391 2643 752 
Q 2906 1113 2906 1747 
Q 2906 2381 2643 2742 
Q 2381 3103 1925 3103 
Q 1469 3103 1208 2742 
Q 947 2381 947 1747 
z
M 2906 525 
Q 2725 213 2448 61 
Q 2172 -91 1784 -91 
Q 1150 -91 751 415 
Q 353 922 353 1747 
Q 353 2572 751 3078 
Q 1150 3584 1784 3584 
Q 2172 3584 2448 3432 
Q 2725 3281 2906 2969 
L 2906 3500 
L 3481 3500 
L 3481 -1331 
L 2906 -1331 
L 2906 525 
z
" transform="scale(0.015625)"/>
       <path id="DejaVuSans-72" d="M 2631 2963 
Q 2534 3019 2420 3045 
Q 2306 3072 2169 3072 
Q 1681 3072 1420 2755 
Q 1159 2438 1159 1844 
L 1159 0 
L 581 0 
L 581 3500 
L 1159 3500 
L 1159 2956 
Q 1341 3275 1631 3429 
Q 1922 3584 2338 3584 
Q 2397 3584 2469 3576 
Q 2541 3569 2628 3553 
L 2631 2963 
z
" transform="scale(0.015625)"/>
       <path id="DejaVuSans-74" d="M 1172 4494 
L 1172 3500 
L 2356 3500 
L 2356 3053 
L 1172 3053 
L 1172 1153 
Q 1172 725 1289 603 
Q 1406 481 1766 481 
L 2356 481 
L 2356 0 
L 1766 0 
Q 1100 0 847 248 
Q 594 497 594 1153 
L 594 3053 
L 172 3053 
L 172 3500 
L 594 3500 
L 594 4494 
L 1172 4494 
z
" transform="scale(0.015625)"/>
       <path id="DejaVuSans-20" transform="scale(0.015625)"/>
       <path id="DejaVuSans-54" d="M -19 4666 
L 3928 4666 
L 3928 4134 
L 2272 4134 
L 2272 0 
L 1638 0 
L 1638 4134 
L -19 4134 
L -19 4666 
z
" transform="scale(0.015625)"/>
      </defs>
      <use xlink:href="#DejaVuSans-53"/>
      <use xlink:href="#DejaVuSans-71" x="63.476562"/>
      <use xlink:href="#DejaVuSans-72" x="126.953125"/>
      <use xlink:href="#DejaVuSans-74" x="168.066406"/>
      <use xlink:href="#DejaVuSans-20" x="207.275391"/>
      <use xlink:href="#DejaVuSans-54" x="239.0625"/>
     </g>
    </g>
   </g>
   <g id="matplotlib.axis_2">
    <g id="ytick_1">
     <g id="line2d_8">
      <defs>
       <path id="m9f0623a707" d="M 0 0 
L -3.5 0 
" style="stroke: #000000; stroke-width: 0.8"/>
      </defs>
      <g>
       <use xlink:href="#m9f0623a707" x="43.78125" y="192.317272" style="stroke: #000000; stroke-width: 0.8"/>
      </g>
     </g>
     <g id="text_9">
      <!-- 1.0 -->
      <g transform="translate(20.878125 196.116491)scale(0.1 -0.1)">
       <use xlink:href="#DejaVuSans-31"/>
       <use xlink:href="#DejaVuSans-2e" x="63.623047"/>
       <use xlink:href="#DejaVuSans-30" x="95.410156"/>
      </g>
     </g>
    </g>
    <g id="ytick_2">
     <g id="line2d_9">
      <g>
       <use xlink:href="#m9f0623a707" x="43.78125" y="148.067882" style="stroke: #000000; stroke-width: 0.8"/>
      </g>
     </g>
     <g id="text_10">
      <!-- 1.5 -->
      <g transform="translate(20.878125 151.8671)scale(0.1 -0.1)">
       <use xlink:href="#DejaVuSans-31"/>
       <use xlink:href="#DejaVuSans-2e" x="63.623047"/>
       <use xlink:href="#DejaVuSans-35" x="95.410156"/>
      </g>
     </g>
    </g>
    <g id="ytick_3">
     <g id="line2d_10">
      <g>
       <use xlink:href="#m9f0623a707" x="43.78125" y="103.818491" style="stroke: #000000; stroke-width: 0.8"/>
      </g>
     </g>
     <g id="text_11">
      <!-- 2.0 -->
      <g transform="translate(20.878125 107.61771)scale(0.1 -0.1)">
       <use xlink:href="#DejaVuSans-32"/>
       <use xlink:href="#DejaVuSans-2e" x="63.623047"/>
       <use xlink:href="#DejaVuSans-30" x="95.410156"/>
      </g>
     </g>
    </g>
    <g id="ytick_4">
     <g id="line2d_11">
      <g>
       <use xlink:href="#m9f0623a707" x="43.78125" y="59.5691" style="stroke: #000000; stroke-width: 0.8"/>
      </g>
     </g>
     <g id="text_12">
      <!-- 2.5 -->
      <g transform="translate(20.878125 63.368319)scale(0.1 -0.1)">
       <use xlink:href="#DejaVuSans-32"/>
       <use xlink:href="#DejaVuSans-2e" x="63.623047"/>
       <use xlink:href="#DejaVuSans-35" x="95.410156"/>
      </g>
     </g>
    </g>
    <g id="ytick_5">
     <g id="line2d_12">
      <g>
       <use xlink:href="#m9f0623a707" x="43.78125" y="15.319709" style="stroke: #000000; stroke-width: 0.8"/>
      </g>
     </g>
     <g id="text_13">
      <!-- 3.0 -->
      <g transform="translate(20.878125 19.118928)scale(0.1 -0.1)">
       <use xlink:href="#DejaVuSans-33"/>
       <use xlink:href="#DejaVuSans-2e" x="63.623047"/>
       <use xlink:href="#DejaVuSans-30" x="95.410156"/>
      </g>
     </g>
    </g>
    <g id="text_14">
     <!-- X -->
     <g transform="translate(14.798438 119.345)rotate(-90)scale(0.1 -0.1)">
      <defs>
       <path id="DejaVuSans-58" d="M 403 4666 
L 1081 4666 
L 2241 2931 
L 3406 4666 
L 4084 4666 
L 2584 2425 
L 4184 0 
L 3506 0 
L 2194 1984 
L 872 0 
L 191 0 
L 1856 2491 
L 403 4666 
z
" transform="scale(0.015625)"/>
      </defs>
      <use xlink:href="#DejaVuSans-58"/>
     </g>
    </g>
   </g>
   <g id="line2d_13">
    <defs>
     <path id="m1e27fd100a" d="M 0 0.75 
C 0.198902 0.75 0.389685 0.670975 0.53033 0.53033 
C 0.670975 0.389685 0.75 0.198902 0.75 0 
C 0.75 -0.198902 0.670975 -0.389685 0.53033 -0.53033 
C 0.389685 -0.670975 0.198902 -0.75 0 -0.75 
C -0.198902 -0.75 -0.389685 -0.670975 -0.53033 -0.53033 
C -0.670975 -0.389685 -0.75 -0.198902 -0.75 0 
C -0.75 0.198902 -0.670975 0.389685 -0.53033 0.53033 
C -0.389685 0.670975 -0.198902 0.75 0 0.75 
z
" style="stroke: #000000"/>
    </defs>
    <g clip-path="url(#p88e48f5909)">
     <use xlink:href="#m1e27fd100a" x="58.999432" y="192.317272" style="stroke: #000000"/>
     <use xlink:href="#m1e27fd100a" x="81.622603" y="196.742211" style="stroke: #000000"/>
     <use xlink:href="#m1e27fd100a" x="90.993427" y="200.514472" style="stroke: #000000"/>
     <use xlink:href="#m1e27fd100a" x="98.183913" y="203.71516" style="stroke: #000000"/>
     <use xlink:href="#m1e27fd100a" x="104.245774" y="206.409967" style="stroke: #000000"/>
     <use xlink:href="#m1e27fd100a" x="109.58638" y="208.652856" style="stroke: #000000"/>
     <use xlink:href="#m1e27fd100a" x="114.414657" y="210.488768" style="stroke: #000000"/>
     <use xlink:href="#m1e27fd100a" x="118.854716" y="211.955634" style="stroke: #000000"/>
     <use xlink:href="#m1e27fd100a" x="122.987422" y="213.085901" style="stroke: #000000"/>
     <use xlink:href="#m1e27fd100a" x="126.868945" y="213.907697" style="stroke: #000000"/>
     <use xlink:href="#m1e27fd100a" x="130.54018" y="214.445735" style="stroke: #000000"/>
     <use xlink:href="#m1e27fd100a" x="134.032001" y="214.722011" style="stroke: #000000"/>
     <use xlink:href="#m1e27fd100a" x="137.368395" y="214.756364" style="stroke: #000000"/>
     <use xlink:href="#m1e27fd100a" x="140.568435" y="214.566905" style="stroke: #000000"/>
     <use xlink:href="#m1e27fd100a" x="143.647586" y="214.170361" style="stroke: #000000"/>
     <use xlink:href="#m1e27fd100a" x="146.618596" y="213.582344" style="stroke: #000000"/>
     <use xlink:href="#m1e27fd100a" x="149.492116" y="212.817557" style="stroke: #000000"/>
     <use xlink:href="#m1e27fd100a" x="152.277155" y="211.889956" style="stroke: #000000"/>
     <use xlink:href="#m1e27fd100a" x="154.981417" y="210.812866" style="stroke: #000000"/>
     <use xlink:href="#m1e27fd100a" x="157.611548" y="209.599073" style="stroke: #000000"/>
     <use xlink:href="#m1e27fd100a" x="160.173328" y="208.260877" style="stroke: #000000"/>
     <use xlink:href="#m1e27fd100a" x="162.671825" y="206.810133" style="stroke: #000000"/>
     <use xlink:href="#m1e27fd100a" x="165.111509" y="205.25827" style="stroke: #000000"/>
     <use xlink:href="#m1e27fd100a" x="167.496348" y="203.616293" style="stroke: #000000"/>
     <use xlink:href="#m1e27fd100a" x="169.829882" y="201.89478" style="stroke: #000000"/>
     <use xlink:href="#m1e27fd100a" x="172.115286" y="200.103866" style="stroke: #000000"/>
     <use xlink:href="#m1e27fd100a" x="174.355422" y="198.253228" style="stroke: #000000"/>
     <use xlink:href="#m1e27fd100a" x="176.552876" y="196.352058" style="stroke: #000000"/>
     <use xlink:href="#m1e27fd100a" x="178.71" y="194.409048" style="stroke: #000000"/>
     <use xlink:href="#m1e27fd100a" x="180.828936" y="192.432367" style="stroke: #000000"/>
     <use xlink:href="#m1e27fd100a" x="182.911642" y="190.429642" style="stroke: #000000"/>
     <use xlink:href="#m1e27fd100a" x="184.959917" y="188.407949" style="stroke: #000000"/>
     <use xlink:href="#m1e27fd100a" x="186.975412" y="186.373799" style="stroke: #000000"/>
     <use xlink:href="#m1e27fd100a" x="188.959654" y="184.333141" style="stroke: #000000"/>
     <use xlink:href="#m1e27fd100a" x="190.914053" y="182.291359" style="stroke: #000000"/>
     <use xlink:href="#m1e27fd100a" x="192.839916" y="180.253284" style="stroke: #000000"/>
     <use xlink:href="#m1e27fd100a" x="194.738457" y="178.223206" style="stroke: #000000"/>
     <use xlink:href="#m1e27fd100a" x="196.610808" y="176.20489" style="stroke: #000000"/>
     <use xlink:href="#m1e27fd100a" x="198.458023" y="174.201604" style="stroke: #000000"/>
     <use xlink:href="#m1e27fd100a" x="200.281089" y="172.216139" style="stroke: #000000"/>
     <use xlink:href="#m1e27fd100a" x="202.080928" y="170.250843" style="stroke: #000000"/>
     <use xlink:href="#m1e27fd100a" x="203.858406" y="168.307651" style="stroke: #000000"/>
     <use xlink:href="#m1e27fd100a" x="205.614336" y="166.388116" style="stroke: #000000"/>
     <use xlink:href="#m1e27fd100a" x="207.349484" y="164.493447" style="stroke: #000000"/>
     <use xlink:href="#m1e27fd100a" x="209.064571" y="162.624537" style="stroke: #000000"/>
     <use xlink:href="#m1e27fd100a" x="210.760276" y="160.782003" style="stroke: #000000"/>
     <use xlink:href="#m1e27fd100a" x="212.437242" y="158.966213" style="stroke: #000000"/>
     <use xlink:href="#m1e27fd100a" x="214.096078" y="157.177321" style="stroke: #000000"/>
     <use xlink:href="#m1e27fd100a" x="215.737358" y="155.415294" style="stroke: #000000"/>
     <use xlink:href="#m1e27fd100a" x="217.361628" y="153.679941" style="stroke: #000000"/>
     <use xlink:href="#m1e27fd100a" x="218.969408" y="151.970939" style="stroke: #000000"/>
     <use xlink:href="#m1e27fd100a" x="220.561188" y="150.287852" style="stroke: #000000"/>
     <use xlink:href="#m1e27fd100a" x="222.137437" y="148.630159" style="stroke: #000000"/>
     <use xlink:href="#m1e27fd100a" x="223.698602" y="146.997268" style="stroke: #000000"/>
     <use xlink:href="#m1e27fd100a" x="225.245107" y="145.388532" style="stroke: #000000"/>
     <use xlink:href="#m1e27fd100a" x="226.777358" y="143.803267" style="stroke: #000000"/>
     <use xlink:href="#m1e27fd100a" x="228.295741" y="142.240765" style="stroke: #000000"/>
     <use xlink:href="#m1e27fd100a" x="229.800627" y="140.7003" style="stroke: #000000"/>
     <use xlink:href="#m1e27fd100a" x="231.292369" y="139.181142" style="stroke: #000000"/>
     <use xlink:href="#m1e27fd100a" x="232.771305" y="137.682561" style="stroke: #000000"/>
     <use xlink:href="#m1e27fd100a" x="234.23776" y="136.203838" style="stroke: #000000"/>
     <use xlink:href="#m1e27fd100a" x="235.692045" y="134.744264" style="stroke: #000000"/>
     <use xlink:href="#m1e27fd100a" x="237.134458" y="133.30315" style="stroke: #000000"/>
     <use xlink:href="#m1e27fd100a" x="238.565284" y="131.879825" style="stroke: #000000"/>
     <use xlink:href="#m1e27fd100a" x="239.984799" y="130.473643" style="stroke: #000000"/>
     <use xlink:href="#m1e27fd100a" x="241.393267" y="129.08398" style="stroke: #000000"/>
     <use xlink:href="#m1e27fd100a" x="242.790941" y="127.710239" style="stroke: #000000"/>
     <use xlink:href="#m1e27fd100a" x="244.178067" y="126.351846" style="stroke: #000000"/>
     <use xlink:href="#m1e27fd100a" x="245.554878" y="125.008254" style="stroke: #000000"/>
     <use xlink:href="#m1e27fd100a" x="246.921603" y="123.678944" style="stroke: #000000"/>
     <use xlink:href="#m1e27fd100a" x="248.27846" y="122.363419" style="stroke: #000000"/>
     <use xlink:href="#m1e27fd100a" x="249.625658" y="121.061208" style="stroke: #000000"/>
     <use xlink:href="#m1e27fd100a" x="250.963403" y="119.771862" style="stroke: #000000"/>
     <use xlink:href="#m1e27fd100a" x="252.291889" y="118.494956" style="stroke: #000000"/>
     <use xlink:href="#m1e27fd100a" x="253.611307" y="117.230088" style="stroke: #000000"/>
     <use xlink:href="#m1e27fd100a" x="254.921839" y="115.976873" style="stroke: #000000"/>
     <use xlink:href="#m1e27fd100a" x="256.223663" y="114.73495" style="stroke: #000000"/>
     <use xlink:href="#m1e27fd100a" x="257.516951" y="113.503974" style="stroke: #000000"/>
     <use xlink:href="#m1e27fd100a" x="258.801867" y="112.283618" style="stroke: #000000"/>
     <use xlink:href="#m1e27fd100a" x="260.078573" y="111.073572" style="stroke: #000000"/>
     <use xlink:href="#m1e27fd100a" x="261.347224" y="109.873541" style="stroke: #000000"/>
     <use xlink:href="#m1e27fd100a" x="262.60797" y="108.683245" style="stroke: #000000"/>
     <use xlink:href="#m1e27fd100a" x="263.860958" y="107.502418" style="stroke: #000000"/>
     <use xlink:href="#m1e27fd100a" x="265.106328" y="106.330806" style="stroke: #000000"/>
     <use xlink:href="#m1e27fd100a" x="266.344218" y="105.168168" style="stroke: #000000"/>
     <use xlink:href="#m1e27fd100a" x="267.574762" y="104.014274" style="stroke: #000000"/>
     <use xlink:href="#m1e27fd100a" x="268.798088" y="102.868904" style="stroke: #000000"/>
     <use xlink:href="#m1e27fd100a" x="270.014322" y="101.731849" style="stroke: #000000"/>
     <use xlink:href="#m1e27fd100a" x="271.223587" y="100.602909" style="stroke: #000000"/>
     <use xlink:href="#m1e27fd100a" x="272.425999" y="99.481892" style="stroke: #000000"/>
     <use xlink:href="#m1e27fd100a" x="273.621676" y="98.368614" style="stroke: #000000"/>
     <use xlink:href="#m1e27fd100a" x="274.810728" y="97.2629" style="stroke: #000000"/>
     <use xlink:href="#m1e27fd100a" x="275.993264" y="96.164582" style="stroke: #000000"/>
     <use xlink:href="#m1e27fd100a" x="277.169391" y="95.073498" style="stroke: #000000"/>
     <use xlink:href="#m1e27fd100a" x="278.339212" y="93.989493" style="stroke: #000000"/>
     <use xlink:href="#m1e27fd100a" x="279.502826" y="92.912418" style="stroke: #000000"/>
     <use xlink:href="#m1e27fd100a" x="280.660332" y="91.842128" style="stroke: #000000"/>
     <use xlink:href="#m1e27fd100a" x="281.811825" y="90.778486" style="stroke: #000000"/>
     <use xlink:href="#m1e27fd100a" x="282.957398" y="89.721359" style="stroke: #000000"/>
     <use xlink:href="#m1e27fd100a" x="284.09714" y="88.670618" style="stroke: #000000"/>
     <use xlink:href="#m1e27fd100a" x="285.231141" y="87.62614" style="stroke: #000000"/>
     <use xlink:href="#m1e27fd100a" x="286.359486" y="86.587804" style="stroke: #000000"/>
     <use xlink:href="#m1e27fd100a" x="287.482258" y="85.555496" style="stroke: #000000"/>
     <use xlink:href="#m1e27fd100a" x="288.59954" y="84.529103" style="stroke: #000000"/>
     <use xlink:href="#m1e27fd100a" x="289.711412" y="83.508519" style="stroke: #000000"/>
     <use xlink:href="#m1e27fd100a" x="290.81795" y="82.493637" style="stroke: #000000"/>
     <use xlink:href="#m1e27fd100a" x="291.919232" y="81.484358" style="stroke: #000000"/>
     <use xlink:href="#m1e27fd100a" x="293.015332" y="80.480583" style="stroke: #000000"/>
     <use xlink:href="#m1e27fd100a" x="294.106321" y="79.482218" style="stroke: #000000"/>
     <use xlink:href="#m1e27fd100a" x="295.19227" y="78.489169" style="stroke: #000000"/>
     <use xlink:href="#m1e27fd100a" x="296.27325" y="77.501348" style="stroke: #000000"/>
     <use xlink:href="#m1e27fd100a" x="297.349327" y="76.518668" style="stroke: #000000"/>
     <use xlink:href="#m1e27fd100a" x="298.420568" y="75.541045" style="stroke: #000000"/>
     <use xlink:href="#m1e27fd100a" x="299.487037" y="74.568397" style="stroke: #000000"/>
     <use xlink:href="#m1e27fd100a" x="300.548798" y="73.600645" style="stroke: #000000"/>
     <use xlink:href="#m1e27fd100a" x="301.605912" y="72.637711" style="stroke: #000000"/>
     <use xlink:href="#m1e27fd100a" x="302.65844" y="71.67952" style="stroke: #000000"/>
     <use xlink:href="#m1e27fd100a" x="303.70644" y="70.725999" style="stroke: #000000"/>
     <use xlink:href="#m1e27fd100a" x="304.749972" y="69.777076" style="stroke: #000000"/>
     <use xlink:href="#m1e27fd100a" x="305.789091" y="68.832683" style="stroke: #000000"/>
     <use xlink:href="#m1e27fd100a" x="306.823853" y="67.892752" style="stroke: #000000"/>
     <use xlink:href="#m1e27fd100a" x="307.854312" y="66.957218" style="stroke: #000000"/>
     <use xlink:href="#m1e27fd100a" x="308.880522" y="66.026015" style="stroke: #000000"/>
     <use xlink:href="#m1e27fd100a" x="309.902535" y="65.099082" style="stroke: #000000"/>
     <use xlink:href="#m1e27fd100a" x="310.920402" y="64.176358" style="stroke: #000000"/>
     <use xlink:href="#m1e27fd100a" x="311.934172" y="63.257783" style="stroke: #000000"/>
     <use xlink:href="#m1e27fd100a" x="312.943896" y="62.3433" style="stroke: #000000"/>
     <use xlink:href="#m1e27fd100a" x="313.94962" y="61.432851" style="stroke: #000000"/>
     <use xlink:href="#m1e27fd100a" x="314.951393" y="60.526382" style="stroke: #000000"/>
     <use xlink:href="#m1e27fd100a" x="315.94926" y="59.623838" style="stroke: #000000"/>
     <use xlink:href="#m1e27fd100a" x="316.943267" y="58.725168" style="stroke: #000000"/>
     <use xlink:href="#m1e27fd100a" x="317.933458" y="57.830318" style="stroke: #000000"/>
     <use xlink:href="#m1e27fd100a" x="318.919877" y="56.93924" style="stroke: #000000"/>
     <use xlink:href="#m1e27fd100a" x="319.902567" y="56.051884" style="stroke: #000000"/>
     <use xlink:href="#m1e27fd100a" x="320.881569" y="55.168202" style="stroke: #000000"/>
     <use xlink:href="#m1e27fd100a" x="321.856924" y="54.288146" style="stroke: #000000"/>
     <use xlink:href="#m1e27fd100a" x="322.828675" y="53.411671" style="stroke: #000000"/>
     <use xlink:href="#m1e27fd100a" x="323.796859" y="52.538733" style="stroke: #000000"/>
     <use xlink:href="#m1e27fd100a" x="324.761515" y="51.669286" style="stroke: #000000"/>
     <use xlink:href="#m1e27fd100a" x="325.722683" y="50.803288" style="stroke: #000000"/>
     <use xlink:href="#m1e27fd100a" x="326.6804" y="49.940696" style="stroke: #000000"/>
     <use xlink:href="#m1e27fd100a" x="327.634702" y="49.08147" style="stroke: #000000"/>
     <use xlink:href="#m1e27fd100a" x="328.585627" y="48.225568" style="stroke: #000000"/>
     <use xlink:href="#m1e27fd100a" x="329.533209" y="47.372952" style="stroke: #000000"/>
     <use xlink:href="#m1e27fd100a" x="330.477483" y="46.523582" style="stroke: #000000"/>
     <use xlink:href="#m1e27fd100a" x="331.418484" y="45.677421" style="stroke: #000000"/>
     <use xlink:href="#m1e27fd100a" x="332.356246" y="44.834431" style="stroke: #000000"/>
     <use xlink:href="#m1e27fd100a" x="333.290802" y="43.994575" style="stroke: #000000"/>
     <use xlink:href="#m1e27fd100a" x="334.222185" y="43.157818" style="stroke: #000000"/>
     <use xlink:href="#m1e27fd100a" x="335.150426" y="42.324125" style="stroke: #000000"/>
     <use xlink:href="#m1e27fd100a" x="336.075557" y="41.49346" style="stroke: #000000"/>
     <use xlink:href="#m1e27fd100a" x="336.99761" y="40.665791" style="stroke: #000000"/>
     <use xlink:href="#m1e27fd100a" x="337.916615" y="39.841085" style="stroke: #000000"/>
     <use xlink:href="#m1e27fd100a" x="338.832602" y="39.019308" style="stroke: #000000"/>
     <use xlink:href="#m1e27fd100a" x="339.7456" y="38.200429" style="stroke: #000000"/>
     <use xlink:href="#m1e27fd100a" x="340.655638" y="37.384416" style="stroke: #000000"/>
     <use xlink:href="#m1e27fd100a" x="341.562746" y="36.571239" style="stroke: #000000"/>
     <use xlink:href="#m1e27fd100a" x="342.466951" y="35.760867" style="stroke: #000000"/>
     <use xlink:href="#m1e27fd100a" x="343.368281" y="34.953271" style="stroke: #000000"/>
     <use xlink:href="#m1e27fd100a" x="344.266763" y="34.148422" style="stroke: #000000"/>
     <use xlink:href="#m1e27fd100a" x="345.162424" y="33.346291" style="stroke: #000000"/>
     <use xlink:href="#m1e27fd100a" x="346.05529" y="32.54685" style="stroke: #000000"/>
     <use xlink:href="#m1e27fd100a" x="346.945388" y="31.750071" style="stroke: #000000"/>
     <use xlink:href="#m1e27fd100a" x="347.832743" y="30.955928" style="stroke: #000000"/>
     <use xlink:href="#m1e27fd100a" x="348.71738" y="30.164393" style="stroke: #000000"/>
     <use xlink:href="#m1e27fd100a" x="349.599324" y="29.375441" style="stroke: #000000"/>
     <use xlink:href="#m1e27fd100a" x="350.4786" y="28.589045" style="stroke: #000000"/>
     <use xlink:href="#m1e27fd100a" x="351.355231" y="27.80518" style="stroke: #000000"/>
     <use xlink:href="#m1e27fd100a" x="352.229241" y="27.023822" style="stroke: #000000"/>
     <use xlink:href="#m1e27fd100a" x="353.100654" y="26.244946" style="stroke: #000000"/>
     <use xlink:href="#m1e27fd100a" x="353.969492" y="25.468528" style="stroke: #000000"/>
     <use xlink:href="#m1e27fd100a" x="354.835779" y="24.694544" style="stroke: #000000"/>
     <use xlink:href="#m1e27fd100a" x="355.699537" y="23.922971" style="stroke: #000000"/>
     <use xlink:href="#m1e27fd100a" x="356.560787" y="23.153786" style="stroke: #000000"/>
     <use xlink:href="#m1e27fd100a" x="357.419552" y="22.386966" style="stroke: #000000"/>
     <use xlink:href="#m1e27fd100a" x="358.275852" y="21.622489" style="stroke: #000000"/>
     <use xlink:href="#m1e27fd100a" x="359.12971" y="20.860334" style="stroke: #000000"/>
     <use xlink:href="#m1e27fd100a" x="359.981145" y="20.100478" style="stroke: #000000"/>
     <use xlink:href="#m1e27fd100a" x="360.830178" y="19.342901" style="stroke: #000000"/>
     <use xlink:href="#m1e27fd100a" x="361.67683" y="18.587582" style="stroke: #000000"/>
     <use xlink:href="#m1e27fd100a" x="362.52112" y="17.834501" style="stroke: #000000"/>
     <use xlink:href="#m1e27fd100a" x="363.363068" y="17.083636" style="stroke: #000000"/>
    </g>
   </g>
   <g id="patch_3">
    <path d="M 43.78125 224.64 
L 43.78125 7.2 
" style="fill: none; stroke: #000000; stroke-width: 0.8; stroke-linejoin: miter; stroke-linecap: square"/>
   </g>
   <g id="patch_4">
    <path d="M 378.58125 224.64 
L 378.58125 7.2 
" style="fill: none; stroke: #000000; stroke-width: 0.8; stroke-linejoin: miter; stroke-linecap: square"/>
   </g>
   <g id="patch_5">
    <path d="M 43.78125 224.64 
L 378.58125 224.64 
" style="fill: none; stroke: #000000; stroke-width: 0.8; stroke-linejoin: miter; stroke-linecap: square"/>
   </g>
   <g id="patch_6">
    <path d="M 43.78125 7.2 
L 378.58125 7.2 
" style="fill: none; stroke: #000000; stroke-width: 0.8; stroke-linejoin: miter; stroke-linecap: square"/>
   </g>
   <g id="legend_1">
    <g id="patch_7">
     <path d="M 367.58125 20.2 
L 371.58125 20.2 
Q 373.58125 20.2 373.58125 18.2 
L 373.58125 14.2 
Q 373.58125 12.2 371.58125 12.2 
L 367.58125 12.2 
Q 365.58125 12.2 365.58125 14.2 
L 365.58125 18.2 
Q 365.58125 20.2 367.58125 20.2 
z
" style="fill: #ffffff; opacity: 0.8; stroke: #cccccc; stroke-linejoin: miter"/>
    </g>
   </g>
  </g>
 </g>
 <defs>
  <clipPath id="p88e48f5909">
   <rect x="43.78125" y="7.2" width="334.8" height="217.44"/>
  </clipPath>
 </defs>
</svg>
