<?xml version="1.0" encoding="utf-8" standalone="no"?>
<!DOCTYPE svg PUBLIC "-//W3C//DTD SVG 1.1//EN"
  "http://www.w3.org/Graphics/SVG/1.1/DTD/svg11.dtd">
<svg xmlns:xlink="http://www.w3.org/1999/xlink" width="385.78125pt" height="262.19625pt" viewBox="0 0 385.78125 262.19625" xmlns="http://www.w3.org/2000/svg" version="1.1">
 <metadata>
  <rdf:RDF xmlns:dc="http://purl.org/dc/elements/1.1/" xmlns:cc="http://creativecommons.org/ns#" xmlns:rdf="http://www.w3.org/1999/02/22-rdf-syntax-ns#">
   <cc:Work>
    <dc:type rdf:resource="http://purl.org/dc/dcmitype/StillImage"/>
    <dc:date>2024-09-23T11:30:02.637355</dc:date>
    <dc:format>image/svg+xml</dc:format>
    <dc:creator>
     <cc:Agent>
      <dc:title>Matplotlib v3.5.2, https://matplotlib.org/</dc:title>
     </cc:Agent>
    </dc:creator>
   </cc:Work>
  </rdf:RDF>
 </metadata>
 <defs>
  <style type="text/css">*{stroke-linejoin: round; stroke-linecap: butt}</style>
 </defs>
 <g id="figure_1">
  <g id="patch_1">
   <path d="M 0 262.19625 
L 385.78125 262.19625 
L 385.78125 0 
L 0 0 
z
" style="fill: #ffffff"/>
  </g>
  <g id="axes_1">
   <g id="patch_2">
    <path d="M 43.78125 224.64 
L 378.58125 224.64 
L 378.58125 7.2 
L 43.78125 7.2 
z
" style="fill: #ffffff"/>
   </g>
   <g id="matplotlib.axis_1">
    <g id="xtick_1">
     <g id="line2d_1">
      <defs>
       <path id="m17982d043c" d="M 0 0 
L 0 3.5 
" style="stroke: #000000; stroke-width: 0.8"/>
      </defs>
      <g>
       <use xlink:href="#m17982d043c" x="58.999432" y="224.64" style="stroke: #000000; stroke-width: 0.8"/>
      </g>
     </g>
     <g id="text_1">
      <!-- 0 -->
      <g transform="translate(55.818182 239.238437)scale(0.1 -0.1)">
       <defs>
        <path id="DejaVuSans-30" d="M 2034 4250 
Q 1547 4250 1301 3770 
Q 1056 3291 1056 2328 
Q 1056 1369 1301 889 
Q 1547 409 2034 409 
Q 2525 409 2770 889 
Q 3016 1369 3016 2328 
Q 3016 3291 2770 3770 
Q 2525 4250 2034 4250 
z
M 2034 4750 
Q 2819 4750 3233 4129 
Q 3647 3509 3647 2328 
Q 3647 1150 3233 529 
Q 2819 -91 2034 -91 
Q 1250 -91 836 529 
Q 422 1150 422 2328 
Q 422 3509 836 4129 
Q 1250 4750 2034 4750 
z
" transform="scale(0.015625)"/>
       </defs>
       <use xlink:href="#DejaVuSans-30"/>
      </g>
     </g>
    </g>
    <g id="xtick_2">
     <g id="line2d_2">
      <g>
       <use xlink:href="#m17982d043c" x="126.262114" y="224.64" style="stroke: #000000; stroke-width: 0.8"/>
      </g>
     </g>
     <g id="text_2">
      <!-- 2 -->
      <g transform="translate(123.080864 239.238437)scale(0.1 -0.1)">
       <defs>
        <path id="DejaVuSans-32" d="M 1228 531 
L 3431 531 
L 3431 0 
L 469 0 
L 469 531 
Q 828 903 1448 1529 
Q 2069 2156 2228 2338 
Q 2531 2678 2651 2914 
Q 2772 3150 2772 3378 
Q 2772 3750 2511 3984 
Q 2250 4219 1831 4219 
Q 1534 4219 1204 4116 
Q 875 4013 500 3803 
L 500 4441 
Q 881 4594 1212 4672 
Q 1544 4750 1819 4750 
Q 2544 4750 2975 4387 
Q 3406 4025 3406 3419 
Q 3406 3131 3298 2873 
Q 3191 2616 2906 2266 
Q 2828 2175 2409 1742 
Q 1991 1309 1228 531 
z
" transform="scale(0.015625)"/>
       </defs>
       <use xlink:href="#DejaVuSans-32"/>
      </g>
     </g>
    </g>
    <g id="xtick_3">
     <g id="line2d_3">
      <g>
       <use xlink:href="#m17982d043c" x="193.524796" y="224.64" style="stroke: #000000; stroke-width: 0.8"/>
      </g>
     </g>
     <g id="text_3">
      <!-- 4 -->
      <g transform="translate(190.343546 239.238437)scale(0.1 -0.1)">
       <defs>
        <path id="DejaVuSans-34" d="M 2419 4116 
L 825 1625 
L 2419 1625 
L 2419 4116 
z
M 2253 4666 
L 3047 4666 
L 3047 1625 
L 3713 1625 
L 3713 1100 
L 3047 1100 
L 3047 0 
L 2419 0 
L 2419 1100 
L 313 1100 
L 313 1709 
L 2253 4666 
z
" transform="scale(0.015625)"/>
       </defs>
       <use xlink:href="#DejaVuSans-34"/>
      </g>
     </g>
    </g>
    <g id="xtick_4">
     <g id="line2d_4">
      <g>
       <use xlink:href="#m17982d043c" x="260.787478" y="224.64" style="stroke: #000000; stroke-width: 0.8"/>
      </g>
     </g>
     <g id="text_4">
      <!-- 6 -->
      <g transform="translate(257.606228 239.238437)scale(0.1 -0.1)">
       <defs>
        <path id="DejaVuSans-36" d="M 2113 2584 
Q 1688 2584 1439 2293 
Q 1191 2003 1191 1497 
Q 1191 994 1439 701 
Q 1688 409 2113 409 
Q 2538 409 2786 701 
Q 3034 994 3034 1497 
Q 3034 2003 2786 2293 
Q 2538 2584 2113 2584 
z
M 3366 4563 
L 3366 3988 
Q 3128 4100 2886 4159 
Q 2644 4219 2406 4219 
Q 1781 4219 1451 3797 
Q 1122 3375 1075 2522 
Q 1259 2794 1537 2939 
Q 1816 3084 2150 3084 
Q 2853 3084 3261 2657 
Q 3669 2231 3669 1497 
Q 3669 778 3244 343 
Q 2819 -91 2113 -91 
Q 1303 -91 875 529 
Q 447 1150 447 2328 
Q 447 3434 972 4092 
Q 1497 4750 2381 4750 
Q 2619 4750 2861 4703 
Q 3103 4656 3366 4563 
z
" transform="scale(0.015625)"/>
       </defs>
       <use xlink:href="#DejaVuSans-36"/>
      </g>
     </g>
    </g>
    <g id="xtick_5">
     <g id="line2d_5">
      <g>
       <use xlink:href="#m17982d043c" x="328.05016" y="224.64" style="stroke: #000000; stroke-width: 0.8"/>
      </g>
     </g>
     <g id="text_5">
      <!-- 8 -->
      <g transform="translate(324.86891 239.238437)scale(0.1 -0.1)">
       <defs>
        <path id="DejaVuSans-38" d="M 2034 2216 
Q 1584 2216 1326 1975 
Q 1069 1734 1069 1313 
Q 1069 891 1326 650 
Q 1584 409 2034 409 
Q 2484 409 2743 651 
Q 3003 894 3003 1313 
Q 3003 1734 2745 1975 
Q 2488 2216 2034 2216 
z
M 1403 2484 
Q 997 2584 770 2862 
Q 544 3141 544 3541 
Q 544 4100 942 4425 
Q 1341 4750 2034 4750 
Q 2731 4750 3128 4425 
Q 3525 4100 3525 3541 
Q 3525 3141 3298 2862 
Q 3072 2584 2669 2484 
Q 3125 2378 3379 2068 
Q 3634 1759 3634 1313 
Q 3634 634 3220 271 
Q 2806 -91 2034 -91 
Q 1263 -91 848 271 
Q 434 634 434 1313 
Q 434 1759 690 2068 
Q 947 2378 1403 2484 
z
M 1172 3481 
Q 1172 3119 1398 2916 
Q 1625 2713 2034 2713 
Q 2441 2713 2670 2916 
Q 2900 3119 2900 3481 
Q 2900 3844 2670 4047 
Q 2441 4250 2034 4250 
Q 1625 4250 1398 4047 
Q 1172 3844 1172 3481 
z
" transform="scale(0.015625)"/>
       </defs>
       <use xlink:href="#DejaVuSans-38"/>
      </g>
     </g>
    </g>
    <g id="text_6">
     <!-- T -->
     <g transform="translate(208.127344 252.916562)scale(0.1 -0.1)">
      <defs>
       <path id="DejaVuSans-54" d="M -19 4666 
L 3928 4666 
L 3928 4134 
L 2272 4134 
L 2272 0 
L 1638 0 
L 1638 4134 
L -19 4134 
L -19 4666 
z
" transform="scale(0.015625)"/>
      </defs>
      <use xlink:href="#DejaVuSans-54"/>
     </g>
    </g>
   </g>
   <g id="matplotlib.axis_2">
    <g id="ytick_1">
     <g id="line2d_6">
      <defs>
       <path id="m78db51898b" d="M 0 0 
L -3.5 0 
" style="stroke: #000000; stroke-width: 0.8"/>
      </defs>
      <g>
       <use xlink:href="#m78db51898b" x="43.78125" y="192.317272" style="stroke: #000000; stroke-width: 0.8"/>
      </g>
     </g>
     <g id="text_7">
      <!-- 1.0 -->
      <g transform="translate(20.878125 196.116491)scale(0.1 -0.1)">
       <defs>
        <path id="DejaVuSans-31" d="M 794 531 
L 1825 531 
L 1825 4091 
L 703 3866 
L 703 4441 
L 1819 4666 
L 2450 4666 
L 2450 531 
L 3481 531 
L 3481 0 
L 794 0 
L 794 531 
z
" transform="scale(0.015625)"/>
        <path id="DejaVuSans-2e" d="M 684 794 
L 1344 794 
L 1344 0 
L 684 0 
L 684 794 
z
" transform="scale(0.015625)"/>
       </defs>
       <use xlink:href="#DejaVuSans-31"/>
       <use xlink:href="#DejaVuSans-2e" x="63.623047"/>
       <use xlink:href="#DejaVuSans-30" x="95.410156"/>
      </g>
     </g>
    </g>
    <g id="ytick_2">
     <g id="line2d_7">
      <g>
       <use xlink:href="#m78db51898b" x="43.78125" y="148.067882" style="stroke: #000000; stroke-width: 0.8"/>
      </g>
     </g>
     <g id="text_8">
      <!-- 1.5 -->
      <g transform="translate(20.878125 151.8671)scale(0.1 -0.1)">
       <defs>
        <path id="DejaVuSans-35" d="M 691 4666 
L 3169 4666 
L 3169 4134 
L 1269 4134 
L 1269 2991 
Q 1406 3038 1543 3061 
Q 1681 3084 1819 3084 
Q 2600 3084 3056 2656 
Q 3513 2228 3513 1497 
Q 3513 744 3044 326 
Q 2575 -91 1722 -91 
Q 1428 -91 1123 -41 
Q 819 9 494 109 
L 494 744 
Q 775 591 1075 516 
Q 1375 441 1709 441 
Q 2250 441 2565 725 
Q 2881 1009 2881 1497 
Q 2881 1984 2565 2268 
Q 2250 2553 1709 2553 
Q 1456 2553 1204 2497 
Q 953 2441 691 2322 
L 691 4666 
z
" transform="scale(0.015625)"/>
       </defs>
       <use xlink:href="#DejaVuSans-31"/>
       <use xlink:href="#DejaVuSans-2e" x="63.623047"/>
       <use xlink:href="#DejaVuSans-35" x="95.410156"/>
      </g>
     </g>
    </g>
    <g id="ytick_3">
     <g id="line2d_8">
      <g>
       <use xlink:href="#m78db51898b" x="43.78125" y="103.818491" style="stroke: #000000; stroke-width: 0.8"/>
      </g>
     </g>
     <g id="text_9">
      <!-- 2.0 -->
      <g transform="translate(20.878125 107.61771)scale(0.1 -0.1)">
       <use xlink:href="#DejaVuSans-32"/>
       <use xlink:href="#DejaVuSans-2e" x="63.623047"/>
       <use xlink:href="#DejaVuSans-30" x="95.410156"/>
      </g>
     </g>
    </g>
    <g id="ytick_4">
     <g id="line2d_9">
      <g>
       <use xlink:href="#m78db51898b" x="43.78125" y="59.5691" style="stroke: #000000; stroke-width: 0.8"/>
      </g>
     </g>
     <g id="text_10">
      <!-- 2.5 -->
      <g transform="translate(20.878125 63.368319)scale(0.1 -0.1)">
       <use xlink:href="#DejaVuSans-32"/>
       <use xlink:href="#DejaVuSans-2e" x="63.623047"/>
       <use xlink:href="#DejaVuSans-35" x="95.410156"/>
      </g>
     </g>
    </g>
    <g id="ytick_5">
     <g id="line2d_10">
      <g>
       <use xlink:href="#m78db51898b" x="43.78125" y="15.319709" style="stroke: #000000; stroke-width: 0.8"/>
      </g>
     </g>
     <g id="text_11">
      <!-- 3.0 -->
      <g transform="translate(20.878125 19.118928)scale(0.1 -0.1)">
       <defs>
        <path id="DejaVuSans-33" d="M 2597 2516 
Q 3050 2419 3304 2112 
Q 3559 1806 3559 1356 
Q 3559 666 3084 287 
Q 2609 -91 1734 -91 
Q 1441 -91 1130 -33 
Q 819 25 488 141 
L 488 750 
Q 750 597 1062 519 
Q 1375 441 1716 441 
Q 2309 441 2620 675 
Q 2931 909 2931 1356 
Q 2931 1769 2642 2001 
Q 2353 2234 1838 2234 
L 1294 2234 
L 1294 2753 
L 1863 2753 
Q 2328 2753 2575 2939 
Q 2822 3125 2822 3475 
Q 2822 3834 2567 4026 
Q 2313 4219 1838 4219 
Q 1578 4219 1281 4162 
Q 984 4106 628 3988 
L 628 4550 
Q 988 4650 1302 4700 
Q 1616 4750 1894 4750 
Q 2613 4750 3031 4423 
Q 3450 4097 3450 3541 
Q 3450 3153 3228 2886 
Q 3006 2619 2597 2516 
z
" transform="scale(0.015625)"/>
       </defs>
       <use xlink:href="#DejaVuSans-33"/>
       <use xlink:href="#DejaVuSans-2e" x="63.623047"/>
       <use xlink:href="#DejaVuSans-30" x="95.410156"/>
      </g>
     </g>
    </g>
    <g id="text_12">
     <!-- X -->
     <g transform="translate(14.798438 119.345)rotate(-90)scale(0.1 -0.1)">
      <defs>
       <path id="DejaVuSans-58" d="M 403 4666 
L 1081 4666 
L 2241 2931 
L 3406 4666 
L 4084 4666 
L 2584 2425 
L 4184 0 
L 3506 0 
L 2194 1984 
L 872 0 
L 191 0 
L 1856 2491 
L 403 4666 
z
" transform="scale(0.015625)"/>
      </defs>
      <use xlink:href="#DejaVuSans-58"/>
     </g>
    </g>
   </g>
   <g id="line2d_11">
    <defs>
     <path id="m2251f16fc8" d="M 0 0.75 
C 0.198902 0.75 0.389685 0.670975 0.53033 0.53033 
C 0.670975 0.389685 0.75 0.198902 0.75 0 
C 0.75 -0.198902 0.670975 -0.389685 0.53033 -0.53033 
C 0.389685 -0.670975 0.198902 -0.75 0 -0.75 
C -0.198902 -0.75 -0.389685 -0.670975 -0.53033 -0.53033 
C -0.670975 -0.389685 -0.75 -0.198902 -0.75 0 
C -0.75 0.198902 -0.670975 0.389685 -0.53033 0.53033 
C -0.389685 0.670975 -0.198902 0.75 0 0.75 
z
" style="stroke: #000000"/>
    </defs>
    <g clip-path="url(#pfedc8ea920)">
     <use xlink:href="#m2251f16fc8" x="58.999432" y="192.317272" style="stroke: #000000"/>
     <use xlink:href="#m2251f16fc8" x="60.680999" y="196.742211" style="stroke: #000000"/>
     <use xlink:href="#m2251f16fc8" x="62.362566" y="200.514472" style="stroke: #000000"/>
     <use xlink:href="#m2251f16fc8" x="64.044133" y="203.71516" style="stroke: #000000"/>
     <use xlink:href="#m2251f16fc8" x="65.7257" y="206.409967" style="stroke: #000000"/>
     <use xlink:href="#m2251f16fc8" x="67.407267" y="208.652856" style="stroke: #000000"/>
     <use xlink:href="#m2251f16fc8" x="69.088834" y="210.488768" style="stroke: #000000"/>
     <use xlink:href="#m2251f16fc8" x="70.770401" y="211.955634" style="stroke: #000000"/>
     <use xlink:href="#m2251f16fc8" x="72.451968" y="213.085901" style="stroke: #000000"/>
     <use xlink:href="#m2251f16fc8" x="74.133535" y="213.907697" style="stroke: #000000"/>
     <use xlink:href="#m2251f16fc8" x="75.815102" y="214.445735" style="stroke: #000000"/>
     <use xlink:href="#m2251f16fc8" x="77.496669" y="214.722011" style="stroke: #000000"/>
     <use xlink:href="#m2251f16fc8" x="79.178236" y="214.756364" style="stroke: #000000"/>
     <use xlink:href="#m2251f16fc8" x="80.859803" y="214.566905" style="stroke: #000000"/>
     <use xlink:href="#m2251f16fc8" x="82.541371" y="214.170361" style="stroke: #000000"/>
     <use xlink:href="#m2251f16fc8" x="84.222938" y="213.582344" style="stroke: #000000"/>
     <use xlink:href="#m2251f16fc8" x="85.904505" y="212.817557" style="stroke: #000000"/>
     <use xlink:href="#m2251f16fc8" x="87.586072" y="211.889956" style="stroke: #000000"/>
     <use xlink:href="#m2251f16fc8" x="89.267639" y="210.812866" style="stroke: #000000"/>
     <use xlink:href="#m2251f16fc8" x="90.949206" y="209.599073" style="stroke: #000000"/>
     <use xlink:href="#m2251f16fc8" x="92.630773" y="208.260877" style="stroke: #000000"/>
     <use xlink:href="#m2251f16fc8" x="94.31234" y="206.810133" style="stroke: #000000"/>
     <use xlink:href="#m2251f16fc8" x="95.993907" y="205.25827" style="stroke: #000000"/>
     <use xlink:href="#m2251f16fc8" x="97.675474" y="203.616293" style="stroke: #000000"/>
     <use xlink:href="#m2251f16fc8" x="99.357041" y="201.89478" style="stroke: #000000"/>
     <use xlink:href="#m2251f16fc8" x="101.038608" y="200.103866" style="stroke: #000000"/>
     <use xlink:href="#m2251f16fc8" x="102.720175" y="198.253228" style="stroke: #000000"/>
     <use xlink:href="#m2251f16fc8" x="104.401742" y="196.352058" style="stroke: #000000"/>
     <use xlink:href="#m2251f16fc8" x="106.083309" y="194.409048" style="stroke: #000000"/>
     <use xlink:href="#m2251f16fc8" x="107.764876" y="192.432367" style="stroke: #000000"/>
     <use xlink:href="#m2251f16fc8" x="109.446443" y="190.429642" style="stroke: #000000"/>
     <use xlink:href="#m2251f16fc8" x="111.12801" y="188.407949" style="stroke: #000000"/>
     <use xlink:href="#m2251f16fc8" x="112.809577" y="186.373799" style="stroke: #000000"/>
     <use xlink:href="#m2251f16fc8" x="114.491145" y="184.333141" style="stroke: #000000"/>
     <use xlink:href="#m2251f16fc8" x="116.172712" y="182.291359" style="stroke: #000000"/>
     <use xlink:href="#m2251f16fc8" x="117.854279" y="180.253284" style="stroke: #000000"/>
     <use xlink:href="#m2251f16fc8" x="119.535846" y="178.223206" style="stroke: #000000"/>
     <use xlink:href="#m2251f16fc8" x="121.217413" y="176.20489" style="stroke: #000000"/>
     <use xlink:href="#m2251f16fc8" x="122.89898" y="174.201604" style="stroke: #000000"/>
     <use xlink:href="#m2251f16fc8" x="124.580547" y="172.216139" style="stroke: #000000"/>
     <use xlink:href="#m2251f16fc8" x="126.262114" y="170.250843" style="stroke: #000000"/>
     <use xlink:href="#m2251f16fc8" x="127.943681" y="168.307651" style="stroke: #000000"/>
     <use xlink:href="#m2251f16fc8" x="129.625248" y="166.388116" style="stroke: #000000"/>
     <use xlink:href="#m2251f16fc8" x="131.306815" y="164.493447" style="stroke: #000000"/>
     <use xlink:href="#m2251f16fc8" x="132.988382" y="162.624537" style="stroke: #000000"/>
     <use xlink:href="#m2251f16fc8" x="134.669949" y="160.782003" style="stroke: #000000"/>
     <use xlink:href="#m2251f16fc8" x="136.351516" y="158.966213" style="stroke: #000000"/>
     <use xlink:href="#m2251f16fc8" x="138.033083" y="157.177321" style="stroke: #000000"/>
     <use xlink:href="#m2251f16fc8" x="139.71465" y="155.415294" style="stroke: #000000"/>
     <use xlink:href="#m2251f16fc8" x="141.396217" y="153.679941" style="stroke: #000000"/>
     <use xlink:href="#m2251f16fc8" x="143.077784" y="151.970939" style="stroke: #000000"/>
     <use xlink:href="#m2251f16fc8" x="144.759351" y="150.287852" style="stroke: #000000"/>
     <use xlink:href="#m2251f16fc8" x="146.440919" y="148.630159" style="stroke: #000000"/>
     <use xlink:href="#m2251f16fc8" x="148.122486" y="146.997268" style="stroke: #000000"/>
     <use xlink:href="#m2251f16fc8" x="149.804053" y="145.388532" style="stroke: #000000"/>
     <use xlink:href="#m2251f16fc8" x="151.48562" y="143.803267" style="stroke: #000000"/>
     <use xlink:href="#m2251f16fc8" x="153.167187" y="142.240765" style="stroke: #000000"/>
     <use xlink:href="#m2251f16fc8" x="154.848754" y="140.7003" style="stroke: #000000"/>
     <use xlink:href="#m2251f16fc8" x="156.530321" y="139.181142" style="stroke: #000000"/>
     <use xlink:href="#m2251f16fc8" x="158.211888" y="137.682561" style="stroke: #000000"/>
     <use xlink:href="#m2251f16fc8" x="159.893455" y="136.203838" style="stroke: #000000"/>
     <use xlink:href="#m2251f16fc8" x="161.575022" y="134.744264" style="stroke: #000000"/>
     <use xlink:href="#m2251f16fc8" x="163.256589" y="133.30315" style="stroke: #000000"/>
     <use xlink:href="#m2251f16fc8" x="164.938156" y="131.879825" style="stroke: #000000"/>
     <use xlink:href="#m2251f16fc8" x="166.619723" y="130.473643" style="stroke: #000000"/>
     <use xlink:href="#m2251f16fc8" x="168.30129" y="129.08398" style="stroke: #000000"/>
     <use xlink:href="#m2251f16fc8" x="169.982857" y="127.710239" style="stroke: #000000"/>
     <use xlink:href="#m2251f16fc8" x="171.664424" y="126.351846" style="stroke: #000000"/>
     <use xlink:href="#m2251f16fc8" x="173.345991" y="125.008254" style="stroke: #000000"/>
     <use xlink:href="#m2251f16fc8" x="175.027558" y="123.678944" style="stroke: #000000"/>
     <use xlink:href="#m2251f16fc8" x="176.709125" y="122.363419" style="stroke: #000000"/>
     <use xlink:href="#m2251f16fc8" x="178.390692" y="121.061208" style="stroke: #000000"/>
     <use xlink:href="#m2251f16fc8" x="180.07226" y="119.771862" style="stroke: #000000"/>
     <use xlink:href="#m2251f16fc8" x="181.753827" y="118.494956" style="stroke: #000000"/>
     <use xlink:href="#m2251f16fc8" x="183.435394" y="117.230088" style="stroke: #000000"/>
     <use xlink:href="#m2251f16fc8" x="185.116961" y="115.976873" style="stroke: #000000"/>
     <use xlink:href="#m2251f16fc8" x="186.798528" y="114.73495" style="stroke: #000000"/>
     <use xlink:href="#m2251f16fc8" x="188.480095" y="113.503974" style="stroke: #000000"/>
     <use xlink:href="#m2251f16fc8" x="190.161662" y="112.283618" style="stroke: #000000"/>
     <use xlink:href="#m2251f16fc8" x="191.843229" y="111.073572" style="stroke: #000000"/>
     <use xlink:href="#m2251f16fc8" x="193.524796" y="109.873541" style="stroke: #000000"/>
     <use xlink:href="#m2251f16fc8" x="195.206363" y="108.683245" style="stroke: #000000"/>
     <use xlink:href="#m2251f16fc8" x="196.88793" y="107.502418" style="stroke: #000000"/>
     <use xlink:href="#m2251f16fc8" x="198.569497" y="106.330806" style="stroke: #000000"/>
     <use xlink:href="#m2251f16fc8" x="200.251064" y="105.168168" style="stroke: #000000"/>
     <use xlink:href="#m2251f16fc8" x="201.932631" y="104.014274" style="stroke: #000000"/>
     <use xlink:href="#m2251f16fc8" x="203.614198" y="102.868904" style="stroke: #000000"/>
     <use xlink:href="#m2251f16fc8" x="205.295765" y="101.731849" style="stroke: #000000"/>
     <use xlink:href="#m2251f16fc8" x="206.977332" y="100.602909" style="stroke: #000000"/>
     <use xlink:href="#m2251f16fc8" x="208.658899" y="99.481892" style="stroke: #000000"/>
     <use xlink:href="#m2251f16fc8" x="210.340466" y="98.368614" style="stroke: #000000"/>
     <use xlink:href="#m2251f16fc8" x="212.022034" y="97.2629" style="stroke: #000000"/>
     <use xlink:href="#m2251f16fc8" x="213.703601" y="96.164582" style="stroke: #000000"/>
     <use xlink:href="#m2251f16fc8" x="215.385168" y="95.073498" style="stroke: #000000"/>
     <use xlink:href="#m2251f16fc8" x="217.066735" y="93.989493" style="stroke: #000000"/>
     <use xlink:href="#m2251f16fc8" x="218.748302" y="92.912418" style="stroke: #000000"/>
     <use xlink:href="#m2251f16fc8" x="220.429869" y="91.842128" style="stroke: #000000"/>
     <use xlink:href="#m2251f16fc8" x="222.111436" y="90.778486" style="stroke: #000000"/>
     <use xlink:href="#m2251f16fc8" x="223.793003" y="89.721359" style="stroke: #000000"/>
     <use xlink:href="#m2251f16fc8" x="225.47457" y="88.670618" style="stroke: #000000"/>
     <use xlink:href="#m2251f16fc8" x="227.156137" y="87.62614" style="stroke: #000000"/>
     <use xlink:href="#m2251f16fc8" x="228.837704" y="86.587804" style="stroke: #000000"/>
     <use xlink:href="#m2251f16fc8" x="230.519271" y="85.555496" style="stroke: #000000"/>
     <use xlink:href="#m2251f16fc8" x="232.200838" y="84.529103" style="stroke: #000000"/>
     <use xlink:href="#m2251f16fc8" x="233.882405" y="83.508519" style="stroke: #000000"/>
     <use xlink:href="#m2251f16fc8" x="235.563972" y="82.493637" style="stroke: #000000"/>
     <use xlink:href="#m2251f16fc8" x="237.245539" y="81.484358" style="stroke: #000000"/>
     <use xlink:href="#m2251f16fc8" x="238.927106" y="80.480583" style="stroke: #000000"/>
     <use xlink:href="#m2251f16fc8" x="240.608673" y="79.482218" style="stroke: #000000"/>
     <use xlink:href="#m2251f16fc8" x="242.29024" y="78.489169" style="stroke: #000000"/>
     <use xlink:href="#m2251f16fc8" x="243.971808" y="77.501348" style="stroke: #000000"/>
     <use xlink:href="#m2251f16fc8" x="245.653375" y="76.518668" style="stroke: #000000"/>
     <use xlink:href="#m2251f16fc8" x="247.334942" y="75.541045" style="stroke: #000000"/>
     <use xlink:href="#m2251f16fc8" x="249.016509" y="74.568397" style="stroke: #000000"/>
     <use xlink:href="#m2251f16fc8" x="250.698076" y="73.600645" style="stroke: #000000"/>
     <use xlink:href="#m2251f16fc8" x="252.379643" y="72.637711" style="stroke: #000000"/>
     <use xlink:href="#m2251f16fc8" x="254.06121" y="71.67952" style="stroke: #000000"/>
     <use xlink:href="#m2251f16fc8" x="255.742777" y="70.725999" style="stroke: #000000"/>
     <use xlink:href="#m2251f16fc8" x="257.424344" y="69.777076" style="stroke: #000000"/>
     <use xlink:href="#m2251f16fc8" x="259.105911" y="68.832683" style="stroke: #000000"/>
     <use xlink:href="#m2251f16fc8" x="260.787478" y="67.892752" style="stroke: #000000"/>
     <use xlink:href="#m2251f16fc8" x="262.469045" y="66.957218" style="stroke: #000000"/>
     <use xlink:href="#m2251f16fc8" x="264.150612" y="66.026015" style="stroke: #000000"/>
     <use xlink:href="#m2251f16fc8" x="265.832179" y="65.099082" style="stroke: #000000"/>
     <use xlink:href="#m2251f16fc8" x="267.513746" y="64.176358" style="stroke: #000000"/>
     <use xlink:href="#m2251f16fc8" x="269.195313" y="63.257783" style="stroke: #000000"/>
     <use xlink:href="#m2251f16fc8" x="270.87688" y="62.3433" style="stroke: #000000"/>
     <use xlink:href="#m2251f16fc8" x="272.558447" y="61.432851" style="stroke: #000000"/>
     <use xlink:href="#m2251f16fc8" x="274.240014" y="60.526382" style="stroke: #000000"/>
     <use xlink:href="#m2251f16fc8" x="275.921581" y="59.623838" style="stroke: #000000"/>
     <use xlink:href="#m2251f16fc8" x="277.603149" y="58.725168" style="stroke: #000000"/>
     <use xlink:href="#m2251f16fc8" x="279.284716" y="57.830318" style="stroke: #000000"/>
     <use xlink:href="#m2251f16fc8" x="280.966283" y="56.93924" style="stroke: #000000"/>
     <use xlink:href="#m2251f16fc8" x="282.64785" y="56.051884" style="stroke: #000000"/>
     <use xlink:href="#m2251f16fc8" x="284.329417" y="55.168202" style="stroke: #000000"/>
     <use xlink:href="#m2251f16fc8" x="286.010984" y="54.288146" style="stroke: #000000"/>
     <use xlink:href="#m2251f16fc8" x="287.692551" y="53.411671" style="stroke: #000000"/>
     <use xlink:href="#m2251f16fc8" x="289.374118" y="52.538733" style="stroke: #000000"/>
     <use xlink:href="#m2251f16fc8" x="291.055685" y="51.669286" style="stroke: #000000"/>
     <use xlink:href="#m2251f16fc8" x="292.737252" y="50.803288" style="stroke: #000000"/>
     <use xlink:href="#m2251f16fc8" x="294.418819" y="49.940696" style="stroke: #000000"/>
     <use xlink:href="#m2251f16fc8" x="296.100386" y="49.08147" style="stroke: #000000"/>
     <use xlink:href="#m2251f16fc8" x="297.781953" y="48.225568" style="stroke: #000000"/>
     <use xlink:href="#m2251f16fc8" x="299.46352" y="47.372952" style="stroke: #000000"/>
     <use xlink:href="#m2251f16fc8" x="301.145087" y="46.523582" style="stroke: #000000"/>
     <use xlink:href="#m2251f16fc8" x="302.826654" y="45.677421" style="stroke: #000000"/>
     <use xlink:href="#m2251f16fc8" x="304.508221" y="44.834431" style="stroke: #000000"/>
     <use xlink:href="#m2251f16fc8" x="306.189788" y="43.994575" style="stroke: #000000"/>
     <use xlink:href="#m2251f16fc8" x="307.871355" y="43.157818" style="stroke: #000000"/>
     <use xlink:href="#m2251f16fc8" x="309.552923" y="42.324125" style="stroke: #000000"/>
     <use xlink:href="#m2251f16fc8" x="311.23449" y="41.49346" style="stroke: #000000"/>
     <use xlink:href="#m2251f16fc8" x="312.916057" y="40.665791" style="stroke: #000000"/>
     <use xlink:href="#m2251f16fc8" x="314.597624" y="39.841085" style="stroke: #000000"/>
     <use xlink:href="#m2251f16fc8" x="316.279191" y="39.019308" style="stroke: #000000"/>
     <use xlink:href="#m2251f16fc8" x="317.960758" y="38.200429" style="stroke: #000000"/>
     <use xlink:href="#m2251f16fc8" x="319.642325" y="37.384416" style="stroke: #000000"/>
     <use xlink:href="#m2251f16fc8" x="321.323892" y="36.571239" style="stroke: #000000"/>
     <use xlink:href="#m2251f16fc8" x="323.005459" y="35.760867" style="stroke: #000000"/>
     <use xlink:href="#m2251f16fc8" x="324.687026" y="34.953271" style="stroke: #000000"/>
     <use xlink:href="#m2251f16fc8" x="326.368593" y="34.148422" style="stroke: #000000"/>
     <use xlink:href="#m2251f16fc8" x="328.05016" y="33.346291" style="stroke: #000000"/>
     <use xlink:href="#m2251f16fc8" x="329.731727" y="32.54685" style="stroke: #000000"/>
     <use xlink:href="#m2251f16fc8" x="331.413294" y="31.750071" style="stroke: #000000"/>
     <use xlink:href="#m2251f16fc8" x="333.094861" y="30.955928" style="stroke: #000000"/>
     <use xlink:href="#m2251f16fc8" x="334.776428" y="30.164393" style="stroke: #000000"/>
     <use xlink:href="#m2251f16fc8" x="336.457995" y="29.375441" style="stroke: #000000"/>
     <use xlink:href="#m2251f16fc8" x="338.139562" y="28.589045" style="stroke: #000000"/>
     <use xlink:href="#m2251f16fc8" x="339.821129" y="27.80518" style="stroke: #000000"/>
     <use xlink:href="#m2251f16fc8" x="341.502697" y="27.023822" style="stroke: #000000"/>
     <use xlink:href="#m2251f16fc8" x="343.184264" y="26.244946" style="stroke: #000000"/>
     <use xlink:href="#m2251f16fc8" x="344.865831" y="25.468528" style="stroke: #000000"/>
     <use xlink:href="#m2251f16fc8" x="346.547398" y="24.694544" style="stroke: #000000"/>
     <use xlink:href="#m2251f16fc8" x="348.228965" y="23.922971" style="stroke: #000000"/>
     <use xlink:href="#m2251f16fc8" x="349.910532" y="23.153786" style="stroke: #000000"/>
     <use xlink:href="#m2251f16fc8" x="351.592099" y="22.386966" style="stroke: #000000"/>
     <use xlink:href="#m2251f16fc8" x="353.273666" y="21.622489" style="stroke: #000000"/>
     <use xlink:href="#m2251f16fc8" x="354.955233" y="20.860334" style="stroke: #000000"/>
     <use xlink:href="#m2251f16fc8" x="356.6368" y="20.100478" style="stroke: #000000"/>
     <use xlink:href="#m2251f16fc8" x="358.318367" y="19.342901" style="stroke: #000000"/>
     <use xlink:href="#m2251f16fc8" x="359.999934" y="18.587582" style="stroke: #000000"/>
     <use xlink:href="#m2251f16fc8" x="361.681501" y="17.834501" style="stroke: #000000"/>
     <use xlink:href="#m2251f16fc8" x="363.363068" y="17.083636" style="stroke: #000000"/>
    </g>
   </g>
   <g id="patch_3">
    <path d="M 43.78125 224.64 
L 43.78125 7.2 
" style="fill: none; stroke: #000000; stroke-width: 0.8; stroke-linejoin: miter; stroke-linecap: square"/>
   </g>
   <g id="patch_4">
    <path d="M 378.58125 224.64 
L 378.58125 7.2 
" style="fill: none; stroke: #000000; stroke-width: 0.8; stroke-linejoin: miter; stroke-linecap: square"/>
   </g>
   <g id="patch_5">
    <path d="M 43.78125 224.64 
L 378.58125 224.64 
" style="fill: none; stroke: #000000; stroke-width: 0.8; stroke-linejoin: miter; stroke-linecap: square"/>
   </g>
   <g id="patch_6">
    <path d="M 43.78125 7.2 
L 378.58125 7.2 
" style="fill: none; stroke: #000000; stroke-width: 0.8; stroke-linejoin: miter; stroke-linecap: square"/>
   </g>
   <g id="legend_1">
    <g id="patch_7">
     <path d="M 50.78125 29.878125 
L 117.092187 29.878125 
Q 119.092187 29.878125 119.092187 27.878125 
L 119.092187 14.2 
Q 119.092187 12.2 117.092187 12.2 
L 50.78125 12.2 
Q 48.78125 12.2 48.78125 14.2 
L 48.78125 27.878125 
Q 48.78125 29.878125 50.78125 29.878125 
z
" style="fill: #ffffff; opacity: 0.8; stroke: #cccccc; stroke-linejoin: miter"/>
    </g>
    <g id="line2d_12">
     <g>
      <use xlink:href="#m2251f16fc8" x="62.78125" y="20.298437" style="stroke: #000000"/>
     </g>
    </g>
    <g id="text_13">
     <!-- X0 = 1 -->
     <g transform="translate(80.78125 23.798437)scale(0.1 -0.1)">
      <defs>
       <path id="DejaVuSans-20" transform="scale(0.015625)"/>
       <path id="DejaVuSans-3d" d="M 678 2906 
L 4684 2906 
L 4684 2381 
L 678 2381 
L 678 2906 
z
M 678 1631 
L 4684 1631 
L 4684 1100 
L 678 1100 
L 678 1631 
z
" transform="scale(0.015625)"/>
      </defs>
      <use xlink:href="#DejaVuSans-58"/>
      <use xlink:href="#DejaVuSans-30" x="68.505859"/>
      <use xlink:href="#DejaVuSans-20" x="132.128906"/>
      <use xlink:href="#DejaVuSans-3d" x="163.916016"/>
      <use xlink:href="#DejaVuSans-20" x="247.705078"/>
      <use xlink:href="#DejaVuSans-31" x="279.492188"/>
     </g>
    </g>
   </g>
  </g>
 </g>
 <defs>
  <clipPath id="pfedc8ea920">
   <rect x="43.78125" y="7.2" width="334.8" height="217.44"/>
  </clipPath>
 </defs>
</svg>
